G04 Layer: BottomLayer*
G04 EasyEDA Pro v1.9.29, 2023-03-16 20:55:29*
G04 Gerber Generator version 0.3*
G04 Scale: 100 percent, Rotated: No, Reflected: No*
G04 Dimensions in millimeters*
G04 Leading zeros omitted, absolute positions, 3 integers and 3 decimals*
%FSLAX33Y33*%
%MOMM*%
%AMOval*1,1,$1,$2,$3*1,1,$1,$4,$5*20,1,$1,$2,$3,$4,$5,0*%
%ADD999C,0.2032*%
%ADD10C,0.599999*%
%ADD11C,0.700001*%
%ADD12R,1.132535X1.37701*%
%ADD13R,0.899998X0.699999*%
%ADD14C,1.5*%
%ADD15C,1.524*%
%ADD16Oval,1.5023X0.0X-0.125X0.0X0.125*%
%ADD17Oval,1.5X0.0X-0.125X0.0X0.125*%
%ADD18R,1.999996X1.999996*%
%ADD19C,0.799998*%
%ADD20C,0.899998*%
%ADD21C,0.499999*%
%ADD22C,0.600001*%
%ADD23C,1.000001*%
G75*


G04 Copper Start*
G36*
G01X1439Y204D02*
G03X2349Y1270I-169J1066D01*
G03X1270Y2349I-1079J0D01*
G03X204Y1439I0J-1079D01*
G01Y3641D01*
G03X1270Y2731I1066J169D01*
G03X2349Y3810I0J1079D01*
G03X2335Y3985I-1079J0D01*
G01X4245Y5895D01*
G03X4429Y6340I-445J445D01*
G01Y7174D01*
G03X4579Y7450I-179J276D01*
G01Y8150D01*
G03X4250Y8479I-329J0D01*
G01X3350D01*
G03X3021Y8150I0J-329D01*
G01Y7450D01*
G03X3171Y7174I329J0D01*
G01Y6601D01*
G01X1445Y4875D01*
G03X1270Y4889I-175J-1065D01*
G03X204Y3979I0J-1079D01*
G01Y6181D01*
G03X1270Y5271I1066J169D01*
G03X2349Y6350I0J1079D01*
G03X1270Y7429I-1079J0D01*
G03X204Y6519I0J-1079D01*
G01Y8721D01*
G03X1270Y7811I1066J169D01*
G03X2349Y8890I0J1079D01*
G03X1270Y9969I-1079J0D01*
G03X204Y9059I0J-1079D01*
G01Y11261D01*
G03X1270Y10351I1066J169D01*
G03X2349Y11430I0J1079D01*
G03X1270Y12509I-1079J0D01*
G03X204Y11599I0J-1079D01*
G01Y13801D01*
G03X1270Y12891I1066J169D01*
G03X2349Y13970I0J1079D01*
G03X1270Y15049I-1079J0D01*
G03X204Y14139I0J-1079D01*
G01Y16341D01*
G03X1270Y15431I1066J169D01*
G03X2349Y16510I0J1079D01*
G03X1270Y17589I-1079J0D01*
G03X204Y16679I0J-1079D01*
G01Y18816D01*
G03X1270Y17959I1066J234D01*
G03X2361Y19050I0J1091D01*
G03X1504Y20116I-1091J0D01*
G01X3281D01*
G03X2731Y19175I529J-941D01*
G01Y18925D01*
G03X3810Y17846I1079J0D01*
G03X4889Y18925I0J1079D01*
G01Y19175D01*
G03X4339Y20116I-1079J0D01*
G01X5821D01*
G03X5271Y19175I529J-941D01*
G01Y18925D01*
G03X5771Y18014I1079J0D01*
G01Y16226D01*
G03X5621Y15950I179J-276D01*
G01Y15250D01*
G03X5950Y14921I329J0D01*
G01X6850D01*
G03X7179Y15250I0J329D01*
G01Y15950D01*
G03X7029Y16226I-329J0D01*
G01Y18086D01*
G03X7429Y18925I-679J839D01*
G01Y19175D01*
G03X6879Y20116I-1079J0D01*
G01X8393D01*
G03X7826Y19175I497J-941D01*
G01Y18925D01*
G03X8534Y17922I1064J0D01*
G03X8271Y17600I66J-322D01*
G01Y15600D01*
G03X8600Y15271I329J0D01*
G01X10600D01*
G01X10621D01*
G01Y13529D01*
G01X10600D01*
G01X8600D01*
G03X8271Y13200I0J-329D01*
G01Y11200D01*
G03X8600Y10871I329J0D01*
G01X10600D01*
G03X10929Y11200I0J329D01*
G01Y11371D01*
G01X11435D01*
G01X11450D01*
G03X12279Y12200I0J829D01*
G01Y16187D01*
G01X12972Y16879D01*
G03X12906Y16510I998J-369D01*
G03X13970Y15446I1064J0D01*
G03X15034Y16510I0J1064D01*
G03X13970Y17574I-1064J0D01*
G03X13601Y17508I0J-1064D01*
G01X14068Y17975D01*
G03X15036Y18881I-98J1075D01*
G01Y11599D01*
G03X13970Y12509I-1066J-169D01*
G03X12891Y11430I0J-1079D01*
G03X13970Y10351I1079J0D01*
G03X15036Y11261I0J1079D01*
G01Y9059D01*
G03X13970Y9969I-1066J-169D01*
G03X13093Y9519I0J-1079D01*
G01X11495D01*
G01Y9889D01*
G03X11166Y10218I-329J0D01*
G01X10034D01*
G03X9705Y9889I0J-329D01*
G01Y8511D01*
G01Y8489D01*
G01X9495D01*
G01Y8511D01*
G01Y9889D01*
G03X9166Y10218I-329J0D01*
G01X8034D01*
G03X7705Y9889I0J-329D01*
G01Y9829D01*
G01X7029D01*
G01Y11141D01*
G03X7179Y11417I-179J276D01*
G01Y12117D01*
G03X6850Y12446I-329J0D01*
G01X5950D01*
G03X5621Y12117I0J-329D01*
G01Y11417D01*
G03X5771Y11141I329J0D01*
G01Y9203D01*
G01Y8426D01*
G03X5621Y8150I179J-276D01*
G01Y7450D01*
G03X5950Y7121I329J0D01*
G01X6850D01*
G03X7179Y7450I0J329D01*
G01Y7624D01*
G03X7680Y7201I671J286D01*
G01Y5961D01*
G01Y5949D01*
G01X7393D01*
G03X6950Y6099I-443J-579D01*
G03X6221Y5370I0J-729D01*
G03X6523Y4779I729J0D01*
G01X5950D01*
G03X5621Y4450I0J-329D01*
G01Y3750D01*
G03X5635Y3654I329J0D01*
G01X4325Y2344D01*
G03X3810Y2474I-515J-949D01*
G03X2731Y1395I0J-1079D01*
G01Y1145D01*
G03X3281Y204I1079J0D01*
G01X1439D01*
G37*
%LPC*%
G36*
G01X12906Y13970D02*
G03X13970Y12906I1064J0D01*
G03X15034Y13970I0J1064D01*
G03X13970Y15034I-1064J0D01*
G03X12906Y13970I0J-1064D01*
G37*
G36*
G01X2996Y15250D02*
G03X3350Y14896I354J0D01*
G01X4250D01*
G03X4604Y15250I0J354D01*
G01Y15950D01*
G03X4250Y16304I-354J0D01*
G01X3350D01*
G03X2996Y15950I0J-354D01*
G01Y15250D01*
G37*
G36*
G01X4250Y3396D02*
G03X4604Y3750I0J354D01*
G01Y4450D01*
G03X4250Y4804I-354J0D01*
G01X3350D01*
G03X2996Y4450I0J-354D01*
G01Y3750D01*
G03X3350Y3396I354J0D01*
G01X4250D01*
G37*
G36*
G01X2996Y11417D02*
G03X3350Y11063I354J0D01*
G01X4250D01*
G03X4604Y11417I0J354D01*
G01Y12117D01*
G03X4250Y12471I-354J0D01*
G01X3350D01*
G03X2996Y12117I0J-354D01*
G01Y11417D01*
G37*
%LPD*%
G36*
G01X6879Y204D02*
G03X7429Y1145I-529J941D01*
G01Y1395D01*
G03X6350Y2474I-1079J0D01*
G03X6051Y2432I0J-1079D01*
G01X6809Y3190D01*
G03X6956Y3438I-410J410D01*
G03X7086Y3521I-106J312D01*
G01X7705D01*
G01Y3411D01*
G03X8034Y3082I329J0D01*
G01X9166D01*
G03X9495Y3411I0J329D01*
G01Y4789D01*
G01Y4791D01*
G01X9705D01*
G01Y4789D01*
G01Y3411D01*
G03X10034Y3082I329J0D01*
G01X11166D01*
G03X11495Y3411I0J329D01*
G01Y3471D01*
G01X11700D01*
G03X12145Y3655I0J629D01*
G01X13778Y5288D01*
G03X13970Y5271I192J1062D01*
G03X15036Y6181I0J1079D01*
G01Y3979D01*
G03X13970Y4889I-1066J-169D01*
G03X12891Y3810I0J-1079D01*
G03X13970Y2731I1079J0D01*
G03X15036Y3641I0J1079D01*
G01Y1439D01*
G03X13970Y2349I-1066J-169D01*
G03X12891Y1270I0J-1079D01*
G03X13801Y204I1079J0D01*
G01X11959D01*
G03X12509Y1145I-529J941D01*
G01Y1395D01*
G03X11430Y2474I-1079J0D01*
G03X10351Y1395I0J-1079D01*
G01Y1145D01*
G03X10901Y204I1079J0D01*
G01X9387D01*
G03X9954Y1145I-497J941D01*
G01Y1395D01*
G03X8890Y2459I-1064J0D01*
G03X7826Y1395I0J-1064D01*
G01Y1145D01*
G03X8393Y204I1064J0D01*
G01X6879D01*
G37*
G36*
G01X9936Y18728D02*
G03X9954Y18925I-1046J197D01*
G01Y19175D01*
G03X9387Y20116I-1064J0D01*
G01X10901D01*
G03X10351Y19175I529J-941D01*
G01Y19143D01*
G01X9936Y18728D01*
G37*
G36*
G01X9705Y5961D02*
G01X9705Y5949D01*
G01X9520D01*
G01Y5961D01*
G01Y7331D01*
G01X9705D01*
G01Y5961D01*
G37*
G54D999*
G01X1439Y204D02*
G03X2349Y1270I-169J1066D01*
G03X1270Y2349I-1079J0D01*
G03X204Y1439I0J-1079D01*
G01Y3641D01*
G03X1270Y2731I1066J169D01*
G03X2349Y3810I0J1079D01*
G03X2335Y3985I-1079J0D01*
G01X4245Y5895D01*
G03X4429Y6340I-445J445D01*
G01Y7174D01*
G03X4579Y7450I-179J276D01*
G01Y8150D01*
G03X4250Y8479I-329J0D01*
G01X3350D01*
G03X3021Y8150I0J-329D01*
G01Y7450D01*
G03X3171Y7174I329J0D01*
G01Y6601D01*
G01X1445Y4875D01*
G03X1270Y4889I-175J-1065D01*
G03X204Y3979I0J-1079D01*
G01Y6181D01*
G03X1270Y5271I1066J169D01*
G03X2349Y6350I0J1079D01*
G03X1270Y7429I-1079J0D01*
G03X204Y6519I0J-1079D01*
G01Y8721D01*
G03X1270Y7811I1066J169D01*
G03X2349Y8890I0J1079D01*
G03X1270Y9969I-1079J0D01*
G03X204Y9059I0J-1079D01*
G01Y11261D01*
G03X1270Y10351I1066J169D01*
G03X2349Y11430I0J1079D01*
G03X1270Y12509I-1079J0D01*
G03X204Y11599I0J-1079D01*
G01Y13801D01*
G03X1270Y12891I1066J169D01*
G03X2349Y13970I0J1079D01*
G03X1270Y15049I-1079J0D01*
G03X204Y14139I0J-1079D01*
G01Y16341D01*
G03X1270Y15431I1066J169D01*
G03X2349Y16510I0J1079D01*
G03X1270Y17589I-1079J0D01*
G03X204Y16679I0J-1079D01*
G01Y18816D01*
G03X1270Y17959I1066J234D01*
G03X2361Y19050I0J1091D01*
G03X1504Y20116I-1091J0D01*
G01X3281D01*
G03X2731Y19175I529J-941D01*
G01Y18925D01*
G03X3810Y17846I1079J0D01*
G03X4889Y18925I0J1079D01*
G01Y19175D01*
G03X4339Y20116I-1079J0D01*
G01X5821D01*
G03X5271Y19175I529J-941D01*
G01Y18925D01*
G03X5771Y18014I1079J0D01*
G01Y16226D01*
G03X5621Y15950I179J-276D01*
G01Y15250D01*
G03X5950Y14921I329J0D01*
G01X6850D01*
G03X7179Y15250I0J329D01*
G01Y15950D01*
G03X7029Y16226I-329J0D01*
G01Y18086D01*
G03X7429Y18925I-679J839D01*
G01Y19175D01*
G03X6879Y20116I-1079J0D01*
G01X8393D01*
G03X7826Y19175I497J-941D01*
G01Y18925D01*
G03X8534Y17922I1064J0D01*
G03X8271Y17600I66J-322D01*
G01Y15600D01*
G03X8600Y15271I329J0D01*
G01X10600D01*
G01X10621D01*
G01Y13529D01*
G01X10600D01*
G01X8600D01*
G03X8271Y13200I0J-329D01*
G01Y11200D01*
G03X8600Y10871I329J0D01*
G01X10600D01*
G03X10929Y11200I0J329D01*
G01Y11371D01*
G01X11435D01*
G01X11450D01*
G03X12279Y12200I0J829D01*
G01Y16187D01*
G01X12972Y16879D01*
G03X12906Y16510I998J-369D01*
G03X13970Y15446I1064J0D01*
G03X15034Y16510I0J1064D01*
G03X13970Y17574I-1064J0D01*
G03X13601Y17508I0J-1064D01*
G01X14068Y17975D01*
G03X15036Y18881I-98J1075D01*
G01Y11599D01*
G03X13970Y12509I-1066J-169D01*
G03X12891Y11430I0J-1079D01*
G03X13970Y10351I1079J0D01*
G03X15036Y11261I0J1079D01*
G01Y9059D01*
G03X13970Y9969I-1066J-169D01*
G03X13093Y9519I0J-1079D01*
G01X11495D01*
G01Y9889D01*
G03X11166Y10218I-329J0D01*
G01X10034D01*
G03X9705Y9889I0J-329D01*
G01Y8511D01*
G01Y8489D01*
G01X9495D01*
G01Y8511D01*
G01Y9889D01*
G03X9166Y10218I-329J0D01*
G01X8034D01*
G03X7705Y9889I0J-329D01*
G01Y9829D01*
G01X7029D01*
G01Y11141D01*
G03X7179Y11417I-179J276D01*
G01Y12117D01*
G03X6850Y12446I-329J0D01*
G01X5950D01*
G03X5621Y12117I0J-329D01*
G01Y11417D01*
G03X5771Y11141I329J0D01*
G01Y9203D01*
G01Y8426D01*
G03X5621Y8150I179J-276D01*
G01Y7450D01*
G03X5950Y7121I329J0D01*
G01X6850D01*
G03X7179Y7450I0J329D01*
G01Y7624D01*
G03X7680Y7201I671J286D01*
G01Y5961D01*
G01Y5949D01*
G01X7393D01*
G03X6950Y6099I-443J-579D01*
G03X6221Y5370I0J-729D01*
G03X6523Y4779I729J0D01*
G01X5950D01*
G03X5621Y4450I0J-329D01*
G01Y3750D01*
G03X5635Y3654I329J0D01*
G01X4325Y2344D01*
G03X3810Y2474I-515J-949D01*
G03X2731Y1395I0J-1079D01*
G01Y1145D01*
G03X3281Y204I1079J0D01*
G01X1439D01*
G01X12906Y13970D02*
G03X13970Y12906I1064J0D01*
G03X15034Y13970I0J1064D01*
G03X13970Y15034I-1064J0D01*
G03X12906Y13970I0J-1064D01*
G01X2996Y15250D02*
G03X3350Y14896I354J0D01*
G01X4250D01*
G03X4604Y15250I0J354D01*
G01Y15950D01*
G03X4250Y16304I-354J0D01*
G01X3350D01*
G03X2996Y15950I0J-354D01*
G01Y15250D01*
G01X4250Y3396D02*
G03X4604Y3750I0J354D01*
G01Y4450D01*
G03X4250Y4804I-354J0D01*
G01X3350D01*
G03X2996Y4450I0J-354D01*
G01Y3750D01*
G03X3350Y3396I354J0D01*
G01X4250D01*
G01X2996Y11417D02*
G03X3350Y11063I354J0D01*
G01X4250D01*
G03X4604Y11417I0J354D01*
G01Y12117D01*
G03X4250Y12471I-354J0D01*
G01X3350D01*
G03X2996Y12117I0J-354D01*
G01Y11417D01*
G01X6879Y204D02*
G03X7429Y1145I-529J941D01*
G01Y1395D01*
G03X6350Y2474I-1079J0D01*
G03X6051Y2432I0J-1079D01*
G01X6809Y3190D01*
G03X6956Y3438I-410J410D01*
G03X7086Y3521I-106J312D01*
G01X7705D01*
G01Y3411D01*
G03X8034Y3082I329J0D01*
G01X9166D01*
G03X9495Y3411I0J329D01*
G01Y4789D01*
G01Y4791D01*
G01X9705D01*
G01Y4789D01*
G01Y3411D01*
G03X10034Y3082I329J0D01*
G01X11166D01*
G03X11495Y3411I0J329D01*
G01Y3471D01*
G01X11700D01*
G03X12145Y3655I0J629D01*
G01X13778Y5288D01*
G03X13970Y5271I192J1062D01*
G03X15036Y6181I0J1079D01*
G01Y3979D01*
G03X13970Y4889I-1066J-169D01*
G03X12891Y3810I0J-1079D01*
G03X13970Y2731I1079J0D01*
G03X15036Y3641I0J1079D01*
G01Y1439D01*
G03X13970Y2349I-1066J-169D01*
G03X12891Y1270I0J-1079D01*
G03X13801Y204I1079J0D01*
G01X11959D01*
G03X12509Y1145I-529J941D01*
G01Y1395D01*
G03X11430Y2474I-1079J0D01*
G03X10351Y1395I0J-1079D01*
G01Y1145D01*
G03X10901Y204I1079J0D01*
G01X9387D01*
G03X9954Y1145I-497J941D01*
G01Y1395D01*
G03X8890Y2459I-1064J0D01*
G03X7826Y1395I0J-1064D01*
G01Y1145D01*
G03X8393Y204I1064J0D01*
G01X6879D01*
G01X9936Y18728D02*
G03X9954Y18925I-1046J197D01*
G01Y19175D01*
G03X9387Y20116I-1064J0D01*
G01X10901D01*
G03X10351Y19175I529J-941D01*
G01Y19143D01*
G01X9936Y18728D01*
G01X9705Y5961D02*
G01X9705Y5949D01*
G01X9520D01*
G01Y5961D01*
G01Y7331D01*
G01X9705D01*
G01Y5961D01*
G54D10*
G01X3800Y11767D02*
G01X4505Y11767D01*
G01X3800Y11767D02*
G01X3095Y11767D01*
G01X3800Y11767D02*
G01X3800Y11162D01*
G01X3800Y11767D02*
G01X3800Y12372D01*
G01X8600Y6650D02*
G01X9421Y6650D01*
G01X8600Y6650D02*
G01X7779Y6650D01*
G54D11*
G01X13970Y13970D02*
G01X13288Y14652D01*
G01X13970Y13970D02*
G01X13288Y13288D01*
G01X13970Y13970D02*
G01X14652Y14652D01*
G01X13970Y13970D02*
G01X14652Y13288D01*
G01X13970Y16510D02*
G01X13288Y15828D01*
G01X13970Y16510D02*
G01X14652Y17192D01*
G01X13970Y16510D02*
G01X14652Y15828D01*
G01X8890Y19175D02*
G01X9572Y19857D01*
G01X8890Y18925D02*
G01X8208Y18243D01*
G01X8890Y19175D02*
G01X8208Y19857D01*
G01X8890Y1145D02*
G01X9572Y463D01*
G01X8890Y1395D02*
G01X9572Y2077D01*
G01X8890Y1145D02*
G01X8208Y463D01*
G01X8890Y1395D02*
G01X8208Y2077D01*
G54D10*
G01X3800Y15600D02*
G01X4505Y15600D01*
G01X3800Y15600D02*
G01X3095Y15600D01*
G01X3800Y15600D02*
G01X3800Y14995D01*
G01X3800Y15600D02*
G01X3800Y16205D01*
G01X3800Y4100D02*
G01X4505Y4100D01*
G01X3800Y4100D02*
G01X3095Y4100D01*
G01X3800Y4100D02*
G01X3800Y3495D01*
G01X3800Y4100D02*
G01X3800Y4705D01*
G04 Copper End*

G04 Pad Start*
G54D12*
G01X8600Y6650D03*
G01X10600Y6650D03*
G01X8600Y9200D03*
G01X10600Y9200D03*
G54D13*
G01X3800Y7800D03*
G01X6400Y7800D03*
G01X3800Y15600D03*
G01X6400Y15600D03*
G01X3800Y11767D03*
G01X6400Y11767D03*
G54D12*
G01X8600Y4100D03*
G01X10600Y4100D03*
G54D13*
G01X3800Y4100D03*
G01X6400Y4100D03*
G54D14*
G01X13970Y13970D03*
G01X13970Y16510D03*
G01X13970Y19050D03*
G01X13970Y11430D03*
G01X13970Y8890D03*
G01X13970Y6350D03*
G01X13970Y3810D03*
G01X13970Y1270D03*
G01X1270Y1270D03*
G01X1270Y3810D03*
G01X1270Y6350D03*
G01X1270Y8890D03*
G01X1270Y11430D03*
G01X1270Y13970D03*
G01X1270Y16510D03*
G54D15*
G01X1270Y19050D03*
G54D17*
G01X11430Y19050D03*
G01X8890Y19050D03*
G01X6350Y19050D03*
G01X3810Y19050D03*
G01X11430Y1270D03*
G01X8890Y1270D03*
G01X6350Y1270D03*
G01X3810Y1270D03*
G54D18*
G01X9600Y12200D03*
G01X9600Y16600D03*
G04 Pad End*

G04 Via Start*
G54D19*
G01X6950Y5370D03*
G01X7850Y7910D03*
G54D20*
G01X11450Y12200D03*
G04 Via End*

G04 Track Start*
G54D21*
G01X6950Y5370D02*
G01X10230Y5370D01*
G01X10600Y5000D01*
G01Y4100D01*
G54D22*
G01X3800Y11767D02*
G01X3800Y15600D01*
G01X8600Y9200D02*
G01X6403Y9200D01*
G01X6400Y9203D01*
G01X6400Y7800D02*
G01X6400Y9203D01*
G01Y11767D01*
G01X10910Y8890D02*
G01X13970Y8890D01*
G01X13950Y6350D02*
G01X13970Y6350D01*
G01X11700Y4100D02*
G01X13950Y6350D01*
G01X10600Y4100D02*
G01X11700Y4100D01*
G54D21*
G01X6400Y4100D02*
G01X8600Y4100D01*
G54D22*
G01X3800Y9900D02*
G01X3800Y11767D01*
G01X3800Y4100D02*
G01X3800Y4900D01*
G01X5100Y6200D01*
G01Y8600D01*
G01X3800Y9900D01*
G01X3800Y6340D02*
G01X3800Y7800D01*
G01X1270Y3810D02*
G01X3800Y6340D01*
G54D23*
G01X11450Y12200D02*
G01X9600Y12200D01*
G01X9600Y16600D02*
G01X9600Y17220D01*
G01X11430Y19050D01*
G54D22*
G01X10910Y8890D02*
G01X10600Y9200D01*
G01X6400Y15600D02*
G01X6400Y19000D01*
G01X6350Y19050D01*
G54D23*
G01X13970Y19050D02*
G01X11450Y16530D01*
G01Y12200D01*
G54D22*
G01X8600Y6650D02*
G01X5550Y6650D01*
G01X5100Y6200D01*
G54D21*
G01X7850Y7910D02*
G01X10590Y7910D01*
G54D22*
G01X10600Y9200D02*
G01X10600Y7900D01*
G01Y6650D01*
G54D21*
G01X10590Y7910D02*
G01X10600Y7900D01*
G01X6400Y4100D02*
G01X6400Y3600D01*
G01X4070Y1270D01*
G01X3810D01*
G54D23*
G01X13970Y16510D02*
G01X13970Y13970D01*
G04 Track End*

M02*
