G04 Layer: BottomPasteMaskLayer*
G04 EasyEDA Pro v1.9.29, 2023-03-16 20:55:29*
G04 Gerber Generator version 0.3*
G04 Scale: 100 percent, Rotated: No, Reflected: No*
G04 Dimensions in millimeters*
G04 Leading zeros omitted, absolute positions, 3 integers and 3 decimals*
%FSLAX33Y33*%
%MOMM*%
%ADD10C,0.0254*%
%ADD11R,0.899998X0.699999*%
%ADD12R,1.999996X1.999996*%
G75*


G04 PolygonModel Start*
G36*
G01X11300Y6010D02*
G01X11300Y7290D01*
G01X11250Y7340D01*
G01X10100D01*
G01X10050Y7290D01*
G01X10045Y6880D01*
G01X10495D01*
G01Y6430D01*
G01X10055D01*
G01X10050Y6010D01*
G01X10100Y5960D01*
G01X11250D01*
G01X11300Y6010D01*
G37*
G54D10*
G01X11300Y6010D02*
G01X11300Y7290D01*
G01X11250Y7340D01*
G01X10100D01*
G01X10050Y7290D01*
G01X10045Y6880D01*
G01X10495D01*
G01Y6430D01*
G01X10055D01*
G01X10050Y6010D01*
G01X10100Y5960D01*
G01X11250D01*
G01X11300Y6010D01*
G36*
G01X9150Y6010D02*
G01X9150Y6430D01*
G01X8705D01*
G01Y6880D01*
G01X9145D01*
G01X9150Y7290D01*
G01X9100Y7340D01*
G01X7950D01*
G01X7900Y7290D01*
G01Y6010D01*
G01X7950Y5960D01*
G01X9100D01*
G01X9150Y6010D01*
G37*
G01X9150Y6010D02*
G01X9150Y6430D01*
G01X8705D01*
G01Y6880D01*
G01X9145D01*
G01X9150Y7290D01*
G01X9100Y7340D01*
G01X7950D01*
G01X7900Y7290D01*
G01Y6010D01*
G01X7950Y5960D01*
G01X9100D01*
G01X9150Y6010D01*
G36*
G01X11300Y8560D02*
G01X11300Y9840D01*
G01X11250Y9890D01*
G01X10100D01*
G01X10050Y9840D01*
G01X10045Y9430D01*
G01X10495D01*
G01Y8980D01*
G01X10055D01*
G01X10050Y8560D01*
G01X10100Y8510D01*
G01X11250D01*
G01X11300Y8560D01*
G37*
G01X11300Y8560D02*
G01X11300Y9840D01*
G01X11250Y9890D01*
G01X10100D01*
G01X10050Y9840D01*
G01X10045Y9430D01*
G01X10495D01*
G01Y8980D01*
G01X10055D01*
G01X10050Y8560D01*
G01X10100Y8510D01*
G01X11250D01*
G01X11300Y8560D01*
G36*
G01X9150Y8560D02*
G01X9150Y8980D01*
G01X8705D01*
G01Y9430D01*
G01X9145D01*
G01X9150Y9840D01*
G01X9100Y9890D01*
G01X7950D01*
G01X7900Y9840D01*
G01Y8560D01*
G01X7950Y8510D01*
G01X9100D01*
G01X9150Y8560D01*
G37*
G01X9150Y8560D02*
G01X9150Y8980D01*
G01X8705D01*
G01Y9430D01*
G01X9145D01*
G01X9150Y9840D01*
G01X9100Y9890D01*
G01X7950D01*
G01X7900Y9840D01*
G01Y8560D01*
G01X7950Y8510D01*
G01X9100D01*
G01X9150Y8560D01*
G36*
G01X11300Y3460D02*
G01X11300Y4740D01*
G01X11250Y4790D01*
G01X10100D01*
G01X10050Y4740D01*
G01X10045Y4330D01*
G01X10495D01*
G01Y3880D01*
G01X10055D01*
G01X10050Y3460D01*
G01X10100Y3410D01*
G01X11250D01*
G01X11300Y3460D01*
G37*
G01X11300Y3460D02*
G01X11300Y4740D01*
G01X11250Y4790D01*
G01X10100D01*
G01X10050Y4740D01*
G01X10045Y4330D01*
G01X10495D01*
G01Y3880D01*
G01X10055D01*
G01X10050Y3460D01*
G01X10100Y3410D01*
G01X11250D01*
G01X11300Y3460D01*
G36*
G01X9150Y3460D02*
G01X9150Y3880D01*
G01X8705D01*
G01Y4330D01*
G01X9145D01*
G01X9150Y4740D01*
G01X9100Y4790D01*
G01X7950D01*
G01X7900Y4740D01*
G01Y3460D01*
G01X7950Y3410D01*
G01X9100D01*
G01X9150Y3460D01*
G37*
G01X9150Y3460D02*
G01X9150Y3880D01*
G01X8705D01*
G01Y4330D01*
G01X9145D01*
G01X9150Y4740D01*
G01X9100Y4790D01*
G01X7950D01*
G01X7900Y4740D01*
G01Y3460D01*
G01X7950Y3410D01*
G01X9100D01*
G01X9150Y3460D01*
G04 PolygonModel End*

G04 Pad Start*
G54D11*
G01X3800Y7800D03*
G01X6400Y7800D03*
G01X3800Y15600D03*
G01X6400Y15600D03*
G01X3800Y11767D03*
G01X6400Y11767D03*
G01X3800Y4100D03*
G01X6400Y4100D03*
G54D12*
G01X9600Y12200D03*
G01X9600Y16600D03*
G04 Pad End*

M02*
