;TYPE=PLATED
;Layer: PTH_Through
;EasyEDA Pro v1.9.29, 2023-03-16 20:55:30
;Gerber Generator version 0.3
M48
METRIC,LZ,000.000
;Hole size 1 = 0.762 METRIC
T01C0.762
;Hole size 2 = 0.800 METRIC
T02C0.800
%
G05
G90
T01
X001270Y019050
T02
X013970Y013970
X013970Y016510
X013970Y019050
X013970Y011430
X013970Y008890
X013970Y006350
X013970Y003810
X013970Y001270
X001270Y001270
X001270Y003810
X001270Y006350
X001270Y008890
X001270Y011430
X001270Y013970
X001270Y016510
X011430Y019050
X008890Y019050
X006350Y019050
X003810Y019050
X011430Y001270
X008890Y001270
X006350Y001270
X003810Y001270
M30