G04 Layer: BottomSolderMaskLayer*
G04 EasyEDA Pro v1.9.29, 2023-03-16 20:55:29*
G04 Gerber Generator version 0.3*
G04 Scale: 100 percent, Rotated: No, Reflected: No*
G04 Dimensions in millimeters*
G04 Leading zeros omitted, absolute positions, 3 integers and 3 decimals*
%FSLAX33Y33*%
%MOMM*%
%AMOval*1,1,$1,$2,$3*1,1,$1,$4,$5*20,1,$1,$2,$3,$4,$5,0*%
%ADD10R,1.234135X1.47861*%
%ADD11R,1.000023X0.800024*%
%ADD12C,1.6016*%
%ADD13C,1.6256*%
%ADD14Oval,1.6016X0.0X-0.125X0.0X0.125*%
%ADD15R,2.101596X2.101596*%
G75*


G04 Pad Start*
G54D10*
G01X8600Y6650D03*
G01X10600Y6650D03*
G01X8600Y9200D03*
G01X10600Y9200D03*
G54D11*
G01X3800Y7800D03*
G01X6400Y7800D03*
G01X3800Y15600D03*
G01X6400Y15600D03*
G01X3800Y11767D03*
G01X6400Y11767D03*
G54D10*
G01X8600Y4100D03*
G01X10600Y4100D03*
G54D11*
G01X3800Y4100D03*
G01X6400Y4100D03*
G54D12*
G01X13970Y13970D03*
G01X13970Y16510D03*
G01X13970Y19050D03*
G01X13970Y11430D03*
G01X13970Y8890D03*
G01X13970Y6350D03*
G01X13970Y3810D03*
G01X13970Y1270D03*
G01X1270Y1270D03*
G01X1270Y3810D03*
G01X1270Y6350D03*
G01X1270Y8890D03*
G01X1270Y11430D03*
G01X1270Y13970D03*
G01X1270Y16510D03*
G54D13*
G01X1270Y19050D03*
G54D14*
G01X11430Y19050D03*
G01X8890Y19050D03*
G01X6350Y19050D03*
G01X3810Y19050D03*
G01X11430Y1270D03*
G01X8890Y1270D03*
G01X6350Y1270D03*
G01X3810Y1270D03*
G54D15*
G01X9600Y12200D03*
G01X9600Y16600D03*
G04 Pad End*

M02*
