;TYPE=PLATED
;Layer: PTH_Through_Via
;EasyEDA Pro v1.9.29, 2023-05-07 01:58:04
;Gerber Generator version 0.3
M48
METRIC,LZ,000.000
;Hole size 1 = 0.300 METRIC
T01C0.300
;Hole size 2 = 0.305 METRIC
T02C0.305
%
G05
G90
T01
X010432Y008006
T02
X007747Y014428
X007747Y013793
X007112Y015063
X007112Y014428
X007112Y013793
X007112Y013158
X006477Y013158
X006477Y013793
X006477Y014428
X007747Y013158
X007747Y015063
X006477Y015063
X010432Y008641
X010432Y007371
X011067Y008006
X009797Y008006
X011067Y007371
X009797Y007371
X011067Y008641
X009797Y008641
X005842Y013158
X005842Y013793
X005842Y014428
X005842Y015063
X008128Y003302
X003200Y010500
X008300Y005700
X004191Y009144
X007493Y005715
X009100Y012300
M30