G04 Layer: TopSilkscreenLayer*
G04 EasyEDA Pro v1.9.29, 2023-03-16 20:55:29*
G04 Gerber Generator version 0.3*
G04 Scale: 100 percent, Rotated: No, Reflected: No*
G04 Dimensions in millimeters*
G04 Leading zeros omitted, absolute positions, 3 integers and 3 decimals*
%FSLAX33Y33*%
%MOMM*%
%ADD10C,0.850001*%
%ADD11C,0.900001*%
%ADD12C,0.299999*%
%ADD13C,0.700001*%
%ADD14C,0.2*%
%ADD15C,0.127*%
%ADD16C,0.399999*%
%ADD17C,0.254*%
%ADD18C,0.0134*%
%ADD19C,0.00508*%
G75*


G04 Text Start*
G04 //text:  PROTECTOR *
G36*
G01X2540Y17780D02*
G01X2540Y16806D01*
G01X3024D01*
G01Y16953D01*
G01X3025Y17080D01*
G01X3026Y17099D01*
G01X3027Y17102D01*
G01X3032Y17103D01*
G01X3762Y17105D01*
G01X4494Y17103D01*
G01X4510Y17102D01*
G01X4525Y17099D01*
G01Y16743D01*
G01X4523Y16380D01*
G01X4522Y16358D01*
G01X4519Y16332D01*
G01X4516Y16313D01*
G01X4505Y16265D01*
G01X4498Y16242D01*
G01X4487Y16211D01*
G01X4481Y16197D01*
G01X4459Y16160D01*
G01X4450Y16147D01*
G01X4446Y16142D01*
G01X4439Y16135D01*
G01X4430Y16122D01*
G01X4423Y16114D01*
G01X4409Y16103D01*
G01X4401Y16095D01*
G01X4396Y16088D01*
G01X4392Y16083D01*
G01X4383Y16076D01*
G01X4376Y16072D01*
G01X4340Y16049D01*
G01X4328Y16043D01*
G01X4289Y16024D01*
G01X4271Y16017D01*
G01X4242Y16008D01*
G01X4230Y16005D01*
G01X4200Y16000D01*
G01X4184Y15996D01*
G01X4168Y15993D01*
G01X4150Y15992D01*
G01X4139Y15990D01*
G01X4131Y15988D01*
G01X4114Y15986D01*
G01X4054Y15985D01*
G01X3978Y15987D01*
G01X3956Y15989D01*
G01X3905Y15995D01*
G01X3867Y16001D01*
G01X3853Y16005D01*
G01X3830Y16011D01*
G01X3808Y16016D01*
G01X3794Y16021D01*
G01X3774Y16029D01*
G01X3756Y16035D01*
G01X3744Y16040D01*
G01X3729Y16049D01*
G01X3711Y16059D01*
G01X3702Y16065D01*
G01X3696Y16070D01*
G01X3687Y16077D01*
G01X3669Y16089D01*
G01X3662Y16093D01*
G01X3658Y16099D01*
G01X3650Y16108D01*
G01X3642Y16116D01*
G01X3635Y16121D01*
G01X3631Y16125D01*
G01X3624Y16134D01*
G01X3609Y16156D01*
G01X3595Y16177D01*
G01X3591Y16183D01*
G01X3583Y16199D01*
G01X3571Y16231D01*
G01X3562Y16256D01*
G01X3558Y16269D01*
G01X3553Y16298D01*
G01X3550Y16314D01*
G01X3548Y16320D01*
G01Y16321D01*
G01X3547Y16331D01*
G01X3545Y16552D01*
G01Y16671D01*
G01X3542Y16768D01*
G01X3541Y16781D01*
G01X3540Y16785D01*
G01X3539Y16787D01*
G01Y16788D01*
G01X3538D01*
G01X3537Y16789D01*
G01X3536D01*
G01X3532Y16791D01*
G01X3522Y16792D01*
G01X3509Y16794D01*
G01X3473Y16797D01*
G01X3294Y16800D01*
G01X3071Y16802D01*
G01X3042Y16803D01*
G01X3024Y16806D01*
G01X2540D01*
G01Y14693D01*
G01X3024D01*
G01Y14840D01*
G01Y14932D01*
G01X3026Y14996D01*
G01X3027Y15002D01*
G01X3028Y15006D01*
G01X3029Y15010D01*
G01X3031Y15013D01*
G01X3033Y15016D01*
G01X3036Y15020D01*
G01X3042Y15025D01*
G01X3057Y15034D01*
G01X3074Y15043D01*
G01X3088Y15049D01*
G01X3111Y15055D01*
G01X3125Y15060D01*
G01X3138Y15066D01*
G01X3151Y15070D01*
G01X3170Y15076D01*
G01X3183Y15082D01*
G01X3196Y15088D01*
G01X3219Y15093D01*
G01X3233Y15098D01*
G01X3254Y15107D01*
G01X3272Y15114D01*
G01X3315Y15128D01*
G01X3349Y15141D01*
G01X3380Y15152D01*
G01X3461Y15179D01*
G01X3491Y15190D01*
G01X3499Y15193D01*
G01X3507Y15197D01*
G01X3513Y15201D01*
G01X3547Y15225D01*
G01X3551Y15230D01*
G01X3555Y15235D01*
G01X3571Y15266D01*
G01Y15268D01*
G01X3572Y15271D01*
G01X3574Y15283D01*
G01X3575Y15304D01*
G01X3577Y15407D01*
G01X3576Y15506D01*
G01X3575Y15544D01*
G01X3574Y15549D01*
G01X3571Y15566D01*
G01X3320D01*
G01X3055Y15568D01*
G01X3046Y15569D01*
G01X3024Y15572D01*
G01Y15722D01*
G01X3025Y15851D01*
G01X3026Y15871D01*
G01X3027Y15874D01*
G01X3032D01*
G01X3756Y15877D01*
G01X4470Y15875D01*
G01X4503Y15874D01*
G01X4525Y15871D01*
G01Y15467D01*
G01X4523Y15058D01*
G01X4522Y15034D01*
G01X4521Y15027D01*
G01X4518Y15008D01*
G01X4516Y14997D01*
G01X4511Y14981D01*
G01X4500Y14951D01*
G01X4497Y14943D01*
G01X4491Y14932D01*
G01X4484Y14919D01*
G01X4475Y14906D01*
G01X4465Y14894D01*
G01X4460Y14886D01*
G01X4457Y14877D01*
G01X4454Y14873D01*
G01X4450Y14869D01*
G01X4446Y14866D01*
G01X4437Y14858D01*
G01X4427Y14845D01*
G01X4419Y14837D01*
G01X4409Y14830D01*
G01X4380Y14809D01*
G01X4373Y14804D01*
G01X4365Y14799D01*
G01X4342Y14789D01*
G01X4329Y14781D01*
G01X4323Y14778D01*
G01X4313Y14775D01*
G01X4291Y14769D01*
G01X4274Y14762D01*
G01X4262Y14758D01*
G01X4251Y14756D01*
G01X4228Y14752D01*
G01X4210Y14749D01*
G01X4202Y14747D01*
G01X4187Y14746D01*
G01X4096Y14745D01*
G01X4042D01*
G01X3986Y14747D01*
G01X3975Y14748D01*
G01X3910Y14756D01*
G01X3891Y14759D01*
G01X3873Y14763D01*
G01X3853Y14770D01*
G01X3835Y14776D01*
G01X3821Y14783D01*
G01X3805Y14792D01*
G01X3795Y14797D01*
G01X3786Y14801D01*
G01X3782Y14804D01*
G01X3778Y14807D01*
G01X3774Y14811D01*
G01X3771Y14816D01*
G01X3767Y14820D01*
G01X3761Y14824D01*
G01X3750Y14831D01*
G01X3744Y14835D01*
G01X3740Y14839D01*
G01X3736Y14843D01*
G01X3729Y14852D01*
G01X3716Y14863D01*
G01X3708Y14871D01*
G01X3684Y14904D01*
G01X3678Y14913D01*
G01X3669Y14929D01*
G01X3666Y14933D01*
G01X3661Y14936D01*
G01X3657Y14939D01*
G01X3652Y14940D01*
G01X3647Y14939D01*
G01X3642Y14938D01*
G01X3638Y14936D01*
G01X3618Y14923D01*
G01X3590Y14902D01*
G01X3580Y14896D01*
G01X3559Y14884D01*
G01X3546Y14877D01*
G01X3533Y14870D01*
G01X3520Y14866D01*
G01X3499Y14857D01*
G01X3482Y14850D01*
G01X3467Y14845D01*
G01X3444Y14839D01*
G01X3424Y14831D01*
G01X3410Y14826D01*
G01X3387Y14820D01*
G01X3367Y14812D01*
G01X3353Y14807D01*
G01X3330Y14801D01*
G01X3310Y14792D01*
G01X3295Y14788D01*
G01X3273Y14782D01*
G01X3253Y14773D01*
G01X3238Y14769D01*
G01X3214Y14763D01*
G01X3195Y14757D01*
G01X3081Y14719D01*
G01X3072Y14716D01*
G01X3065Y14713D01*
G01X3060Y14710D01*
G01X3052Y14704D01*
G01X3047Y14701D01*
G01X3042Y14698D01*
G01X3024Y14693D01*
G01X2540D01*
G01Y13933D01*
G01X2979D01*
G01Y14071D01*
G01X2981Y14158D01*
G01X2982Y14163D01*
G01X2983Y14164D01*
G01Y14165D01*
G01X2984Y14167D01*
G01X2985Y14176D01*
G01X2986Y14204D01*
G01X2989Y14226D01*
G01X2990Y14236D01*
G01X2994Y14252D01*
G01X2998Y14270D01*
G01X3003Y14296D01*
G01X3005Y14304D01*
G01X3008Y14311D01*
G01X3014Y14325D01*
G01X3030Y14361D01*
G01X3052Y14398D01*
G01X3061Y14411D01*
G01X3065Y14416D01*
G01X3070Y14422D01*
G01X3074Y14428D01*
G01X3084Y14445D01*
G01X3088Y14450D01*
G01X3092Y14455D01*
G01X3097Y14458D01*
G01X3105Y14465D01*
G01X3116Y14479D01*
G01X3124Y14487D01*
G01X3134Y14494D01*
G01X3162Y14515D01*
G01X3170Y14520D01*
G01X3178Y14525D01*
G01X3200Y14534D01*
G01X3214Y14543D01*
G01X3219Y14545D01*
G01X3229Y14549D01*
G01X3254Y14554D01*
G01X3272Y14560D01*
G01X3312Y14572D01*
G01X3338Y14578D01*
G01X3352Y14581D01*
G01X3371Y14586D01*
G01X3400Y14590D01*
G01X3416Y14593D01*
G01X3422Y14595D01*
G01X3432Y14597D01*
G01X3442Y14598D01*
G01X3463D01*
G01X3489Y14599D01*
G01X3498Y14600D01*
G01X3504Y14601D01*
G01X3505D01*
G01X3515Y14602D01*
G01X3759Y14604D01*
G01X4007Y14602D01*
G01X4013Y14601D01*
G01X4019Y14600D01*
G01X4030Y14598D01*
G01X4066Y14597D01*
G01X4096Y14595D01*
G01X4109Y14593D01*
G01X4128Y14590D01*
G01X4147Y14586D01*
G01X4177Y14581D01*
G01X4194Y14577D01*
G01X4210Y14572D01*
G01X4253Y14560D01*
G01X4284Y14553D01*
G01X4303Y14547D01*
G01X4320Y14541D01*
G01X4326Y14538D01*
G01X4334Y14533D01*
G01X4346Y14527D01*
G01X4364Y14519D01*
G01X4375Y14512D01*
G01X4381Y14507D01*
G01X4387Y14503D01*
G01X4404Y14493D01*
G01X4409Y14489D01*
G01X4414Y14485D01*
G01X4417Y14481D01*
G01X4425Y14472D01*
G01X4438Y14461D01*
G01X4446Y14453D01*
G01X4453Y14443D01*
G01X4468Y14423D01*
G01X4483Y14403D01*
G01X4508Y14363D01*
G01X4514Y14350D01*
G01X4519Y14337D01*
G01X4527Y14316D01*
G01X4535Y14299D01*
G01X4537Y14291D01*
G01X4539Y14283D01*
G01X4543Y14265D01*
G01X4546Y14250D01*
G01X4549Y14239D01*
G01X4551Y14226D01*
G01Y14207D01*
G01X4552Y14183D01*
G01X4553Y14175D01*
G01X4554Y14169D01*
G01Y14167D01*
G01X4555Y14156D01*
G01X4557Y13946D01*
G01Y13852D01*
G01X4555Y13729D01*
G01X4554Y13723D01*
G01X4553Y13717D01*
G01X4551Y13704D01*
G01Y13685D01*
G01X4550Y13661D01*
G01X4549Y13653D01*
G01X4548Y13647D01*
G01X4546Y13636D01*
G01X4545Y13622D01*
G01X4543Y13610D01*
G01X4541Y13602D01*
G01X4525Y13554D01*
G01X4519Y13538D01*
G01X4516Y13531D01*
G01X4511Y13523D01*
G01X4505Y13511D01*
G01X4497Y13492D01*
G01X4489Y13478D01*
G01X4484Y13472D01*
G01X4465Y13445D01*
G01X4452Y13431D01*
G01X4443Y13418D01*
G01X4435Y13409D01*
G01X4422Y13399D01*
G01X4415Y13390D01*
G01X4404Y13377D01*
G01X4395Y13370D01*
G01X4366Y13350D01*
G01X4359Y13345D01*
G01X4352Y13342D01*
G01X4344Y13338D01*
G01X4312Y13325D01*
G01X4287Y13316D01*
G01X4276Y13313D01*
G01X4253Y13308D01*
G01X4223Y13300D01*
G01X4192Y13290D01*
G01X4179Y13287D01*
G01X4149Y13283D01*
G01X4133Y13279D01*
G01X4122Y13277D01*
G01X4111Y13275D01*
G01X4077Y13274D01*
G01X4070Y13273D01*
G01X4064Y13272D01*
G01X4063Y13271D01*
G01X4054Y13270D01*
G01X3774Y13268D01*
G01X3507Y13270D01*
G01X3487Y13271D01*
G01X3482Y13272D01*
G01X3473Y13274D01*
G01X3447Y13275D01*
G01X3433Y13277D01*
G01X3414Y13281D01*
G01X3380Y13286D01*
G01X3362Y13289D01*
G01X3345Y13294D01*
G01X3301Y13307D01*
G01X3275Y13311D01*
G01X3261Y13315D01*
G01X3246Y13319D01*
G01X3225Y13327D01*
G01X3208Y13335D01*
G01X3178Y13348D01*
G01X3164Y13356D01*
G01X3135Y13376D01*
G01X3126Y13384D01*
G01X3116Y13397D01*
G01X3108Y13405D01*
G01X3101Y13410D01*
G01X3093Y13417D01*
G01X3087Y13423D01*
G01X3075Y13438D01*
G01X3059Y13460D01*
G01X3047Y13474D01*
G01X3044Y13478D01*
G01X3039Y13487D01*
G01X3030Y13508D01*
G01X3021Y13524D01*
G01X3016Y13536D01*
G01X3010Y13554D01*
G01X3002Y13574D01*
G01X2999Y13581D01*
G01X2997Y13590D01*
G01X2994Y13608D01*
G01X2990Y13623D01*
G01X2987Y13634D01*
G01X2986Y13646D01*
G01X2985Y13684D01*
G01X2983Y13692D01*
G01X2982Y13698D01*
G01Y13699D01*
G01X2981Y13710D01*
G01X2979Y13933D01*
G01X2540D01*
G01Y12466D01*
G01X3024D01*
G01Y12616D01*
G01X3025Y12729D01*
G01X3027Y12758D01*
G01X3029Y12766D01*
G01X3030Y12769D01*
G01X3031D01*
G01X3035D01*
G01X3644Y12772D01*
G01X4252D01*
G01Y12950D01*
G01X4255Y13108D01*
G01X4257Y13135D01*
G01X4258Y13141D01*
G01X4260Y13143D01*
G01X4262Y13144D01*
G01X4264Y13145D01*
G01X4269Y13147D01*
G01X4281Y13149D01*
G01X4294Y13151D01*
G01X4318Y13153D01*
G01X4379Y13154D01*
G01X4469Y13153D01*
G01X4504Y13151D01*
G01X4510D01*
G01X4525Y13147D01*
G01Y12629D01*
G01X4523Y12098D01*
G01X4522Y12094D01*
G01X4519Y12078D01*
G01X4395D01*
G01X4300Y12080D01*
G01X4273Y12082D01*
G01X4266Y12083D01*
G01X4262Y12084D01*
G01X4260Y12086D01*
G01Y12088D01*
G01X4258Y12092D01*
G01X4256Y12108D01*
G01X4254Y12134D01*
G01X4252Y12260D01*
G01X4250Y12427D01*
G01X4249Y12441D01*
G01X4245Y12460D01*
G01X3650D01*
G01X3053Y12462D01*
G01X3039Y12463D01*
G01X3024Y12466D01*
G01X2540D01*
G01Y10920D01*
G01X3024D01*
G01Y11356D01*
G01X3028Y11785D01*
G01X3029Y11801D01*
G01X3030Y11804D01*
G01X3033Y11811D01*
G01X3046Y11833D01*
G01X3055Y11847D01*
G01X3059Y11852D01*
G01X3068Y11863D01*
G01X3078Y11876D01*
G01X3087Y11887D01*
G01X3107Y11907D01*
G01X3138Y11929D01*
G01X3145Y11933D01*
G01X3153Y11937D01*
G01X3161Y11941D01*
G01X3170Y11945D01*
G01X3199Y11954D01*
G01X3205Y11955D01*
G01X3727Y11957D01*
G01X3790D01*
G01X4252Y11954D01*
G01X4255D01*
G01X4268Y11951D01*
G01X4298Y11946D01*
G01X4313Y11943D01*
G01X4333Y11936D01*
G01X4363Y11925D01*
G01X4377Y11919D01*
G01X4414Y11897D01*
G01X4422Y11892D01*
G01X4428Y11887D01*
G01X4433Y11883D01*
G01X4436Y11878D01*
G01X4443Y11869D01*
G01X4457Y11858D01*
G01X4465Y11851D01*
G01X4471Y11841D01*
G01X4483Y11828D01*
G01X4486Y11824D01*
G01X4490Y11815D01*
G01X4498Y11796D01*
G01X4510Y11772D01*
G01X4512Y11765D01*
G01X4514Y11757D01*
G01X4518Y11738D01*
G01X4521Y11724D01*
G01X4522Y11718D01*
G01X4523Y11710D01*
G01X4525Y11327D01*
G01Y11037D01*
G01X4523Y10933D01*
G01X4522Y10930D01*
G01X4519Y10914D01*
G01X4395D01*
G01X4300Y10915D01*
G01X4273Y10917D01*
G01X4266Y10918D01*
G01X4262Y10920D01*
G01X4261D01*
G01Y10921D01*
G01X4260Y10922D01*
G01Y10925D01*
G01X4258Y10937D01*
G01X4256Y10965D01*
G01X4252Y11280D01*
G01X4249Y11603D01*
G01X4247Y11635D01*
G01X4246Y11640D01*
G01X4245Y11642D01*
G01X4244Y11644D01*
G01X4242D01*
G01X4237Y11646D01*
G01X4221Y11648D01*
G01X4194Y11650D01*
G01X4093Y11652D01*
G01X4002Y11651D01*
G01X3948Y11648D01*
G01X3939Y11647D01*
G01X3933Y11645D01*
G01X3932Y11644D01*
G01Y11643D01*
G01X3931Y11641D01*
G01X3930Y11637D01*
G01X3928Y11618D01*
G01X3925Y11579D01*
G01X3921Y11318D01*
G01X3920Y11035D01*
G01X3918Y10983D01*
G01X3915Y10965D01*
G01X3794D01*
G01X3699D01*
G01X3663Y10967D01*
G01X3657Y10968D01*
G01X3641Y10971D01*
G01Y11298D01*
G01X3640Y11500D01*
G01X3637Y11623D01*
G01X3635Y11636D01*
G01Y11639D01*
G01X3634D01*
G01Y11640D01*
G01X3633Y11641D01*
G01X3632D01*
G01X3630Y11642D01*
G01X3626Y11644D01*
G01X3616Y11646D01*
G01X3603Y11647D01*
G01X3571Y11650D01*
G01X3472Y11652D01*
G01X3376Y11651D01*
G01X3319Y11648D01*
G01X3309Y11647D01*
G01X3304Y11645D01*
G01X3303D01*
G01Y11644D01*
G01X3301Y11642D01*
G01X3300Y11638D01*
G01X3298Y11619D01*
G01X3295Y11582D01*
G01X3291Y11292D01*
G01X3290Y11007D01*
G01X3288Y10933D01*
G01Y10930D01*
G01X3285Y10914D01*
G01X3170D01*
G01X3080D01*
G01X3045Y10916D01*
G01X3039Y10917D01*
G01X3024Y10920D01*
G01X2540D01*
G01Y9724D01*
G01X3024D01*
G01Y10045D01*
G01X3026Y10364D01*
G01X3027Y10370D01*
G01X3028Y10371D01*
G01Y10372D01*
G01X3031Y10381D01*
G01X3036Y10410D01*
G01X3038Y10419D01*
G01X3045Y10436D01*
G01X3051Y10451D01*
G01X3054Y10466D01*
G01X3056Y10473D01*
G01X3059Y10479D01*
G01X3063Y10487D01*
G01X3070Y10498D01*
G01X3078Y10518D01*
G01X3084Y10529D01*
G01X3091Y10542D01*
G01X3099Y10555D01*
G01X3103Y10560D01*
G01X3108Y10565D01*
G01X3116Y10576D01*
G01X3127Y10593D01*
G01X3132Y10599D01*
G01X3136Y10605D01*
G01X3141Y10608D01*
G01X3150Y10615D01*
G01X3161Y10629D01*
G01X3168Y10637D01*
G01X3178Y10643D01*
G01X3191Y10654D01*
G01X3201Y10662D01*
G01X3226Y10678D01*
G01X3247Y10692D01*
G01X3261Y10701D01*
G01X3283Y10710D01*
G01X3299Y10719D01*
G01X3310Y10724D01*
G01X3329Y10730D01*
G01X3348Y10739D01*
G01X3362Y10743D01*
G01X3385Y10748D01*
G01X3396Y10751D01*
G01X3397D01*
G01X3405Y10752D01*
G01X3759Y10754D01*
G01X4082Y10753D01*
G01X4119Y10752D01*
G01X4121Y10751D01*
G01X4122D01*
G01X4136Y10748D01*
G01X4167Y10744D01*
G01X4186Y10741D01*
G01X4197Y10739D01*
G01X4207Y10736D01*
G01X4241Y10724D01*
G01X4265Y10718D01*
G01X4272Y10715D01*
G01X4279Y10711D01*
G01X4287Y10707D01*
G01X4302Y10697D01*
G01X4315Y10688D01*
G01X4342Y10669D01*
G01X4357Y10656D01*
G01X4369Y10646D01*
G01X4378Y10639D01*
G01X4389Y10626D01*
G01X4397Y10618D01*
G01X4404Y10613D01*
G01X4411Y10606D01*
G01X4418Y10599D01*
G01X4430Y10585D01*
G01X4443Y10567D01*
G01X4463Y10538D01*
G01X4471Y10524D01*
G01X4481Y10501D01*
G01X4489Y10488D01*
G01X4492Y10483D01*
G01X4495Y10472D01*
G01X4497Y10465D01*
G01X4501Y10450D01*
G01X4508Y10433D01*
G01X4512Y10421D01*
G01X4514Y10412D01*
G01X4518Y10391D01*
G01X4521Y10375D01*
G01X4522Y10369D01*
G01X4523Y10360D01*
G01X4525Y10058D01*
G01X4524Y9792D01*
G01X4523Y9742D01*
G01X4519Y9724D01*
G01X4395D01*
G01X4300Y9725D01*
G01X4273Y9727D01*
G01X4266Y9729D01*
G01X4262Y9730D01*
G01X4261D01*
G01Y9731D01*
G01X4260Y9732D01*
G01X4259Y9736D01*
G01X4258Y9749D01*
G01X4256Y9777D01*
G01X4252Y10010D01*
G01X4250Y10265D01*
G01X4249Y10297D01*
G01X4248Y10300D01*
G01X4245Y10314D01*
G01X4239Y10328D01*
G01X4227Y10354D01*
G01X4223Y10360D01*
G01X4219Y10365D01*
G01X4215Y10369D01*
G01X4206Y10376D01*
G01X4198Y10384D01*
G01X4191Y10393D01*
G01X4186Y10397D01*
G01X4181Y10401D01*
G01X4164Y10411D01*
G01X4151Y10419D01*
G01X4138Y10425D01*
G01X4124Y10430D01*
G01X4096Y10439D01*
G01X4085Y10442D01*
G01X4068Y10443D01*
G01X4056Y10444D01*
G01X4050Y10446D01*
G01X4041Y10447D01*
G01X3746Y10449D01*
G01X3587D01*
G01X3446Y10445D01*
G01X3432Y10443D01*
G01X3427D01*
G01X3407Y10436D01*
G01X3389Y10430D01*
G01X3382Y10427D01*
G01X3368Y10419D01*
G01X3334Y10395D01*
G01X3330Y10390D01*
G01X3326Y10385D01*
G01X3316Y10367D01*
G01X3309Y10355D01*
G01X3306Y10349D01*
G01X3302Y10339D01*
G01X3297Y10317D01*
G01X3294Y10305D01*
G01X3293Y10296D01*
G01X3291Y10026D01*
G01X3289Y9774D01*
G01X3288Y9742D01*
G01X3285Y9724D01*
G01X3024D01*
G01X2540D01*
G01Y8909D01*
G01X3024D01*
G01Y9059D01*
G01X3025Y9188D01*
G01X3026Y9209D01*
G01X3027Y9212D01*
G01X3028D01*
G01X3033D01*
G01X3625Y9215D01*
G01X4223Y9217D01*
G01X4236Y9218D01*
G01X4252Y9221D01*
G01Y9393D01*
G01X4253Y9563D01*
G01X4255Y9578D01*
G01X4258Y9596D01*
G01X4376D01*
G01X4468D01*
G01X4504Y9594D01*
G01X4510Y9593D01*
G01X4525Y9590D01*
G01Y9068D01*
G01X4521Y8556D01*
G01X4520Y8537D01*
G01X4519Y8534D01*
G01Y8533D01*
G01X4518Y8532D01*
G01X4516Y8531D01*
G01X4514Y8530D01*
G01X4509Y8528D01*
G01X4497Y8526D01*
G01X4485Y8524D01*
G01X4460Y8522D01*
G01X4395Y8521D01*
G01X4304Y8523D01*
G01X4277Y8524D01*
G01X4269Y8526D01*
G01X4265Y8527D01*
G01X4264D01*
G01X4263Y8528D01*
G01X4262Y8531D01*
G01X4260Y8535D01*
G01X4258Y8546D01*
G01X4257Y8560D01*
G01X4254Y8593D01*
G01X4252Y8706D01*
G01X4250Y8875D01*
G01X4249Y8891D01*
G01X4245Y8909D01*
G01X3024D01*
G01X2540D01*
G01Y7741D01*
G01X2979D01*
G01Y7880D01*
G01X2981Y7966D01*
G01X2982Y7971D01*
G01X2983Y7972D01*
G01Y7973D01*
G01X2984Y7976D01*
G01X2985Y7986D01*
G01X2986Y7996D01*
G01Y8015D01*
G01X2987Y8022D01*
G01X2989Y8028D01*
G01X2991Y8038D01*
G01X2992Y8053D01*
G01X2994Y8065D01*
G01X2995Y8073D01*
G01X3011Y8120D01*
G01X3018Y8137D01*
G01X3021Y8143D01*
G01X3025Y8151D01*
G01X3032Y8163D01*
G01X3040Y8182D01*
G01X3043Y8189D01*
G01X3047Y8196D01*
G01X3057Y8209D01*
G01X3063Y8220D01*
G01X3067Y8230D01*
G01X3070Y8234D01*
G01X3073Y8238D01*
G01X3080Y8243D01*
G01X3088Y8249D01*
G01X3094Y8256D01*
G01X3111Y8277D01*
G01X3119Y8285D01*
G01X3125Y8291D01*
G01X3141Y8305D01*
G01X3157Y8315D01*
G01X3163Y8320D01*
G01X3182Y8330D01*
G01X3197Y8339D01*
G01X3209Y8344D01*
G01X3227Y8350D01*
G01X3247Y8359D01*
G01X3261Y8363D01*
G01X3277Y8367D01*
G01X3307Y8374D01*
G01X3339Y8384D01*
G01X3351Y8387D01*
G01X3381Y8392D01*
G01X3396Y8395D01*
G01X3405Y8398D01*
G01X3413Y8399D01*
G01X3435Y8400D01*
G01X3448Y8402D01*
G01X3456Y8404D01*
G01X3470Y8405D01*
G01X3562Y8406D01*
G01X3650Y8407D01*
G01X3666Y8409D01*
G01X3670Y8410D01*
G01X3673D01*
G01X3689Y8411D01*
G01X3759Y8412D01*
G01X3831Y8411D01*
G01X3844Y8410D01*
G01X3848Y8409D01*
G01X3850D01*
G01X3866Y8407D01*
G01X3946Y8406D01*
G01X4046Y8404D01*
G01X4064Y8403D01*
G01X4115Y8397D01*
G01X4125Y8395D01*
G01X4141Y8392D01*
G01X4160Y8387D01*
G01X4190Y8383D01*
G01X4206Y8379D01*
G01X4223Y8374D01*
G01X4266Y8362D01*
G01X4288Y8357D01*
G01X4303Y8352D01*
G01X4315Y8346D01*
G01X4352Y8330D01*
G01X4358Y8327D01*
G01X4373Y8317D01*
G01X4392Y8307D01*
G01X4397Y8304D01*
G01X4401Y8300D01*
G01X4408Y8291D01*
G01X4416Y8282D01*
G01X4429Y8272D01*
G01X4440Y8259D01*
G01X4448Y8250D01*
G01X4455Y8245D01*
G01X4459Y8241D01*
G01X4467Y8232D01*
G01X4480Y8211D01*
G01X4489Y8201D01*
G01X4492Y8197D01*
G01X4497Y8188D01*
G01X4506Y8166D01*
G01X4516Y8150D01*
G01X4521Y8139D01*
G01X4526Y8120D01*
G01X4535Y8101D01*
G01X4537Y8093D01*
G01X4539Y8085D01*
G01X4543Y8067D01*
G01X4546Y8052D01*
G01X4549Y8041D01*
G01X4551Y8027D01*
G01Y8009D01*
G01X4552Y7985D01*
G01X4553Y7977D01*
G01X4554Y7971D01*
G01Y7969D01*
G01X4555Y7958D01*
G01X4557Y7751D01*
G01Y7659D01*
G01X4555Y7537D01*
G01X4554Y7532D01*
G01X4553Y7526D01*
G01X4551Y7512D01*
G01Y7493D01*
G01X4550Y7469D01*
G01X4549Y7461D01*
G01X4547Y7454D01*
G01X4545Y7441D01*
G01X4539Y7404D01*
G01X4537Y7392D01*
G01X4533Y7379D01*
G01X4525Y7361D01*
G01X4516Y7335D01*
G01X4512Y7325D01*
G01X4508Y7317D01*
G01X4503Y7309D01*
G01X4484Y7277D01*
G01X4475Y7263D01*
G01X4471Y7258D01*
G01X4465Y7251D01*
G01X4456Y7238D01*
G01X4446Y7226D01*
G01X4436Y7216D01*
G01X4427Y7202D01*
G01X4419Y7194D01*
G01X4409Y7188D01*
G01X4396Y7177D01*
G01X4387Y7169D01*
G01X4376Y7162D01*
G01X4345Y7143D01*
G01X4334Y7138D01*
G01X4315Y7133D01*
G01X4296Y7124D01*
G01X4282Y7120D01*
G01X4266Y7116D01*
G01X4236Y7108D01*
G01X4192Y7095D01*
G01X4167Y7091D01*
G01X4152Y7088D01*
G01X4147Y7086D01*
G01X4137Y7084D01*
G01X4118Y7083D01*
G01X4107Y7081D01*
G01X4098Y7078D01*
G01X4081Y7077D01*
G01X4018Y7075D01*
G01X4004Y7074D01*
G01X4001Y7073D01*
G01X3999D01*
G01X3988Y7072D01*
G01X3777Y7070D01*
G01X3684D01*
G01X3561Y7072D01*
G01X3555Y7073D01*
G01X3554D01*
G01X3545Y7075D01*
G01X3534Y7076D01*
G01X3514D01*
G01X3479Y7077D01*
G01X3453Y7079D01*
G01X3427Y7083D01*
G01X3409Y7086D01*
G01X3377Y7092D01*
G01X3362Y7095D01*
G01X3340Y7102D01*
G01X3303Y7109D01*
G01X3281Y7115D01*
G01X3240Y7127D01*
G01X3235Y7129D01*
G01X3205Y7140D01*
G01X3197Y7143D01*
G01X3185Y7149D01*
G01X3173Y7156D01*
G01X3157Y7166D01*
G01X3141Y7178D01*
G01X3134Y7184D01*
G01X3114Y7199D01*
G01X3105Y7206D01*
G01X3100Y7212D01*
G01X3094Y7220D01*
G01X3068Y7251D01*
G01X3057Y7266D01*
G01X3053Y7274D01*
G01X3045Y7286D01*
G01X3040Y7296D01*
G01X3029Y7312D01*
G01X3025Y7320D01*
G01X3021Y7328D01*
G01X3018Y7337D01*
G01X3009Y7359D01*
G01X3002Y7376D01*
G01X2999Y7383D01*
G01X2997Y7392D01*
G01X2994Y7410D01*
G01X2990Y7424D01*
G01X2987Y7436D01*
G01X2986Y7449D01*
G01Y7468D01*
G01X2985Y7491D01*
G01X2983Y7500D01*
G01X2982Y7506D01*
G01Y7507D01*
G01X2981Y7518D01*
G01X2979Y7741D01*
G01X2540D01*
G01Y5880D01*
G01X3024D01*
G01X3025Y5975D01*
G01X3027Y6030D01*
G01X3029Y6040D01*
G01X3030Y6046D01*
G01X3032Y6049D01*
G01X3036Y6054D01*
G01X3042Y6060D01*
G01X3049Y6066D01*
G01X3060Y6072D01*
G01X3069Y6077D01*
G01X3087Y6084D01*
G01X3108Y6091D01*
G01X3133Y6102D01*
G01X3156Y6108D01*
G01X3170Y6112D01*
G01X3183Y6118D01*
G01X3195Y6123D01*
G01X3215Y6129D01*
G01X3227Y6135D01*
G01X3241Y6140D01*
G01X3264Y6146D01*
G01X3278Y6151D01*
G01X3299Y6160D01*
G01X3316Y6167D01*
G01X3393Y6192D01*
G01X3414Y6200D01*
G01X3438Y6210D01*
G01X3461Y6216D01*
G01X3475Y6220D01*
G01X3488Y6227D01*
G01X3501Y6232D01*
G01X3513Y6235D01*
G01X3518Y6238D01*
G01X3523Y6241D01*
G01X3527Y6246D01*
G01X3534Y6254D01*
G01X3547Y6265D01*
G01X3555Y6273D01*
G01X3565Y6288D01*
G01X3571Y6301D01*
G01X3572Y6305D01*
G01X3574Y6316D01*
G01X3575Y6338D01*
G01X3577Y6443D01*
G01X3576Y6545D01*
G01X3575Y6584D01*
G01X3574Y6590D01*
G01X3571Y6606D01*
G01X3313D01*
G01X3073Y6607D01*
G01X3042Y6608D01*
G01X3024Y6612D01*
G01Y6758D01*
G01X3025Y6885D01*
G01X3026Y6905D01*
G01X3027Y6908D01*
G01X3032D01*
G01X3762Y6911D01*
G01X4494Y6908D01*
G01X4510D01*
G01X4525Y6905D01*
G01Y6494D01*
G01X4524Y6138D01*
G01X4523Y6077D01*
G01X4522Y6074D01*
G01X4519Y6061D01*
G01X4513Y6027D01*
G01X4511Y6018D01*
G01X4503Y6000D01*
G01X4490Y5971D01*
G01X4485Y5959D01*
G01X4478Y5947D01*
G01X4469Y5933D01*
G01X4465Y5928D01*
G01X4456Y5917D01*
G01X4446Y5904D01*
G01X4438Y5896D01*
G01X4425Y5886D01*
G01X4414Y5872D01*
G01X4406Y5864D01*
G01X4397Y5858D01*
G01X4384Y5847D01*
G01X4379Y5844D01*
G01X4370Y5838D01*
G01X4349Y5829D01*
G01X4333Y5820D01*
G01X4322Y5815D01*
G01X4303Y5809D01*
G01X4287Y5802D01*
G01X4275Y5798D01*
G01X4266Y5796D01*
G01X4245Y5793D01*
G01X4229Y5789D01*
G01X4220Y5787D01*
G01X4212Y5785D01*
G01X4190D01*
G01X4177Y5783D01*
G01X4169Y5781D01*
G01X4152Y5779D01*
G01X4093Y5778D01*
G01X4029Y5780D01*
G01X4017Y5781D01*
G01X4011Y5782D01*
G01X4002Y5784D01*
G01X3974Y5785D01*
G01X3943Y5788D01*
G01X3930Y5789D01*
G01X3911Y5793D01*
G01X3893Y5797D01*
G01X3867Y5802D01*
G01X3859Y5804D01*
G01X3851Y5807D01*
G01X3838Y5813D01*
G01X3808Y5826D01*
G01X3797Y5832D01*
G01X3792Y5837D01*
G01X3786Y5842D01*
G01X3768Y5852D01*
G01X3763Y5855D01*
G01X3759Y5859D01*
G01X3752Y5868D01*
G01X3744Y5877D01*
G01X3735Y5883D01*
G01X3724Y5893D01*
G01X3708Y5909D01*
G01X3698Y5921D01*
G01X3689Y5934D01*
G01X3682Y5941D01*
G01X3680Y5945D01*
G01X3678Y5950D01*
G01X3674Y5962D01*
G01X3670Y5966D01*
G01X3666Y5970D01*
G01X3660Y5972D01*
G01X3657Y5973D01*
G01X3650Y5974D01*
G01X3644Y5973D01*
G01X3638Y5971D01*
G01X3629Y5966D01*
G01X3619Y5959D01*
G01X3614Y5955D01*
G01X3607Y5950D01*
G01X3591Y5941D01*
G01X3581Y5934D01*
G01X3575Y5929D01*
G01X3571Y5926D01*
G01X3563Y5921D01*
G01X3543Y5914D01*
G01X3514Y5900D01*
G01X3495Y5894D01*
G01X3483Y5889D01*
G01X3476Y5885D01*
G01X3471Y5882D01*
G01X3460Y5879D01*
G01X3445Y5875D01*
G01X3431Y5870D01*
G01X3411Y5862D01*
G01X3388Y5856D01*
G01X3374Y5851D01*
G01X3360Y5845D01*
G01X3353Y5843D01*
G01X3345Y5840D01*
G01X3326Y5837D01*
G01X3318Y5835D01*
G01X3311Y5832D01*
G01X3297Y5826D01*
G01X3283Y5821D01*
G01X3260Y5816D01*
G01X3240Y5807D01*
G01X3225Y5802D01*
G01X3202Y5796D01*
G01X3183Y5788D01*
G01X3168Y5783D01*
G01X3146Y5777D01*
G01X3125Y5769D01*
G01X3111Y5764D01*
G01X3095Y5761D01*
G01X3083Y5757D01*
G01X3071Y5753D01*
G01X3064Y5750D01*
G01X3053Y5743D01*
G01X3045Y5737D01*
G01X3042Y5734D01*
G01X3038Y5732D01*
G01X3033Y5730D01*
G01X3032Y5731D01*
G01X3031D01*
G01X3030Y5733D01*
G01X3029Y5737D01*
G01X3027Y5752D01*
G01X3026Y5776D01*
G01X3024Y5880D01*
G01X2540D01*
G01Y5065D01*
G01X5009D01*
G01Y17780D01*
G37*
G36*
G01X4036Y16800D02*
G01X3877Y16798D01*
G01X3837Y16794D01*
G01X3826Y16792D01*
G01X3822Y16790D01*
G01X3819Y16782D01*
G01X3816Y16778D01*
G01Y16776D01*
G01X3815Y16765D01*
G01X3813Y16590D01*
G01Y16508D01*
G01X3815Y16391D01*
G01X3816Y16383D01*
G01X3818Y16372D01*
G01X3820Y16363D01*
G01X3823Y16354D01*
G01X3827Y16341D01*
G01X3831Y16334D01*
G01X3837Y16327D01*
G01X3844Y16320D01*
G01X3855Y16310D01*
G01X3862Y16306D01*
G01X3868Y16303D01*
G01X3873Y16301D01*
G01X3883Y16297D01*
G01X3895Y16290D01*
G01X3901Y16286D01*
G01X3914Y16283D01*
G01X3934Y16280D01*
G01X3950Y16277D01*
G01X3961Y16274D01*
G01X3975Y16273D01*
G01X4013Y16272D01*
G01X4066Y16273D01*
G01X4089Y16275D01*
G01X4103Y16277D01*
G01X4122Y16280D01*
G01X4140Y16284D01*
G01X4165Y16290D01*
G01X4173Y16292D01*
G01X4180Y16294D01*
G01X4187Y16299D01*
G01X4200Y16305D01*
G01X4214Y16312D01*
G01X4222Y16316D01*
G01X4229Y16322D01*
G01X4236Y16329D01*
G01X4239Y16333D01*
G01X4240Y16334D01*
G01X4241Y16336D01*
G01X4242Y16340D01*
G01X4244Y16352D01*
G01X4246Y16366D01*
G01X4249Y16404D01*
G01X4252Y16558D01*
G01X4250Y16764D01*
G01X4249Y16781D01*
G01X4245Y16800D01*
G37*
G36*
G01X4074Y15566D02*
G01X3964Y15565D01*
G01X3891Y15563D01*
G01X3886Y15562D01*
G01X3878Y15559D01*
G01X3873Y15556D01*
G01Y15555D01*
G01X3872Y15554D01*
G01Y15543D01*
G01X3870Y15365D01*
G01Y15282D01*
G01X3872Y15163D01*
G01X3873Y15155D01*
G01X3877Y15139D01*
G01X3880Y15131D01*
G01X3884Y15123D01*
G01X3903Y15095D01*
G01X3908Y15091D01*
G01X3917Y15084D01*
G01X3924Y15078D01*
G01X3935Y15072D01*
G01X3953Y15063D01*
G01X3959Y15060D01*
G01X3974Y15055D01*
G01X3996Y15050D01*
G01X4010Y15046D01*
G01X4026Y15044D01*
G01X4074Y15043D01*
G01X4112Y15044D01*
G01X4132Y15046D01*
G01X4147Y15048D01*
G01X4164Y15053D01*
G01X4172Y15057D01*
G01X4179Y15060D01*
G01X4210Y15078D01*
G01X4218Y15084D01*
G01X4226Y15090D01*
G01X4233Y15097D01*
G01X4239Y15104D01*
G01X4240Y15105D01*
G01X4241Y15107D01*
G01X4242Y15111D01*
G01X4244Y15122D01*
G01X4246Y15137D01*
G01X4249Y15175D01*
G01X4252Y15343D01*
G01Y15566D01*
G37*
G36*
G01X3777Y14299D02*
G01X3519Y14297D01*
G01X3500Y14296D01*
G01X3498D01*
G01X3493Y14295D01*
G01X3482Y14293D01*
G01X3460Y14292D01*
G01X3441Y14290D01*
G01X3430Y14288D01*
G01X3413Y14284D01*
G01X3396Y14280D01*
G01X3386Y14277D01*
G01X3377Y14274D01*
G01X3367Y14269D01*
G01X3354Y14262D01*
G01X3343Y14257D01*
G01X3338Y14253D01*
G01X3332Y14249D01*
G01X3323Y14239D01*
G01X3312Y14223D01*
G01X3304Y14210D01*
G01X3289Y14181D01*
G01X3285Y14170D01*
G01X3283Y14160D01*
G01X3280Y14139D01*
G01X3277Y14123D01*
G01X3274Y14115D01*
G01X3273Y14098D01*
G01X3271Y14018D01*
G01X3270Y14008D01*
G01X3268Y14003D01*
G01Y14001D01*
G01X3267Y13999D01*
G01X3266Y13986D01*
G01X3265Y13943D01*
G01Y13929D01*
G01X3267Y13890D01*
G01X3268Y13879D01*
G01Y13876D01*
G01X3269Y13871D01*
G01X3271Y13855D01*
G01X3273Y13792D01*
G01X3274Y13777D01*
G01X3277Y13769D01*
G01X3278Y13758D01*
G01X3279Y13741D01*
G01X3281Y13732D01*
G01X3285Y13717D01*
G01X3291Y13696D01*
G01X3297Y13678D01*
G01X3304Y13664D01*
G01X3310Y13653D01*
G01X3323Y13634D01*
G01X3330Y13626D01*
G01X3339Y13618D01*
G01X3358Y13605D01*
G01X3368Y13600D01*
G01X3386Y13594D01*
G01X3399Y13590D01*
G01X3412Y13583D01*
G01X3418Y13581D01*
G01X3424Y13580D01*
G01X3437D01*
G01X3448Y13578D01*
G01X3454Y13577D01*
G01X3463Y13576D01*
G01X3759Y13574D01*
G01X4042Y13575D01*
G01X4062Y13576D01*
G01X4064Y13577D01*
G01X4075Y13579D01*
G01X4092Y13580D01*
G01X4104Y13582D01*
G01X4120Y13586D01*
G01X4142Y13592D01*
G01X4148Y13594D01*
G01X4154Y13596D01*
G01X4162Y13601D01*
G01X4174Y13607D01*
G01X4189Y13613D01*
G01X4197Y13618D01*
G01X4204Y13624D01*
G01X4210Y13630D01*
G01X4225Y13649D01*
G01X4233Y13663D01*
G01X4247Y13692D01*
G01X4251Y13703D01*
G01X4253Y13712D01*
G01X4257Y13734D01*
G01X4260Y13750D01*
G01X4263Y13760D01*
G01X4264Y13777D01*
G01X4265Y13845D01*
G01X4267Y13860D01*
G01X4269Y13866D01*
G01X4270Y13883D01*
G01X4271Y13924D01*
G01X4270Y13964D01*
G01X4269Y13977D01*
G01X4268Y13984D01*
G01X4267Y13989D01*
G01X4265Y14004D01*
G01Y14032D01*
G01Y14041D01*
G01X4263Y14073D01*
G01X4262Y14092D01*
G01X4255Y14137D01*
G01X4253Y14148D01*
G01X4250Y14164D01*
G01X4245Y14178D01*
G01X4239Y14195D01*
G01X4233Y14207D01*
G01X4220Y14226D01*
G01X4216Y14231D01*
G01X4210Y14239D01*
G01X4201Y14248D01*
G01X4188Y14260D01*
G01X4182Y14264D01*
G01X4175Y14267D01*
G01X4161Y14274D01*
G01X4144Y14280D01*
G01X4112Y14291D01*
G01X4103Y14292D01*
G01X4077Y14293D01*
G01X4063Y14295D01*
G01X4056Y14296D01*
G01X4048Y14297D01*
G37*
G36*
G01X3781Y8101D02*
G01X3512Y8100D01*
G01X3463Y8098D01*
G01X3459D01*
G01X3421Y8091D01*
G01X3406Y8088D01*
G01X3398Y8086D01*
G01X3380Y8079D01*
G01X3358Y8069D01*
G01X3350Y8066D01*
G01X3344Y8062D01*
G01X3339Y8058D01*
G01X3336Y8053D01*
G01X3328Y8045D01*
G01X3320Y8037D01*
G01X3315Y8034D01*
G01X3311Y8028D01*
G01X3307Y8022D01*
G01X3299Y8004D01*
G01X3289Y7983D01*
G01X3285Y7971D01*
G01X3283Y7962D01*
G01X3280Y7941D01*
G01X3277Y7925D01*
G01X3274Y7917D01*
G01X3273Y7900D01*
G01X3271Y7820D01*
G01X3270Y7809D01*
G01X3268Y7805D01*
G01Y7804D01*
G01Y7803D01*
G01X3267Y7801D01*
G01X3266Y7788D01*
G01X3265Y7744D01*
G01Y7731D01*
G01X3267Y7692D01*
G01X3268Y7681D01*
G01Y7678D01*
G01X3269Y7673D01*
G01X3271Y7657D01*
G01X3273Y7594D01*
G01X3274Y7579D01*
G01X3277Y7571D01*
G01X3278Y7560D01*
G01X3279Y7543D01*
G01X3281Y7534D01*
G01X3285Y7518D01*
G01X3289Y7503D01*
G01X3294Y7490D01*
G01X3303Y7472D01*
G01X3309Y7457D01*
G01X3312Y7453D01*
G01X3315Y7449D01*
G01X3324Y7442D01*
G01X3332Y7434D01*
G01X3339Y7425D01*
G01X3344Y7421D01*
G01X3349Y7417D01*
G01X3367Y7407D01*
G01X3379Y7400D01*
G01X3385Y7396D01*
G01X3395Y7393D01*
G01X3417Y7388D01*
G01X3428Y7385D01*
G01X3437Y7384D01*
G01X3756Y7382D01*
G01X4035Y7383D01*
G01X4086Y7385D01*
G01X4089D01*
G01X4121Y7391D01*
G01X4130Y7393D01*
G01X4141Y7396D01*
G01X4153Y7401D01*
G01X4168Y7407D01*
G01X4179Y7414D01*
G01X4200Y7428D01*
G01X4208Y7435D01*
G01X4214Y7441D01*
G01X4220Y7449D01*
G01X4226Y7456D01*
G01X4230Y7463D01*
G01X4234Y7469D01*
G01X4240Y7484D01*
G01X4247Y7500D01*
G01X4251Y7511D01*
G01X4253Y7521D01*
G01X4257Y7542D01*
G01X4260Y7558D01*
G01X4263Y7568D01*
G01X4264Y7585D01*
G01X4265Y7653D01*
G01X4267Y7668D01*
G01X4269Y7674D01*
G01X4270Y7691D01*
G01X4271Y7732D01*
G01X4270Y7772D01*
G01X4269Y7785D01*
G01X4268Y7792D01*
G01X4267Y7797D01*
G01X4265Y7814D01*
G01X4264Y7882D01*
G01X4262Y7897D01*
G01X4261Y7902D01*
G01X4258Y7915D01*
G01X4253Y7952D01*
G01X4251Y7963D01*
G01X4248Y7973D01*
G01X4242Y7987D01*
G01X4230Y8016D01*
G01X4223Y8027D01*
G01X4217Y8035D01*
G01X4206Y8049D01*
G01X4201Y8054D01*
G01X4193Y8061D01*
G01X4185Y8066D01*
G01X4174Y8073D01*
G01X4156Y8082D01*
G01X4150Y8085D01*
G01X4142Y8087D01*
G01X4134Y8089D01*
G01X4116Y8093D01*
G01X4101Y8096D01*
G01X4095Y8098D01*
G01X4086Y8099D01*
G37*
G36*
G01X4071Y6606D02*
G01X3937Y6605D01*
G01X3891Y6603D01*
G01X3886Y6602D01*
G01X3878Y6599D01*
G01X3873Y6596D01*
G01Y6595D01*
G01X3872Y6594D01*
G01Y6584D01*
G01X3870Y6395D01*
G01Y6274D01*
G01X3872Y6194D01*
G01X3873Y6188D01*
G01X3880Y6167D01*
G01X3882Y6161D01*
G01X3884Y6155D01*
G01X3888Y6151D01*
G01X3897Y6144D01*
G01X3905Y6136D01*
G01X3910Y6129D01*
G01X3914Y6124D01*
G01X3923Y6117D01*
G01X3930Y6112D01*
G01X3939Y6108D01*
G01X3950Y6102D01*
G01X3962Y6097D01*
G01X3988Y6087D01*
G01X3998Y6084D01*
G01X4016Y6083D01*
G01X4027Y6082D01*
G01X4038Y6079D01*
G01X4052Y6078D01*
G01X4071Y6077D01*
G01X4090Y6078D01*
G01X4106Y6079D01*
G01X4115Y6080D01*
G01X4147Y6087D01*
G01X4155Y6088D01*
G01X4167Y6092D01*
G01X4179Y6097D01*
G01X4186Y6100D01*
G01X4197Y6106D01*
G01X4204Y6112D01*
G01X4208Y6115D01*
G01X4212Y6117D01*
G01X4221Y6120D01*
G01X4226Y6123D01*
G01X4229Y6127D01*
G01X4233Y6132D01*
G01X4245Y6150D01*
G01X4246Y6151D01*
G01Y6154D01*
G01X4248Y6163D01*
G01X4249Y6183D01*
G01X4252Y6367D01*
G01X4250Y6569D01*
G01X4249Y6587D01*
G01X4245Y6606D01*
G37*
G04 //text: max*
G36*
G01X11420Y6749D02*
G01X11003Y6747D01*
G01X10998D01*
G01Y6746D01*
G01X10997D01*
G01Y6744D01*
G01X10996Y6729D01*
G01X10995Y6637D01*
G01Y6531D01*
G01X11013Y6528D01*
G01X11023Y6527D01*
G01X11368Y6525D01*
G01X11672Y6522D01*
G01X11697Y6520D01*
G01X11705Y6519D01*
G01X11707Y6518D01*
G01X11708D01*
G01X11709D01*
G01X11714Y6510D01*
G01X11720Y6503D01*
G01X11723Y6500D01*
G01X11725Y6496D01*
G01X11727Y6491D01*
G01X11729Y6480D01*
G01X11730Y6453D01*
G01X11731Y6384D01*
G01X11730Y6319D01*
G01X11728Y6300D01*
G01X11727Y6290D01*
G01X11726Y6286D01*
G01X11721Y6275D01*
G01X11717Y6266D01*
G01X11715Y6262D01*
G01X11712Y6257D01*
G01X11708Y6251D01*
G01X11704Y6244D01*
G01X11698Y6238D01*
G01X11692Y6232D01*
G01X11686Y6227D01*
G01X11679Y6222D01*
G01X11672Y6219D01*
G01X11665Y6216D01*
G01X11659Y6213D01*
G01X11652Y6212D01*
G01X11649Y6211D01*
G01X11563Y6210D01*
G01X11322Y6209D01*
G01X11039Y6205D01*
G01X11014Y6204D01*
G01X11004Y6202D01*
G01X11002D01*
G01X11001Y6201D01*
G01X11000D01*
G01X10999Y6198D01*
G01X10998Y6191D01*
G01X10996Y6170D01*
G01X10995Y6092D01*
G01Y5991D01*
G01X11008Y5988D01*
G01X11011D01*
G01X11097Y5986D01*
G01X11338Y5985D01*
G01X11656Y5983D01*
G01X11662D01*
G01X11663D01*
G01X11672Y5979D01*
G01X11685Y5973D01*
G01X11689Y5970D01*
G01X11693Y5966D01*
G01X11697Y5963D01*
G01X11706Y5950D01*
G01X11712Y5944D01*
G01X11717Y5934D01*
G01X11720Y5928D01*
G01X11724Y5918D01*
G01X11727Y5908D01*
G01X11729Y5897D01*
G01X11730Y5883D01*
G01X11731Y5819D01*
G01X11730Y5773D01*
G01X11729Y5756D01*
G01X11727Y5745D01*
G01X11726Y5741D01*
G01X11721Y5729D01*
G01X11715Y5713D01*
G01X11714Y5708D01*
G01X11711Y5705D01*
G01X11706Y5699D01*
G01X11698Y5688D01*
G01X11695Y5684D01*
G01X11691Y5680D01*
G01X11686Y5676D01*
G01X11679Y5672D01*
G01X11657Y5658D01*
G01X11653Y5656D01*
G01X11648Y5654D01*
G01X11642Y5652D01*
G01X11635Y5650D01*
G01X11633Y5649D01*
G01X11567Y5648D01*
G01X11314Y5647D01*
G01X11038Y5644D01*
G01X11013Y5642D01*
G01X11004Y5640D01*
G01X11001D01*
G01X11000Y5639D01*
G01X10999Y5636D01*
G01X10998Y5629D01*
G01X10996Y5608D01*
G01X10995Y5530D01*
G01Y5429D01*
G01X11008Y5426D01*
G01X11011D01*
G01X11099Y5424D01*
G01X11346Y5423D01*
G01X11672Y5426D01*
G01X11678D01*
G01X11679D01*
G01X11704Y5435D01*
G01X11730Y5444D01*
G01X11743Y5449D01*
G01X11753Y5455D01*
G01X11777Y5470D01*
G01X11784Y5474D01*
G01X11791Y5480D01*
G01X11795Y5484D01*
G01X11799Y5490D01*
G01X11802Y5493D01*
G01X11806Y5496D01*
G01X11814Y5499D01*
G01X11818Y5501D01*
G01X11821Y5504D01*
G01X11827Y5512D01*
G01X11833Y5519D01*
G01X11841Y5525D01*
G01X11844Y5528D01*
G01X11847Y5532D01*
G01X11850Y5539D01*
G01X11852Y5543D01*
G01X11855Y5546D01*
G01X11863Y5552D01*
G01X11866Y5555D01*
G01X11868Y5559D01*
G01X11871Y5567D01*
G01X11876Y5575D01*
G01X11884Y5589D01*
G01X11893Y5610D01*
G01X11898Y5621D01*
G01X11903Y5627D01*
G01X11905Y5633D01*
G01X11911Y5647D01*
G01X11915Y5660D01*
G01X11918Y5672D01*
G01X11922Y5694D01*
G01X11925Y5708D01*
G01X11927Y5740D01*
G01Y5830D01*
G01X11926Y5942D01*
G01X11925Y5953D01*
G01X11924Y5955D01*
G01X11916Y5980D01*
G01X11912Y5991D01*
G01X11907Y6003D01*
G01X11900Y6013D01*
G01X11892Y6029D01*
G01X11885Y6037D01*
G01X11877Y6043D01*
G01X11870Y6050D01*
G01X11861Y6061D01*
G01X11854Y6067D01*
G01X11850Y6070D01*
G01X11847Y6074D01*
G01X11845Y6079D01*
G01X11842Y6084D01*
G01Y6089D01*
G01Y6093D01*
G01X11845Y6097D01*
G01X11852Y6103D01*
G01X11859Y6110D01*
G01X11867Y6121D01*
G01X11876Y6131D01*
G01X11879Y6135D01*
G01X11886Y6146D01*
G01X11905Y6178D01*
G01X11911Y6190D01*
G01X11922Y6221D01*
G01X11925Y6236D01*
G01X11926Y6261D01*
G01X11927Y6457D01*
G01X11925Y6651D01*
G01X11923Y6669D01*
G01X11922Y6676D01*
G01Y6678D01*
G01X11914Y6693D01*
G01X11908Y6703D01*
G01X11904Y6709D01*
G01X11898Y6717D01*
G01X11894Y6720D01*
G01X11876Y6733D01*
G01X11866Y6738D01*
G01X11854Y6744D01*
G01X11850D01*
G01X11834Y6745D01*
G37*
G36*
G01X11254Y5293D02*
G01X11237Y5292D01*
G01X11226Y5291D01*
G01X11217Y5289D01*
G01X11207Y5287D01*
G01X11192D01*
G01X11173Y5282D01*
G01X11154Y5278D01*
G01X11142Y5274D01*
G01X11125Y5266D01*
G01X11112Y5263D01*
G01X11105Y5261D01*
G01X11097Y5258D01*
G01X11092Y5256D01*
G01X11059Y5235D01*
G01X11051Y5229D01*
G01X11039Y5219D01*
G01X11031Y5213D01*
G01X11027Y5209D01*
G01X11023Y5203D01*
G01X11019Y5197D01*
G01X11001Y5168D01*
G01X10997Y5162D01*
G01Y5160D01*
G01X10996Y5126D01*
G01X10995Y4875D01*
G01X11202D01*
G01X11203Y5023D01*
G01X11204Y5032D01*
G01Y5033D01*
G01Y5034D01*
G01X11206Y5035D01*
G01X11207Y5038D01*
G01X11210Y5047D01*
G01X11212Y5053D01*
G01X11214Y5055D01*
G01X11218Y5060D01*
G01X11223Y5064D01*
G01X11233Y5070D01*
G01X11241Y5074D01*
G01X11248Y5077D01*
G01X11256Y5080D01*
G01X11264Y5083D01*
G01X11272Y5084D01*
G01X11281Y5086D01*
G01X11286D01*
G01X11297Y5084D01*
G01X11316Y5074D01*
G01X11324Y5069D01*
G01X11328Y5066D01*
G01X11332Y5062D01*
G01X11336Y5058D01*
G01X11338Y5053D01*
G01X11343Y5041D01*
G01X11346Y5028D01*
G01X11348Y5012D01*
G01X11349Y4859D01*
G01X11347Y4741D01*
G01X11345Y4718D01*
G01X11344Y4705D01*
G01X11342Y4701D01*
G01Y4700D01*
G01Y4698D01*
G01X11341D01*
G01X11338Y4697D01*
G01X11327Y4695D01*
G01X11310Y4693D01*
G01X11270D01*
G01X11207D01*
G01X11204Y4709D01*
G01X11203Y4722D01*
G01X11202Y4875D01*
G01X10995D01*
G01Y4815D01*
G01Y4474D01*
G01X11008Y4472D01*
G01X11011Y4471D01*
G01X11098Y4470D01*
G01X11341Y4469D01*
G01X11661Y4471D01*
G01X11667D01*
G01X11668Y4472D01*
G01X11677Y4474D01*
G01X11693D01*
G01X11702Y4476D01*
G01X11734Y4486D01*
G01X11769Y4496D01*
G01X11780Y4500D01*
G01X11792Y4506D01*
G01X11802Y4513D01*
G01X11818Y4521D01*
G01X11824Y4525D01*
G01X11837Y4534D01*
G01X11850Y4546D01*
G01X11862Y4556D01*
G01X11869Y4564D01*
G01X11875Y4571D01*
G01X11884Y4583D01*
G01X11892Y4592D01*
G01X11895Y4596D01*
G01X11903Y4608D01*
G01X11907Y4615D01*
G01X11910Y4621D01*
G01X11912Y4627D01*
G01X11918Y4648D01*
G01X11920Y4656D01*
G01X11923Y4670D01*
G01X11924Y4679D01*
G01X11925Y4688D01*
G01X11927Y4971D01*
G01Y5244D01*
G01X11908Y5246D01*
G01X11899Y5247D01*
G01X11851Y5249D01*
G01X11804D01*
G01X11763Y5248D01*
G01X11742Y5247D01*
G01X11732Y5245D01*
G01X11722Y5243D01*
G01X11718Y5242D01*
G01X11716Y5240D01*
G01X11715Y5239D01*
G01X11714Y5238D01*
G01Y5236D01*
G01X11713Y5232D01*
G01X11711Y5209D01*
G01X11709Y4982D01*
G01X11706Y4783D01*
G01X11703Y4747D01*
G01X11702Y4736D01*
G01X11700Y4727D01*
G01X11699Y4724D01*
G01Y4723D01*
G01X11698D01*
G01X11693Y4716D01*
G01X11687Y4711D01*
G01X11680Y4707D01*
G01X11674Y4704D01*
G01X11652Y4695D01*
G01X11647Y4694D01*
G01X11635Y4693D01*
G01X11623D01*
G01X11615Y4694D01*
G01X11608Y4697D01*
G01X11601Y4701D01*
G01X11591Y4709D01*
G01X11585Y4715D01*
G01X11580Y4721D01*
G01X11575Y4728D01*
G01X11572Y4735D01*
G01X11569Y4742D01*
G01X11566Y4749D01*
G01X11565Y4755D01*
G01X11559Y4783D01*
G01X11558Y4799D01*
G01X11556Y4965D01*
G01X11554Y5117D01*
G01X11553Y5134D01*
G01X11552Y5143D01*
G01X11551Y5145D01*
G01Y5146D01*
G01X11540Y5167D01*
G01X11533Y5179D01*
G01X11523Y5192D01*
G01X11518Y5198D01*
G01X11513Y5203D01*
G01X11507Y5210D01*
G01X11489Y5222D01*
G01X11476Y5232D01*
G01X11469Y5237D01*
G01X11462Y5241D01*
G01X11446Y5248D01*
G01X11436Y5253D01*
G01X11429Y5257D01*
G01X11423Y5260D01*
G01X11409Y5265D01*
G01X11374Y5277D01*
G01X11358Y5280D01*
G01X11342Y5283D01*
G01X11299Y5289D01*
G01X11284Y5291D01*
G01X11270Y5292D01*
G37*
G36*
G01X10995Y4343D02*
G01X10995Y4210D01*
G01X10996Y4125D01*
G01X10998Y4099D01*
G01X11000Y4087D01*
G01X11001Y4078D01*
G01X11003Y4075D01*
G01Y4073D01*
G01X11004Y4072D01*
G01X11005Y4071D01*
G01X11013Y4067D01*
G01X11022Y4061D01*
G01X11035Y4051D01*
G01X11043Y4047D01*
G01X11057Y4039D01*
G01X11065Y4034D01*
G01X11083Y4022D01*
G01X11139Y3986D01*
G01X11155Y3976D01*
G01X11175Y3962D01*
G01X11210Y3940D01*
G01X11226Y3929D01*
G01X11230Y3926D01*
G01X11234Y3922D01*
G01X11237Y3918D01*
G01X11241Y3910D01*
G01X11243Y3905D01*
G01X11244Y3900D01*
G01Y3898D01*
G01X11243Y3894D01*
G01X11241Y3890D01*
G01X11238Y3886D01*
G01X11234Y3883D01*
G01X11221Y3876D01*
G01X11213Y3870D01*
G01X11196Y3858D01*
G01X11167Y3840D01*
G01X11150Y3828D01*
G01X11142Y3823D01*
G01X11128Y3816D01*
G01X11120Y3811D01*
G01X11103Y3798D01*
G01X11074Y3780D01*
G01X11054Y3765D01*
G01X11025Y3747D01*
G01X11016Y3741D01*
G01X11007Y3733D01*
G01X11000Y3727D01*
G01X10999Y3724D01*
G01X10998Y3717D01*
G01X10996Y3691D01*
G01X10995Y3594D01*
G01Y3466D01*
G01X11010Y3470D01*
G01X11015Y3472D01*
G01X11019Y3474D01*
G01X11025Y3479D01*
G01X11029Y3482D01*
G01X11057Y3500D01*
G01X11073Y3512D01*
G01X11082Y3517D01*
G01X11095Y3525D01*
G01X11104Y3530D01*
G01X11121Y3542D01*
G01X11177Y3577D01*
G01X11193Y3587D01*
G01X11214Y3602D01*
G01X11226Y3610D01*
G01X11254Y3626D01*
G01X11269Y3637D01*
G01X11290Y3651D01*
G01X11302Y3659D01*
G01X11330Y3675D01*
G01X11346Y3686D01*
G01X11366Y3700D01*
G01X11379Y3708D01*
G01X11406Y3725D01*
G01X11422Y3735D01*
G01X11437Y3745D01*
G01X11443Y3749D01*
G01X11450Y3752D01*
G01X11458Y3755D01*
G01X11470Y3758D01*
G01X11477D01*
G01X11483D01*
G01X11488Y3757D01*
G01X11494Y3755D01*
G01X11499Y3752D01*
G01X11519Y3738D01*
G01X11532Y3730D01*
G01X11559Y3713D01*
G01X11575Y3703D01*
G01X11592Y3692D01*
G01X11600Y3687D01*
G01X11613Y3679D01*
G01X11622Y3674D01*
G01X11639Y3662D01*
G01X11652Y3654D01*
G01X11679Y3637D01*
G01X11695Y3627D01*
G01X11712Y3615D01*
G01X11720Y3610D01*
G01X11734Y3603D01*
G01X11742Y3598D01*
G01X11759Y3585D01*
G01X11772Y3577D01*
G01X11799Y3561D01*
G01X11815Y3551D01*
G01X11832Y3539D01*
G01X11840Y3534D01*
G01X11854Y3527D01*
G01X11862Y3521D01*
G01X11876Y3511D01*
G01X11884Y3507D01*
G01X11897Y3499D01*
G01X11905Y3494D01*
G01X11914Y3488D01*
G01X11916Y3487D01*
G01X11920Y3486D01*
G01X11923Y3487D01*
G01X11924Y3488D01*
G01Y3490D01*
G01X11925Y3494D01*
G01X11927Y3529D01*
G01Y3629D01*
G01X11926Y3722D01*
G01X11924Y3745D01*
G01X11922Y3758D01*
G01X11921Y3762D01*
G01X11920Y3764D01*
G01Y3765D01*
G01X11919D01*
G01X11892Y3785D01*
G01X11884Y3790D01*
G01X11868Y3798D01*
G01X11837Y3817D01*
G01X11818Y3828D01*
G01X11802Y3836D01*
G01X11772Y3855D01*
G01X11744Y3872D01*
G01X11738Y3876D01*
G01X11733Y3881D01*
G01X11729Y3886D01*
G01X11726Y3891D01*
G01X11723Y3896D01*
G01X11722Y3901D01*
G01Y3903D01*
G01Y3906D01*
G01Y3908D01*
G01X11723Y3910D01*
G01X11725Y3914D01*
G01X11727Y3918D01*
G01X11730Y3921D01*
G01X11734Y3924D01*
G01X11750Y3934D01*
G01X11772Y3948D01*
G01X11881Y4014D01*
G01X11903Y4027D01*
G01X11919Y4038D01*
G01X11921Y4042D01*
G01X11923Y4049D01*
G01X11925Y4077D01*
G01X11927Y4183D01*
G01Y4322D01*
G01X11911Y4317D01*
G01X11903Y4313D01*
G01X11883Y4300D01*
G01X11870Y4292D01*
G01X11842Y4275D01*
G01X11827Y4265D01*
G01X11806Y4251D01*
G01X11794Y4243D01*
G01X11766Y4227D01*
G01X11751Y4216D01*
G01X11734Y4204D01*
G01X11726Y4199D01*
G01X11712Y4192D01*
G01X11704Y4186D01*
G01X11687Y4175D01*
G01X11630Y4139D01*
G01X11614Y4129D01*
G01X11597Y4117D01*
G01X11589Y4112D01*
G01X11575Y4105D01*
G01X11567Y4100D01*
G01X11550Y4087D01*
G01X11521Y4069D01*
G01X11507Y4059D01*
G01X11501Y4056D01*
G01X11495Y4053D01*
G01X11488Y4052D01*
G01X11478Y4050D01*
G01X11464Y4049D01*
G01X11458D01*
G01X11453Y4050D01*
G01X11449Y4052D01*
G01X11436Y4060D01*
G01X11417Y4070D01*
G01X11409Y4075D01*
G01X11392Y4087D01*
G01X11336Y4123D01*
G01X11319Y4133D01*
G01X11299Y4147D01*
G01X11286Y4155D01*
G01X11259Y4172D01*
G01X11243Y4182D01*
G01X11223Y4197D01*
G01X11210Y4205D01*
G01X11183Y4221D01*
G01X11167Y4231D01*
G01X11147Y4245D01*
G01X11090Y4281D01*
G01X11074Y4291D01*
G01X11054Y4305D01*
G01X11011Y4333D01*
G37*
G04 //text: Ti*
G36*
G01X2063Y1217D02*
G01X2065Y1217D01*
G01X2082Y1216D01*
G01X2194Y1215D01*
G01X2322D01*
G01Y2262D01*
G01X2338Y2265D01*
G01X2351Y2266D01*
G01X2496Y2267D01*
G01X2593Y2269D01*
G01X2621Y2271D01*
G01X2633Y2273D01*
G01X2642Y2274D01*
G01X2646Y2276D01*
G01X2647Y2277D01*
G01X2648D01*
G01X2649Y2278D01*
G01X2650Y2282D01*
G01X2651Y2289D01*
G01X2653Y2312D01*
G01X2655Y2390D01*
G01X2653Y2446D01*
G01X2652Y2467D01*
G01X2650Y2478D01*
G01X2648Y2488D01*
G01X2647Y2492D01*
G01X2646Y2494D01*
G01X2645Y2495D01*
G01Y2496D01*
G01X2644D01*
G01X2641Y2497D01*
G01X2624Y2498D01*
G01X2185Y2502D01*
G01X1738D01*
G01X1735Y2488D01*
G01Y2483D01*
G01X1733Y2453D01*
G01Y2374D01*
G01Y2273D01*
G01X1749Y2270D01*
G01X1762Y2269D01*
G01X1907Y2267D01*
G01X2055D01*
G01X2057Y2254D01*
G01X2058Y2242D01*
G01X2060Y1730D01*
G01X2062Y1222D01*
G01X2063Y1218D01*
G01Y1217D01*
G37*
G36*
G01X2761Y1217D02*
G01X2763Y1217D01*
G01X2778Y1216D01*
G01X2870Y1215D01*
G01X2976D01*
G01X2979Y1228D01*
G01Y1232D01*
G01X2982Y1692D01*
G01Y2142D01*
G01X2968Y2145D01*
G01X2963D01*
G01X2934Y2147D01*
G01X2859D01*
G01X2764D01*
G01X2761Y2134D01*
G01Y2130D01*
G01X2758Y1670D01*
G01X2760Y1222D01*
G01X2761Y1218D01*
G01Y1217D01*
G37*
G36*
G01X2761Y2286D02*
G01X2763Y2286D01*
G01X2778Y2285D01*
G01X2870Y2284D01*
G01X2976D01*
G01X2979Y2297D01*
G01X2980Y2302D01*
G01X2981Y2331D01*
G01X2982Y2404D01*
G01Y2496D01*
G01X2968Y2499D01*
G01X2963Y2500D01*
G01X2934Y2501D01*
G01X2859Y2502D01*
G01X2764D01*
G01X2761Y2488D01*
G01X2760Y2484D01*
G01X2759Y2455D01*
G01X2758Y2382D01*
G01X2759Y2300D01*
G01X2760Y2289D01*
G01X2761Y2287D01*
G01Y2286D01*
G37*
G04 //text: Pi*
G36*
G01X3566Y4042D02*
G01X3564Y4028D01*
G01X3563Y4015D01*
G01X3562Y3622D01*
G01X3823D01*
G01Y3802D01*
G01X3839Y3805D01*
G01X3854Y3806D01*
G01X4030Y3807D01*
G01X4162Y3805D01*
G01X4195Y3802D01*
G01X4207Y3801D01*
G01X4217Y3799D01*
G01X4220Y3798D01*
G01X4222Y3797D01*
G01X4224Y3796D01*
G01X4227Y3794D01*
G01X4233Y3788D01*
G01X4237Y3782D01*
G01X4241Y3775D01*
G01X4247Y3762D01*
G01X4252Y3752D01*
G01X4256Y3745D01*
G01X4259Y3740D01*
G01X4260Y3733D01*
G01X4265Y3711D01*
G01X4269Y3696D01*
G01X4271Y3679D01*
G01X4273Y3668D01*
G01X4274Y3647D01*
G01X4275Y3603D01*
G01Y3570D01*
G01X4274Y3558D01*
G01X4271Y3549D01*
G01X4269Y3535D01*
G01X4266Y3517D01*
G01X4263Y3507D01*
G01X4261Y3501D01*
G01X4255Y3491D01*
G01X4251Y3483D01*
G01X4249Y3478D01*
G01X4246Y3473D01*
G01X4242Y3468D01*
G01X4235Y3457D01*
G01X4229Y3452D01*
G01X4222Y3447D01*
G01X4216Y3443D01*
G01X4206Y3439D01*
G01X4198Y3437D01*
G01X4189Y3435D01*
G01X4180Y3434D01*
G01X4173Y3433D01*
G01X4073Y3431D01*
G01X4003D01*
G01X3853Y3433D01*
G01X3843D01*
G01X3842Y3434D01*
G01X3838Y3436D01*
G01X3831Y3439D01*
G01X3829Y3443D01*
G01X3827Y3451D01*
G01X3825Y3486D01*
G01X3823Y3622D01*
G01X3562D01*
G01X3561Y3387D01*
G01X3563Y2761D01*
G01X3564Y2758D01*
G01Y2757D01*
G01X3566Y2756D01*
G01X3583Y2755D01*
G01X3692Y2754D01*
G01X3817D01*
G01X3820Y2771D01*
G01X3822Y2796D01*
G01X3823Y2987D01*
G01X3825Y3139D01*
G01X3828Y3170D01*
G01X3829Y3182D01*
G01X3831Y3190D01*
G01X3832Y3194D01*
G01X3833Y3196D01*
G01X3834D01*
G01X3836Y3197D01*
G01X3839Y3198D01*
G01X3850Y3199D01*
G01X3934Y3201D01*
G01X4036Y3202D01*
G01X4225Y3203D01*
G01X4233Y3204D01*
G01X4234D01*
G01X4239Y3206D01*
G01X4253Y3209D01*
G01X4278Y3213D01*
G01X4289Y3216D01*
G01X4311Y3224D01*
G01X4338Y3234D01*
G01X4345Y3237D01*
G01X4351Y3241D01*
G01X4357Y3244D01*
G01X4374Y3256D01*
G01X4394Y3268D01*
G01X4401Y3275D01*
G01X4405Y3279D01*
G01X4409Y3285D01*
G01X4416Y3292D01*
G01X4424Y3298D01*
G01X4428Y3302D01*
G01X4432Y3307D01*
G01X4442Y3323D01*
G01X4449Y3331D01*
G01X4453Y3336D01*
G01X4458Y3344D01*
G01X4466Y3359D01*
G01X4474Y3373D01*
G01X4479Y3382D01*
G01X4484Y3398D01*
G01X4491Y3415D01*
G01X4495Y3427D01*
G01X4499Y3446D01*
G01X4504Y3465D01*
G01X4507Y3477D01*
G01X4513Y3510D01*
G01X4518Y3553D01*
G01X4520Y3572D01*
G01X4521Y3638D01*
G01X4520Y3689D01*
G01X4519Y3703D01*
G01X4517Y3710D01*
G01X4516Y3720D01*
G01X4515Y3736D01*
G01X4512Y3750D01*
G01X4509Y3763D01*
G01X4504Y3788D01*
G01X4502Y3799D01*
G01X4494Y3824D01*
G01X4488Y3838D01*
G01X4472Y3872D01*
G01X4466Y3883D01*
G01X4447Y3914D01*
G01X4443Y3920D01*
G01X4437Y3927D01*
G01X4433Y3931D01*
G01X4427Y3935D01*
G01X4420Y3943D01*
G01X4411Y3954D01*
G01X4404Y3960D01*
G01X4393Y3968D01*
G01X4387Y3974D01*
G01X4383Y3977D01*
G01X4371Y3985D01*
G01X4339Y4004D01*
G01X4327Y4009D01*
G01X4301Y4019D01*
G01X4281Y4025D01*
G01X4240Y4034D01*
G01X4224Y4037D01*
G01X4202Y4039D01*
G01X4183Y4040D01*
G01X3872Y4042D01*
G37*
G36*
G01X4619Y4042D02*
G01X4616Y4023D01*
G01X4615Y4013D01*
G01X4614Y3965D01*
G01Y3919D01*
G01X4615Y3845D01*
G01X4616Y3832D01*
G01Y3829D01*
G01X4619Y3828D01*
G01X4624Y3827D01*
G01X4645Y3825D01*
G01X4725Y3824D01*
G01X4832D01*
G01X4835Y3837D01*
G01Y3842D01*
G01X4837Y3870D01*
G01Y3944D01*
G01Y4037D01*
G01X4823Y4039D01*
G01X4819Y4040D01*
G01X4789Y4041D01*
G01X4715Y4042D01*
G37*
G36*
G01X4619Y3687D02*
G01X4616Y3674D01*
G01Y3670D01*
G01X4614Y3210D01*
G01X4616Y2763D01*
G01Y2758D01*
G01Y2757D01*
G01X4619Y2756D01*
G01X4633Y2755D01*
G01X4725Y2754D01*
G01X4832D01*
G01X4835Y2768D01*
G01Y2772D01*
G01X4837Y3232D01*
G01Y3682D01*
G01X4823Y3685D01*
G01X4819D01*
G01X4789Y3687D01*
G01X4715D01*
G37*
G04 //text: 24V*
G36*
G01X10978Y10461D02*
G01X10781Y10459D01*
G01X10772Y10458D01*
G01X10771D01*
G01X10770Y10456D01*
G01X10769Y10369D01*
G01X10768Y10003D01*
G01Y9551D01*
G01X10782Y9548D01*
G01X10787D01*
G01X10817Y9546D01*
G01X10894Y9545D01*
G01X10946Y9546D01*
G01X10967Y9548D01*
G01X10978Y9549D01*
G01X10989Y9551D01*
G01X10993Y9553D01*
G01X10995Y9554D01*
G01X10996Y9555D01*
G01X10998Y9556D01*
G01Y9557D01*
G01X10999Y9560D01*
G01X11000Y9571D01*
G01X11003Y9681D01*
G01X11004Y9862D01*
G01Y10156D01*
G01X11018Y10158D01*
G01X11023Y10159D01*
G01X11049Y10161D01*
G01X11113Y10162D01*
G01X11170Y10161D01*
G01X11186Y10159D01*
G01X11196Y10157D01*
G01X11200D01*
G01X11201Y10156D01*
G01X11220Y10144D01*
G01X11224Y10141D01*
G01X11227Y10137D01*
G01X11231Y10133D01*
G01X11238Y10118D01*
G01X11244Y10110D01*
G01X11252Y10098D01*
G01X11256Y10092D01*
G01X11260Y10085D01*
G01X11263Y10078D01*
G01X11286Y10020D01*
G01X11296Y9993D01*
G01X11302Y9972D01*
G01X11308Y9950D01*
G01X11312Y9937D01*
G01X11320Y9919D01*
G01X11323Y9905D01*
G01X11325Y9898D01*
G01X11328Y9890D01*
G01X11330Y9885D01*
G01X11334Y9878D01*
G01X11337Y9872D01*
G01X11339Y9866D01*
G01X11342Y9852D01*
G01X11346Y9839D01*
G01X11354Y9822D01*
G01X11359Y9804D01*
G01X11363Y9793D01*
G01X11371Y9778D01*
G01X11378Y9759D01*
G01X11382Y9746D01*
G01X11388Y9735D01*
G01X11392Y9728D01*
G01X11396Y9718D01*
G01X11402Y9702D01*
G01X11407Y9692D01*
G01X11412Y9682D01*
G01X11421Y9663D01*
G01X11425Y9655D01*
G01X11428Y9650D01*
G01X11438Y9639D01*
G01X11453Y9618D01*
G01X11464Y9605D01*
G01X11469Y9599D01*
G01X11476Y9593D01*
G01X11507Y9571D01*
G01X11516Y9566D01*
G01X11522Y9563D01*
G01X11545Y9551D01*
G01X11557Y9546D01*
G01X11571Y9543D01*
G01X11584Y9540D01*
G01X11599Y9535D01*
G01X11613Y9533D01*
G01X11623Y9531D01*
G01X11663Y9526D01*
G01X11676Y9524D01*
G01X11731Y9522D01*
G01X11746D01*
G01X11800Y9523D01*
G01X11815Y9524D01*
G01X11818Y9526D01*
G01X11823Y9527D01*
G01X11836Y9530D01*
G01X11853Y9533D01*
G01X11860Y9535D01*
G01X11867Y9537D01*
G01X11885Y9545D01*
G01X11901Y9550D01*
G01X11912Y9554D01*
G01X11926Y9563D01*
G01X11947Y9572D01*
G01X11954Y9576D01*
G01X11961Y9580D01*
G01X11986Y9600D01*
G01X11995Y9606D01*
G01X12003Y9613D01*
G01X12009Y9622D01*
G01X12012Y9625D01*
G01X12016Y9627D01*
G01X12024Y9631D01*
G01X12027Y9633D01*
G01X12029Y9636D01*
G01X12033Y9644D01*
G01X12036Y9648D01*
G01X12039Y9652D01*
G01X12047Y9658D01*
G01X12051Y9662D01*
G01X12054Y9667D01*
G01X12063Y9683D01*
G01X12083Y9716D01*
G01X12087Y9723D01*
G01X12091Y9730D01*
G01X12094Y9738D01*
G01X12098Y9747D01*
G01X12106Y9773D01*
G01X12115Y9802D01*
G01X12118Y9816D01*
G01X12120Y9824D01*
G01X12121Y9839D01*
G01X12122Y9849D01*
G01X12123Y9854D01*
G01X12124Y9856D01*
G01X12125Y9875D01*
G01X12126Y10139D01*
G01Y10415D01*
G01X12112Y10418D01*
G01X12107Y10419D01*
G01X12076Y10420D01*
G01X11997Y10421D01*
G01X11896D01*
G01X11893Y10403D01*
G01X11892Y10373D01*
G01X11890Y10133D01*
G01X11887Y9888D01*
G01X11886Y9871D01*
G01X11885Y9864D01*
G01Y9863D01*
G01Y9862D01*
G01X11876Y9847D01*
G01X11868Y9833D01*
G01X11863Y9826D01*
G01X11857Y9821D01*
G01X11851Y9816D01*
G01X11824Y9799D01*
G01X11819Y9796D01*
G01X11813Y9794D01*
G01X11806Y9792D01*
G01X11783Y9787D01*
G01X11772Y9785D01*
G01X11767Y9783D01*
G01X11761Y9782D01*
G01X11743D01*
G01X11734D01*
G01X11722Y9784D01*
G01X11715Y9786D01*
G01X11696Y9794D01*
G01X11679Y9802D01*
G01X11674Y9805D01*
G01X11669Y9809D01*
G01X11666Y9813D01*
G01X11659Y9821D01*
G01X11651Y9828D01*
G01X11647Y9831D01*
G01X11643Y9835D01*
G01X11640Y9839D01*
G01X11631Y9855D01*
G01X11627Y9861D01*
G01X11623Y9865D01*
G01X11617Y9874D01*
G01X11608Y9890D01*
G01X11600Y9904D01*
G01X11597Y9910D01*
G01X11591Y9923D01*
G01X11579Y9951D01*
G01X11569Y9979D01*
G01X11545Y10052D01*
G01X11533Y10089D01*
G01X11522Y10130D01*
G01X11510Y10167D01*
G01X11499Y10202D01*
G01X11493Y10217D01*
G01X11480Y10246D01*
G01X11473Y10264D01*
G01X11469Y10270D01*
G01X11466Y10276D01*
G01X11447Y10303D01*
G01X11435Y10318D01*
G01X11416Y10344D01*
G01X11409Y10353D01*
G01X11402Y10360D01*
G01X11390Y10369D01*
G01X11384Y10377D01*
G01X11380Y10381D01*
G01X11376Y10386D01*
G01X11370Y10390D01*
G01X11363Y10395D01*
G01X11317Y10424D01*
G01X11303Y10431D01*
G01X11296Y10433D01*
G01X11282Y10436D01*
G01X11268Y10441D01*
G01X11256Y10447D01*
G01X11248Y10449D01*
G01X11237Y10451D01*
G01X11204Y10455D01*
G01X11192Y10458D01*
G01X11191D01*
G01X11186Y10459D01*
G01X11026Y10461D01*
G37*
G36*
G01X11038Y9436D02*
G01X11035Y9416D01*
G01Y9406D01*
G01X11032Y9070D01*
G01Y8944D01*
G01X11274D01*
G01X11276Y9111D01*
G01X11277Y9121D01*
G01Y9122D01*
G01X11282Y9124D01*
G01X11291Y9122D01*
G01X11297Y9121D01*
G01X11301Y9118D01*
G01X11306Y9115D01*
G01X11312Y9107D01*
G01X11315Y9103D01*
G01X11319Y9101D01*
G01X11328Y9097D01*
G01X11333Y9094D01*
G01X11340Y9090D01*
G01X11364Y9071D01*
G01X11385Y9056D01*
G01X11392Y9051D01*
G01X11407Y9039D01*
G01X11431Y9024D01*
G01X11440Y9017D01*
G01X11451Y9007D01*
G01X11496Y8975D01*
G01X11512Y8964D01*
G01X11537Y8944D01*
G01X11582Y8912D01*
G01X11599Y8900D01*
G01X11624Y8881D01*
G01X11669Y8849D01*
G01X11685Y8837D01*
G01X11710Y8817D01*
G01X11755Y8785D01*
G01X11771Y8774D01*
G01X11785Y8762D01*
G01X11790Y8757D01*
G01X11793Y8752D01*
G01X11794Y8750D01*
G01X11795Y8748D01*
G01X11792Y8746D01*
G01X11781Y8744D01*
G01X11697Y8741D01*
G01X11539Y8739D01*
G01X11280D01*
G01X11277Y8756D01*
G01X11276Y8771D01*
G01X11274Y8944D01*
G01X11032D01*
G01Y8745D01*
G01X11018Y8742D01*
G01X11013D01*
G01X10978Y8740D01*
G01X10888Y8739D01*
G01X10784Y8738D01*
G01X10773Y8737D01*
G01X10771D01*
G01X10770Y8734D01*
G01X10769Y8715D01*
G01X10768Y8592D01*
G01Y8452D01*
G01X11027D01*
G01X11030Y8437D01*
G01X11031Y8428D01*
G01X11032Y8409D01*
G01Y8383D01*
G01X11033Y8368D01*
G01X11034Y8361D01*
G01X11035Y8351D01*
G01X11037Y8345D01*
G01X11039Y8341D01*
G01X11040Y8340D01*
G01X11042Y8337D01*
G01X11044Y8336D01*
G01X11048Y8335D01*
G01X11056Y8334D01*
G01X11078Y8332D01*
G01X11159Y8331D01*
G01X11263D01*
G01X11268Y8345D01*
G01X11271Y8354D01*
G01X11273Y8367D01*
G01X11274Y8383D01*
G01Y8446D01*
G01X11289Y8449D01*
G01X11292D01*
G01X11565Y8452D01*
G01X11700D01*
G01X12049Y8456D01*
G01X12083Y8459D01*
G01X12098Y8461D01*
G01X12101D01*
G01X12102Y8462D01*
G01X12103Y8463D01*
G01X12108Y8472D01*
G01X12115Y8492D01*
G01X12117Y8500D01*
G01X12119Y8507D01*
G01X12120Y8518D01*
G01X12121Y8531D01*
G01X12123Y8540D01*
G01X12124Y8545D01*
G01X12125Y8581D01*
G01X12126Y8685D01*
G01X12124Y8785D01*
G01X12122Y8810D01*
G01X12121Y8821D01*
G01X12119Y8830D01*
G01X12118Y8833D01*
G01Y8835D01*
G01X12113Y8841D01*
G01X12107Y8849D01*
G01X12103Y8853D01*
G01X12084Y8867D01*
G01X12020Y8918D01*
G01X12002Y8932D01*
G01X11989Y8941D01*
G01X11979Y8949D01*
G01X11957Y8967D01*
G01X11944Y8978D01*
G01X11931Y8987D01*
G01X11922Y8996D01*
G01X11911Y9004D01*
G01X11899Y9013D01*
G01X11886Y9025D01*
G01X11865Y9039D01*
G01X11743Y9137D01*
G01X11725Y9151D01*
G01X11712Y9160D01*
G01X11703Y9168D01*
G01X11680Y9186D01*
G01X11667Y9197D01*
G01X11655Y9206D01*
G01X11645Y9215D01*
G01X11634Y9223D01*
G01X11618Y9235D01*
G01X11496Y9332D01*
G01X11478Y9347D01*
G01X11465Y9355D01*
G01X11455Y9364D01*
G01X11444Y9373D01*
G01X11433Y9381D01*
G01X11419Y9393D01*
G01X11407Y9402D01*
G01X11398Y9410D01*
G01X11386Y9419D01*
G01X11369Y9431D01*
G01X11364Y9432D01*
G01X11355Y9433D01*
G01X11299Y9435D01*
G01X11199Y9436D01*
G37*
G36*
G01X12109Y8237D02*
G01X12105Y8237D01*
G01X12101Y8236D01*
G01X12040Y8215D01*
G01X12023Y8210D01*
G01X12002Y8205D01*
G01X11988Y8201D01*
G01X11976Y8196D01*
G01X11969Y8193D01*
G01X11962Y8191D01*
G01X11945Y8188D01*
G01X11938Y8186D01*
G01X11931Y8183D01*
G01X11919Y8178D01*
G01X11906Y8174D01*
G01X11885Y8169D01*
G01X11867Y8161D01*
G01X11860Y8158D01*
G01X11853Y8156D01*
G01X11836Y8153D01*
G01X11828Y8151D01*
G01X11822Y8149D01*
G01X11809Y8144D01*
G01X11802Y8141D01*
G01X11795Y8139D01*
G01X11778Y8136D01*
G01X11771Y8134D01*
G01X11764Y8132D01*
G01X11752Y8126D01*
G01X11739Y8122D01*
G01X11719Y8117D01*
G01X11648Y8094D01*
G01X11632Y8089D01*
G01X11610Y8084D01*
G01X11597Y8080D01*
G01X11585Y8075D01*
G01X11578Y8072D01*
G01X11570Y8070D01*
G01X11554Y8067D01*
G01X11546Y8065D01*
G01X11539Y8062D01*
G01X11528Y8057D01*
G01X11514Y8053D01*
G01X11495Y8048D01*
G01X11424Y8025D01*
G01X11407Y8020D01*
G01X11385Y8015D01*
G01X11372Y8011D01*
G01X11360Y8006D01*
G01X11353Y8003D01*
G01X11346Y8001D01*
G01X11329Y7998D01*
G01X11322Y7996D01*
G01X11315Y7993D01*
G01X11303Y7988D01*
G01X11290Y7984D01*
G01X11270Y7979D01*
G01X11199Y7956D01*
G01X11183Y7951D01*
G01X11161Y7946D01*
G01X11148Y7942D01*
G01X11130Y7934D01*
G01X11116Y7930D01*
G01X11103Y7927D01*
G01X11032Y7904D01*
G01X11016Y7899D01*
G01X10994Y7894D01*
G01X10981Y7890D01*
G01X10969Y7885D01*
G01X10962Y7882D01*
G01X10955Y7880D01*
G01X10938Y7877D01*
G01X10930Y7875D01*
G01X10924Y7872D01*
G01X10911Y7867D01*
G01X10898Y7863D01*
G01X10878Y7858D01*
G01X10866Y7853D01*
G01X10850Y7846D01*
G01X10833Y7838D01*
G01X10828Y7835D01*
G01X10823Y7831D01*
G01X10819Y7827D01*
G01X10811Y7816D01*
G01X10805Y7809D01*
G01X10793Y7792D01*
G01X10789Y7785D01*
G01X10785Y7772D01*
G01X10782Y7758D01*
G01X10779Y7740D01*
G01X10776Y7729D01*
G01X10771Y7711D01*
G01X10770Y7708D01*
G01X10769Y7692D01*
G01X10768Y7602D01*
G01X10769Y7508D01*
G01X10770Y7495D01*
G01X10772Y7488D01*
G01X10775Y7473D01*
G01X10778Y7454D01*
G01X10780Y7446D01*
G01X10783Y7436D01*
G01X10790Y7421D01*
G01X10793Y7412D01*
G01X10796Y7408D01*
G01X10799Y7403D01*
G01X10803Y7397D01*
G01X10808Y7392D01*
G01X10814Y7386D01*
G01X10820Y7381D01*
G01X10827Y7377D01*
G01X10834Y7372D01*
G01X10854Y7360D01*
G01X10866Y7355D01*
G01X10879Y7351D01*
G01X10899Y7345D01*
G01X10917Y7338D01*
G01X10925Y7335D01*
G01X10932Y7333D01*
G01X10948Y7330D01*
G01X10956Y7328D01*
G01X10963Y7326D01*
G01X10975Y7320D01*
G01X10988Y7316D01*
G01X11009Y7311D01*
G01X11027Y7303D01*
G01X11034Y7300D01*
G01X11041Y7299D01*
G01X11058Y7295D01*
G01X11066Y7293D01*
G01X11072Y7291D01*
G01X11085Y7286D01*
G01X11091Y7283D01*
G01X11099Y7282D01*
G01X11116Y7278D01*
G01X11123Y7276D01*
G01X11130Y7274D01*
G01X11142Y7268D01*
G01X11155Y7264D01*
G01X11175Y7259D01*
G01X11194Y7251D01*
G01X11201Y7249D01*
G01X11209Y7247D01*
G01X11225Y7244D01*
G01X11232Y7242D01*
G01X11240Y7240D01*
G01X11251Y7234D01*
G01X11264Y7230D01*
G01X11284Y7225D01*
G01X11355Y7202D01*
G01X11505Y7156D01*
G01X11539Y7145D01*
G01X11555Y7139D01*
G01X11578Y7134D01*
G01X11591Y7130D01*
G01X11609Y7122D01*
G01X11623Y7119D01*
G01X11636Y7116D01*
G01X11706Y7093D01*
G01X11856Y7046D01*
G01X11890Y7035D01*
G01X11907Y7030D01*
G01X11929Y7025D01*
G01X11942Y7021D01*
G01X11960Y7013D01*
G01X11974Y7009D01*
G01X11987Y7006D01*
G01X12057Y6983D01*
G01X12094Y6972D01*
G01X12108Y6969D01*
G01X12114Y6968D01*
G01X12117D01*
G01X12119D01*
G01X12120Y6969D01*
G01X12122Y6972D01*
G01X12123Y6978D01*
G01X12125Y7005D01*
G01X12126Y7107D01*
G01X12125Y7190D01*
G01X12123Y7218D01*
G01X12121Y7230D01*
G01X12119Y7240D01*
G01X12118Y7244D01*
G01X12116Y7247D01*
G01X12115Y7248D01*
G01X12105Y7253D01*
G01X12086Y7260D01*
G01X11038Y7582D01*
G01X11030Y7585D01*
G01X11027Y7587D01*
G01X11025Y7590D01*
G01X11022Y7592D01*
G01X11019Y7597D01*
G01X11018Y7599D01*
G01Y7605D01*
G01X11020Y7609D01*
G01X11025Y7613D01*
G01X11032Y7616D01*
G01X11067Y7628D01*
G01X11084Y7633D01*
G01X11105Y7638D01*
G01X11119Y7643D01*
G01X11131Y7648D01*
G01X11137Y7650D01*
G01X11145Y7653D01*
G01X11162Y7656D01*
G01X11169Y7658D01*
G01X11176Y7660D01*
G01X11188Y7665D01*
G01X11195Y7668D01*
G01X11202Y7670D01*
G01X11219Y7673D01*
G01X11227Y7675D01*
G01X11233Y7677D01*
G01X11246Y7682D01*
G01X11259Y7687D01*
G01X11279Y7692D01*
G01X11349Y7714D01*
G01X11365Y7720D01*
G01X11388Y7725D01*
G01X11401Y7729D01*
G01X11413Y7734D01*
G01X11420Y7737D01*
G01X11427Y7739D01*
G01X11444Y7742D01*
G01X11451Y7744D01*
G01X11458Y7746D01*
G01X11470Y7752D01*
G01X11483Y7756D01*
G01X11503Y7761D01*
G01X11574Y7784D01*
G01X11590Y7789D01*
G01X11612Y7794D01*
G01X11625Y7798D01*
G01X11637Y7803D01*
G01X11644Y7806D01*
G01X11651Y7808D01*
G01X11668Y7811D01*
G01X11676Y7813D01*
G01X11682Y7816D01*
G01X11695Y7821D01*
G01X11708Y7825D01*
G01X11728Y7830D01*
G01X11798Y7853D01*
G01X11815Y7858D01*
G01X11837Y7863D01*
G01X11850Y7867D01*
G01X11862Y7872D01*
G01X11869Y7875D01*
G01X11876Y7877D01*
G01X11893Y7880D01*
G01X11900Y7882D01*
G01X11907Y7885D01*
G01X11919Y7890D01*
G01X11932Y7894D01*
G01X11952Y7899D01*
G01X11988Y7910D01*
G01X12101Y7945D01*
G01X12105Y7947D01*
G01X12109Y7949D01*
G01X12113Y7951D01*
G01X12116Y7954D01*
G01X12119Y7958D01*
G01X12121Y7961D01*
G01X12122Y7966D01*
G01X12123Y7971D01*
G01X12124Y7977D01*
G01X12126Y8025D01*
G01Y8112D01*
G01X12125Y8193D01*
G01X12123Y8214D01*
G01X12121Y8228D01*
G01X12120Y8232D01*
G01X12119Y8234D01*
G01X12118Y8235D01*
G01Y8236D01*
G01X12113Y8237D01*
G37*
G04 //text:  FAN *
G36*
G01X4990Y17780D02*
G01X4990Y16806D01*
G01X5474D01*
G01Y16956D01*
G01X5475Y17069D01*
G01X5477Y17098D01*
G01X5478Y17105D01*
G01X5480Y17108D01*
G01X5481Y17109D01*
G01X5486D01*
G01X6078Y17112D01*
G01X6668Y17109D01*
G01X6698Y17108D01*
G01X6756Y17102D01*
G01X6769Y17100D01*
G01X6781Y17098D01*
G01X6790Y17096D01*
G01X6840Y17073D01*
G01X6851Y17067D01*
G01X6870Y17055D01*
G01X6879Y17047D01*
G01X6889Y17034D01*
G01X6898Y17026D01*
G01X6911Y17015D01*
G01X6918Y17007D01*
G01X6933Y16985D01*
G01X6939Y16973D01*
G01X6948Y16951D01*
G01X6958Y16930D01*
G01X6962Y16918D01*
G01X6964Y16909D01*
G01X6968Y16888D01*
G01X6971Y16872D01*
G01X6972Y16866D01*
G01X6973Y16860D01*
G01X6975Y16463D01*
G01Y16415D01*
G01X6971Y16074D01*
G01X6970Y16058D01*
G01X6969Y16055D01*
G01X6967Y16053D01*
G01X6966Y16052D01*
G01X6958Y16050D01*
G01X6946Y16047D01*
G01X6934Y16046D01*
G01X6909Y16044D01*
G01X6848Y16043D01*
G01X6758Y16044D01*
G01X6732Y16046D01*
G01X6723Y16048D01*
G01X6718Y16049D01*
G01X6702Y16055D01*
G01Y16390D01*
G01X6701Y16695D01*
G01X6699Y16730D01*
G01X6698Y16733D01*
G01X6689Y16758D01*
G01X6685Y16766D01*
G01X6681Y16772D01*
G01X6676Y16777D01*
G01X6673Y16779D01*
G01X6670Y16781D01*
G01X6643Y16794D01*
G01X6640Y16795D01*
G01X6628Y16797D01*
G01X6608Y16798D01*
G01X6514Y16800D01*
G01X6422Y16799D01*
G01X6386Y16798D01*
G01X6380Y16797D01*
G01X6365Y16793D01*
G01Y16466D01*
G01X6364Y16264D01*
G01X6360Y16141D01*
G01X6359Y16128D01*
G01X6358Y16125D01*
G01X6357Y16124D01*
G01Y16123D01*
G01X6355Y16122D01*
G01X6352Y16121D01*
G01X6347Y16119D01*
G01X6336Y16117D01*
G01X6325Y16116D01*
G01X6301Y16114D01*
G01X6244Y16113D01*
G01X6195D01*
G01X6124Y16115D01*
G01X6113Y16116D01*
G01X6091Y16119D01*
G01Y16443D01*
G01X6090Y16729D01*
G01X6088Y16781D01*
G01X6084Y16800D01*
G01X5795D01*
G01X5526Y16802D01*
G01X5492Y16803D01*
G01X5474Y16806D01*
G01X4990D01*
G01Y16125D01*
G01X5474D01*
G01X5489Y16122D01*
G01X5497Y16120D01*
G01X5512Y16116D01*
G01X5532Y16107D01*
G01X5554Y16102D01*
G01X5569Y16096D01*
G01X5582Y16090D01*
G01X5590Y16088D01*
G01X5598Y16086D01*
G01X5616Y16082D01*
G01X5625Y16080D01*
G01X5632Y16078D01*
G01X5645Y16072D01*
G01X5660Y16067D01*
G01X5685Y16061D01*
G01X5703Y16055D01*
G01X5741Y16043D01*
G01X5824Y16017D01*
G01X5901Y15992D01*
G01X5916Y15989D01*
G01X5931Y15985D01*
G01X5951Y15976D01*
G01X5965Y15972D01*
G01X5990Y15965D01*
G01X6008Y15960D01*
G01X6086Y15934D01*
G01X6108Y15929D01*
G01X6122Y15925D01*
G01X6136Y15919D01*
G01X6143Y15916D01*
G01X6152Y15914D01*
G01X6170Y15911D01*
G01X6178Y15908D01*
G01X6186Y15905D01*
G01X6193Y15903D01*
G01X6206Y15897D01*
G01X6229Y15891D01*
G01X6243Y15887D01*
G01X6257Y15881D01*
G01X6264Y15878D01*
G01X6273Y15876D01*
G01X6291Y15872D01*
G01X6299Y15870D01*
G01X6307Y15867D01*
G01X6320Y15861D01*
G01X6334Y15857D01*
G01X6359Y15851D01*
G01X6377Y15846D01*
G01X6416Y15833D01*
G01X6498Y15807D01*
G01X6576Y15782D01*
G01X6590Y15778D01*
G01X6606Y15774D01*
G01X6626Y15766D01*
G01X6640Y15761D01*
G01X6664Y15756D01*
G01X6683Y15750D01*
G01X6760Y15725D01*
G01X6790Y15718D01*
G01X6810Y15709D01*
G01X6824Y15704D01*
G01X6840Y15700D01*
G01X6852Y15697D01*
G01X6864Y15693D01*
G01X6878Y15687D01*
G01X6884Y15683D01*
G01X6900Y15674D01*
G01X6918Y15664D01*
G01X6923Y15660D01*
G01X6927Y15656D01*
G01X6931Y15651D01*
G01X6947Y15627D01*
G01X6951Y15615D01*
G01X6957Y15600D01*
G01X6967Y15566D01*
G01X6968Y15558D01*
G01X6969Y15536D01*
G01X6971Y15523D01*
G01X6972Y15517D01*
G01X6973Y15514D01*
G01X6974Y15499D01*
G01X6975Y15432D01*
G01X6974Y15362D01*
G01X6973Y15349D01*
G01X6971Y15341D01*
G01X6969Y15330D01*
G01X6968Y15309D01*
G01X6966Y15289D01*
G01X6964Y15278D01*
G01X6961Y15262D01*
G01X6957Y15246D01*
G01X6951Y15224D01*
G01X6948Y15216D01*
G01X6945Y15209D01*
G01X6923Y15178D01*
G01X6918Y15173D01*
G01X6910Y15166D01*
G01X6902Y15161D01*
G01X6891Y15155D01*
G01X6874Y15146D01*
G01X6867Y15142D01*
G01X6853Y15138D01*
G01X6830Y15132D01*
G01X6810Y15123D01*
G01X6796Y15119D01*
G01X6771Y15113D01*
G01X6753Y15107D01*
G01X6675Y15082D01*
G01X6653Y15077D01*
G01X6639Y15072D01*
G01X6625Y15066D01*
G01X6618Y15064D01*
G01X6609Y15061D01*
G01X6591Y15058D01*
G01X6583Y15056D01*
G01X6575Y15053D01*
G01X6562Y15047D01*
G01X6547Y15042D01*
G01X6523Y15036D01*
G01X6504Y15031D01*
G01X6427Y15005D01*
G01X6404Y15000D01*
G01X6390Y14996D01*
G01X6377Y14990D01*
G01X6369Y14987D01*
G01X6361Y14985D01*
G01X6343Y14981D01*
G01X6334Y14979D01*
G01X6327Y14976D01*
G01X6313Y14971D01*
G01X6306Y14968D01*
G01X6297Y14966D01*
G01X6279Y14962D01*
G01X6271Y14960D01*
G01X6263Y14958D01*
G01X6257Y14955D01*
G01X6243Y14949D01*
G01X6220Y14943D01*
G01X6206Y14938D01*
G01X6193Y14933D01*
G01X6185Y14930D01*
G01X6176Y14928D01*
G01X6158Y14924D01*
G01X6150Y14922D01*
G01X6142Y14919D01*
G01X6129Y14913D01*
G01X6115Y14909D01*
G01X6090Y14903D01*
G01X6072Y14897D01*
G01X5994Y14872D01*
G01X5972Y14867D01*
G01X5957Y14862D01*
G01X5944Y14856D01*
G01X5936Y14853D01*
G01X5928Y14851D01*
G01X5910Y14848D01*
G01X5901Y14845D01*
G01X5894Y14843D01*
G01X5881Y14837D01*
G01X5866Y14832D01*
G01X5842Y14826D01*
G01X5824Y14821D01*
G01X5745Y14796D01*
G01X5724Y14790D01*
G01X5709Y14786D01*
G01X5696Y14780D01*
G01X5689Y14777D01*
G01X5680Y14775D01*
G01X5662Y14771D01*
G01X5654Y14769D01*
G01X5646Y14767D01*
G01X5633Y14760D01*
G01X5618Y14756D01*
G01X5594Y14750D01*
G01X5575Y14745D01*
G01X5509Y14722D01*
G01X5498Y14720D01*
G01X5486Y14719D01*
G01X5485D01*
G01Y14720D01*
G01X5484D01*
G01Y14721D01*
G01X5483Y14722D01*
G01X5482Y14725D01*
G01X5480Y14731D01*
G01X5478Y14749D01*
G01X5476Y14777D01*
G01X5474Y14875D01*
G01Y15031D01*
G01X5531Y15050D01*
G01X5779Y15126D01*
G01X5819Y15139D01*
G01X5837Y15143D01*
G01X5845Y15146D01*
G01X5852Y15149D01*
G01X5859Y15153D01*
G01X5862Y15155D01*
G01X5863Y15156D01*
G01X5864Y15158D01*
G01X5865Y15162D01*
G01X5867Y15171D01*
G01X5868Y15185D01*
G01X5871Y15223D01*
G01X5875Y15410D01*
G01X5873Y15638D01*
G01X5872Y15668D01*
G01X5871Y15670D01*
G01X5870Y15674D01*
G01X5869Y15678D01*
G01X5867Y15681D01*
G01X5865Y15684D01*
G01X5862Y15687D01*
G01X5859Y15689D01*
G01X5856Y15691D01*
G01X5852Y15693D01*
G01X5827Y15702D01*
G01X5816Y15705D01*
G01X5801Y15708D01*
G01X5786Y15712D01*
G01X5766Y15721D01*
G01X5752Y15726D01*
G01X5727Y15732D01*
G01X5709Y15737D01*
G01X5631Y15763D01*
G01X5617Y15766D01*
G01X5602Y15770D01*
G01X5581Y15778D01*
G01X5567Y15783D01*
G01X5543Y15789D01*
G01X5520Y15796D01*
G01X5489Y15807D01*
G01X5474Y15814D01*
G01Y16125D01*
G01X4990D01*
G01Y13678D01*
G01X5474D01*
G01Y13709D01*
G01X5476Y13798D01*
G01X5478Y13817D01*
G01X5480Y13828D01*
G01X5486Y13845D01*
G01X5492Y13857D01*
G01X5509Y13882D01*
G01X5513Y13890D01*
G01X5518Y13896D01*
G01X5523Y13901D01*
G01X5532Y13908D01*
G01X5540Y13916D01*
G01X5545Y13923D01*
G01X5550Y13927D01*
G01X5559Y13935D01*
G01X5566Y13940D01*
G01X5594Y13957D01*
G01X5599Y13960D01*
G01X5609Y13963D01*
G01X5617Y13965D01*
G01X5632Y13969D01*
G01X5649Y13976D01*
G01X5661Y13980D01*
G01X5670Y13982D01*
G01X5696Y13987D01*
G01X5704Y13989D01*
G01X5722Y13996D01*
G01X5730Y13999D01*
G01X5738Y14001D01*
G01X5757Y14005D01*
G01X5771Y14009D01*
G01X5786Y14013D01*
G01X5814Y14022D01*
G01X5827Y14025D01*
G01X5861Y14031D01*
G01X5870Y14034D01*
G01X5884Y14040D01*
G01X5896Y14044D01*
G01X5906Y14046D01*
G01X5931Y14051D01*
G01X5940Y14053D01*
G01X5954Y14059D01*
G01X5966Y14063D01*
G01X5976Y14065D01*
G01X6001Y14070D01*
G01X6010Y14072D01*
G01X6024Y14078D01*
G01X6036Y14082D01*
G01X6045Y14084D01*
G01X6071Y14089D01*
G01X6080Y14091D01*
G01X6094Y14097D01*
G01X6106Y14101D01*
G01X6115Y14103D01*
G01X6141Y14108D01*
G01X6150Y14110D01*
G01X6164Y14116D01*
G01X6176Y14120D01*
G01X6185Y14122D01*
G01X6211Y14127D01*
G01X6220Y14130D01*
G01X6238Y14137D01*
G01X6245Y14139D01*
G01X6253Y14141D01*
G01X6272Y14145D01*
G01X6287Y14148D01*
G01X6301Y14153D01*
G01X6330Y14162D01*
G01X6342Y14166D01*
G01X6377Y14172D01*
G01X6386Y14174D01*
G01X6400Y14180D01*
G01X6411Y14184D01*
G01X6421Y14186D01*
G01X6447Y14190D01*
G01X6456Y14193D01*
G01X6470Y14199D01*
G01X6482Y14203D01*
G01X6491Y14205D01*
G01X6517Y14210D01*
G01X6525Y14212D01*
G01X6543Y14219D01*
G01X6551Y14222D01*
G01X6559Y14224D01*
G01X6578Y14228D01*
G01X6592Y14231D01*
G01X6607Y14235D01*
G01X6647Y14248D01*
G01X6663Y14251D01*
G01X6672Y14253D01*
G01X6679Y14257D01*
G01X6683Y14262D01*
G01X6686Y14267D01*
G01X6689Y14280D01*
G01X6104D01*
G01X5510Y14282D01*
G01X5496Y14283D01*
G01X5474Y14286D01*
G01Y14436D01*
G01X5475Y14566D01*
G01X5476Y14586D01*
G01X5477Y14589D01*
G01X5482D01*
G01X6088Y14592D01*
G01X6702Y14589D01*
G01X6705D01*
G01X6708Y14588D01*
G01X6716Y14586D01*
G01X6739Y14585D01*
G01X6750Y14584D01*
G01X6762Y14582D01*
G01X6794Y14576D01*
G01X6808Y14572D01*
G01X6824Y14568D01*
G01X6845Y14562D01*
G01X6851Y14560D01*
G01X6861Y14555D01*
G01X6873Y14546D01*
G01X6884Y14539D01*
G01X6894Y14536D01*
G01X6898Y14533D01*
G01X6902Y14529D01*
G01X6909Y14520D01*
G01X6920Y14507D01*
G01X6925Y14501D01*
G01X6937Y14478D01*
G01X6947Y14462D01*
G01X6951Y14451D01*
G01X6957Y14436D01*
G01X6966Y14404D01*
G01X6968Y14394D01*
G01X6969Y14375D01*
G01X6971Y14365D01*
G01X6973Y14356D01*
G01X6974Y14339D01*
G01X6975Y14290D01*
G01Y14275D01*
G01X6974Y14234D01*
G01X6973Y14222D01*
G01X6972Y14219D01*
G01X6970Y14209D01*
G01X6969Y14191D01*
G01X6967Y14180D01*
G01X6963Y14163D01*
G01X6958Y14137D01*
G01X6956Y14130D01*
G01X6953Y14123D01*
G01X6948Y14115D01*
G01X6942Y14103D01*
G01X6934Y14085D01*
G01X6930Y14079D01*
G01X6926Y14074D01*
G01X6912Y14063D01*
G01X6902Y14049D01*
G01X6894Y14042D01*
G01X6864Y14020D01*
G01X6857Y14016D01*
G01X6850Y14013D01*
G01X6843Y14011D01*
G01X6823Y14006D01*
G01X6807Y13998D01*
G01X6795Y13994D01*
G01X6785Y13992D01*
G01X6759Y13988D01*
G01X6751Y13985D01*
G01X6733Y13978D01*
G01X6726Y13975D01*
G01X6717Y13973D01*
G01X6698Y13969D01*
G01X6684Y13966D01*
G01X6670Y13962D01*
G01X6642Y13952D01*
G01X6628Y13949D01*
G01X6594Y13943D01*
G01X6585Y13941D01*
G01X6571Y13935D01*
G01X6559Y13931D01*
G01X6550Y13928D01*
G01X6524Y13924D01*
G01X6516Y13922D01*
G01X6501Y13916D01*
G01X6489Y13912D01*
G01X6480Y13910D01*
G01X6454Y13905D01*
G01X6446Y13902D01*
G01X6431Y13897D01*
G01X6420Y13893D01*
G01X6410Y13890D01*
G01X6384Y13886D01*
G01X6375Y13883D01*
G01X6358Y13876D01*
G01X6350Y13873D01*
G01X6342Y13871D01*
G01X6323Y13868D01*
G01X6309Y13864D01*
G01X6295Y13860D01*
G01X6266Y13851D01*
G01X6253Y13847D01*
G01X6219Y13841D01*
G01X6210Y13839D01*
G01X6196Y13833D01*
G01X6184Y13829D01*
G01X6175Y13827D01*
G01X6149Y13822D01*
G01X6140Y13820D01*
G01X6126Y13814D01*
G01X6114Y13810D01*
G01X6105Y13807D01*
G01X6079Y13803D01*
G01X6070Y13801D01*
G01X6056Y13795D01*
G01X6044Y13791D01*
G01X6035Y13789D01*
G01X6009Y13784D01*
G01X6000Y13782D01*
G01X5986Y13776D01*
G01X5974Y13772D01*
G01X5964Y13769D01*
G01X5939Y13765D01*
G01X5930Y13762D01*
G01X5916Y13757D01*
G01X5904Y13753D01*
G01X5895Y13751D01*
G01X5869Y13746D01*
G01X5860Y13743D01*
G01X5843Y13736D01*
G01X5835Y13733D01*
G01X5826Y13731D01*
G01X5808Y13728D01*
G01X5793Y13724D01*
G01X5779Y13720D01*
G01X5771Y13717D01*
G01X5766Y13712D01*
G01X5763Y13707D01*
G01Y13701D01*
G01X5764Y13700D01*
G01X5766Y13699D01*
G01X5768D01*
G01X5782Y13697D01*
G01X5818Y13694D01*
G01X6355Y13688D01*
G01X6946Y13686D01*
G01X6960Y13685D01*
G01X6975Y13682D01*
G01Y13548D01*
G01Y13444D01*
G01X6973Y13405D01*
G01X6972Y13399D01*
G01X6969Y13383D01*
G01X6339D01*
G01X5732Y13384D01*
G01X5680Y13386D01*
G01X5667Y13388D01*
G01X5656Y13390D01*
G01X5646Y13392D01*
G01X5596Y13415D01*
G01X5580Y13424D01*
G01X5571Y13428D01*
G01X5561Y13433D01*
G01X5557Y13435D01*
G01X5553Y13439D01*
G01X5547Y13448D01*
G01X5539Y13456D01*
G01X5532Y13461D01*
G01X5523Y13468D01*
G01X5518Y13474D01*
G01X5512Y13481D01*
G01X5501Y13497D01*
G01X5492Y13510D01*
G01X5480Y13536D01*
G01X5479Y13537D01*
G01X5478Y13540D01*
G01X5477Y13552D01*
G01X5475Y13573D01*
G01X5474Y13678D01*
G01X4990D01*
G01Y12702D01*
G01X7459D01*
G01Y17780D01*
G37*
G36*
G01X6182Y15588D02*
G01X6177Y15587D01*
G01X6169Y15584D01*
G01X6164Y15581D01*
G01Y15579D01*
G01X6163Y15568D01*
G01X6161Y15428D01*
G01X6162Y15335D01*
G01X6164Y15269D01*
G01Y15263D01*
G01X6165Y15259D01*
G01X6167Y15256D01*
G01X6168Y15254D01*
G01X6173Y15251D01*
G01X6176Y15250D01*
G01X6179D01*
G01X6191Y15252D01*
G01X6205Y15257D01*
G01X6218Y15263D01*
G01X6226Y15265D01*
G01X6235Y15268D01*
G01X6253Y15271D01*
G01X6261Y15274D01*
G01X6269Y15276D01*
G01X6282Y15282D01*
G01X6290Y15285D01*
G01X6298Y15287D01*
G01X6316Y15290D01*
G01X6325Y15292D01*
G01X6332Y15295D01*
G01X6345Y15301D01*
G01X6360Y15306D01*
G01X6385Y15312D01*
G01X6403Y15317D01*
G01X6481Y15343D01*
G01X6503Y15348D01*
G01X6517Y15352D01*
G01X6530Y15358D01*
G01X6538Y15361D01*
G01X6546Y15363D01*
G01X6564Y15367D01*
G01X6573Y15369D01*
G01X6581Y15372D01*
G01X6594Y15378D01*
G01X6608Y15382D01*
G01X6632Y15388D01*
G01X6656Y15395D01*
G01X6686Y15406D01*
G01X6692Y15410D01*
G01X6696Y15414D01*
G01X6697Y15419D01*
G01X6695Y15425D01*
G01X6694Y15428D01*
G01X6692Y15431D01*
G01X6689Y15434D01*
G01X6687Y15436D01*
G01X6684Y15438D01*
G01X6681Y15439D01*
G01X6677Y15440D01*
G01X6665Y15443D01*
G01X6651Y15448D01*
G01X6638Y15454D01*
G01X6630Y15456D01*
G01X6622Y15458D01*
G01X6603Y15462D01*
G01X6595Y15465D01*
G01X6588Y15467D01*
G01X6575Y15473D01*
G01X6560Y15478D01*
G01X6535Y15483D01*
G01X6517Y15489D01*
G01X6439Y15514D01*
G01X6417Y15519D01*
G01X6403Y15524D01*
G01X6390Y15530D01*
G01X6382Y15533D01*
G01X6374Y15535D01*
G01X6356Y15539D01*
G01X6347Y15541D01*
G01X6339Y15543D01*
G01X6326Y15549D01*
G01X6319Y15552D01*
G01X6310Y15554D01*
G01X6292Y15558D01*
G01X6283Y15560D01*
G01X6276Y15563D01*
G01X6263Y15568D01*
G01X6248Y15573D01*
G01X6224Y15579D01*
G01X6197Y15587D01*
G01X6189Y15588D01*
G37*
G04 //text: github.com/*
G36*
G01X9152Y17770D02*
G01X9122Y17769D01*
G01X9114D01*
G01X9111Y17768D01*
G01X9108D01*
G01X9104Y17767D01*
G01X9090D01*
G01X9079Y17766D01*
G01X9069Y17765D01*
G01X9065Y17764D01*
G01X9057Y17763D01*
G01X9042Y17760D01*
G01X9035Y17758D01*
G01X9022Y17754D01*
G01X8989Y17740D01*
G01X8981Y17737D01*
G01X8979Y17735D01*
G01X8975Y17732D01*
G01X8970Y17728D01*
G01X8963Y17725D01*
G01X8960Y17723D01*
G01X8951Y17717D01*
G01X8941Y17708D01*
G01X8936Y17705D01*
G01X8932Y17701D01*
G01X8926Y17694D01*
G01X8919Y17688D01*
G01X8915Y17684D01*
G01X8910Y17677D01*
G01X8905Y17673D01*
G01X8903Y17672D01*
G01X8901Y17670D01*
G01X8899Y17667D01*
G01X8898Y17663D01*
G01X8896Y17661D01*
G01X8895Y17659D01*
G01X8889Y17652D01*
G01X8885Y17645D01*
G01X8881Y17639D01*
G01X8878Y17633D01*
G01X8874Y17623D01*
G01X8871Y17616D01*
G01X8867Y17609D01*
G01X8866Y17606D01*
G01X8864Y17594D01*
G01X8856Y17572D01*
G01X8855Y17564D01*
G01X8854Y17545D01*
G01X8853Y17464D01*
G01Y17438D01*
G01X8987D01*
G01X8988Y17487D01*
G01Y17493D01*
G01Y17495D01*
G01X8989D01*
G01Y17497D01*
G01X8990Y17499D01*
G01Y17511D01*
G01X8991Y17519D01*
G01X8993Y17528D01*
G01X8996Y17539D01*
G01X8998Y17544D01*
G01X8999Y17547D01*
G01X9003Y17553D01*
G01X9006Y17561D01*
G01X9009Y17567D01*
G01X9020Y17582D01*
G01X9022Y17584D01*
G01X9025Y17586D01*
G01X9028Y17589D01*
G01X9032Y17592D01*
G01X9051Y17603D01*
G01X9058Y17607D01*
G01X9067Y17610D01*
G01X9078Y17613D01*
G01X9084Y17615D01*
G01X9090Y17616D01*
G01X9095D01*
G01X9105Y17617D01*
G01X9112D01*
G01X9117Y17619D01*
G01X9123D01*
G01X9146Y17620D01*
G01X9153D01*
G01X9181Y17619D01*
G01X9190D01*
G01X9194Y17617D01*
G01X9200D01*
G01X9210Y17616D01*
G01X9215Y17615D01*
G01X9230Y17610D01*
G01X9237Y17607D01*
G01X9244Y17604D01*
G01X9262Y17593D01*
G01X9266Y17589D01*
G01X9269Y17585D01*
G01X9280Y17568D01*
G01X9282Y17566D01*
G01X9283Y17563D01*
G01X9284Y17559D01*
G01X9287Y17547D01*
G01X9288Y17542D01*
G01X9289Y17539D01*
G01X9290Y17517D01*
G01Y17370D01*
G01X9280Y17368D01*
G01X9263D01*
G01X9132Y17366D01*
G01X8990D01*
G01X8989Y17375D01*
G01X8988Y17378D01*
G01X8987Y17395D01*
G01Y17438D01*
G01X8853D01*
G01Y17366D01*
G01X8820D01*
G01X8799Y17367D01*
G01X8791Y17368D01*
G01X8784Y17369D01*
G01X8780Y17370D01*
G01X8767Y17377D01*
G01X8764Y17379D01*
G01X8761Y17381D01*
G01X8758Y17384D01*
G01X8757Y17388D01*
G01X8756Y17390D01*
G01X8755Y17396D01*
G01X8754Y17444D01*
G01X8753Y17552D01*
G01X8751Y17676D01*
G01X8750Y17695D01*
G01X8749Y17705D01*
G01X8748Y17708D01*
G01X8747Y17709D01*
G01Y17710D01*
G01X8744Y17711D01*
G01X8741D01*
G01X8729Y17712D01*
G01X8688Y17713D01*
G01X8643D01*
G01X8635Y17712D01*
G01X8633D01*
G01X8632Y17708D01*
G01X8631Y17686D01*
G01X8630Y17530D01*
G01X8631Y17349D01*
G01Y17345D01*
G01X8637Y17330D01*
G01X8639Y17323D01*
G01X8643Y17316D01*
G01X8655Y17296D01*
G01X8659Y17291D01*
G01X8665Y17284D01*
G01X8669Y17279D01*
G01X8673Y17275D01*
G01X8680Y17270D01*
G01X8685Y17265D01*
G01X8692Y17260D01*
G01X8707Y17249D01*
G01X8710Y17247D01*
G01X8714Y17245D01*
G01X8724Y17241D01*
G01X8730Y17237D01*
G01X8735Y17235D01*
G01X8738Y17234D01*
G01X8741Y17232D01*
G01X8752Y17230D01*
G01X8761Y17227D01*
G01X8770Y17226D01*
G01X8775Y17225D01*
G01X8782D01*
G01X9084Y17223D01*
G01X9382Y17225D01*
G01X9385D01*
G01X9399Y17230D01*
G01X9402Y17232D01*
G01X9406Y17234D01*
G01X9409Y17238D01*
G01X9412Y17242D01*
G01X9415Y17248D01*
G01X9418Y17254D01*
G01X9420Y17258D01*
G01Y17260D01*
G01X9421Y17267D01*
G01X9423Y17327D01*
G01Y17425D01*
G01X9422Y17583D01*
G01Y17588D01*
G01X9421Y17591D01*
G01X9419Y17600D01*
G01X9417Y17610D01*
G01X9416Y17615D01*
G01X9414Y17622D01*
G01X9411Y17629D01*
G01X9407Y17640D01*
G01X9404Y17647D01*
G01X9401Y17654D01*
G01X9388Y17675D01*
G01X9380Y17685D01*
G01X9372Y17696D01*
G01X9368Y17701D01*
G01X9364Y17705D01*
G01X9357Y17710D01*
G01X9352Y17715D01*
G01X9345Y17720D01*
G01X9330Y17731D01*
G01X9326Y17733D01*
G01X9322Y17735D01*
G01X9313Y17739D01*
G01X9307Y17742D01*
G01X9299Y17746D01*
G01X9292Y17750D01*
G01X9283Y17754D01*
G01X9272Y17757D01*
G01X9263Y17759D01*
G01X9254Y17761D01*
G01X9238Y17763D01*
G01X9232Y17765D01*
G01X9228Y17766D01*
G01X9224D01*
G01X9212Y17767D01*
G01X9202D01*
G01X9195Y17768D01*
G01X9192D01*
G01X9190Y17769D01*
G01X9184D01*
G37*
G36*
G01X8853Y17153D02*
G01X8853Y17020D01*
G01X9423D01*
G01Y17153D01*
G37*
G36*
G01X9567Y17153D02*
G01X9517Y17153D01*
G01X9510Y17152D01*
G01X9509D01*
G01X9508D01*
G01Y17150D01*
G01X9507Y17142D01*
G01Y17087D01*
G01Y17024D01*
G01X9515Y17022D01*
G01X9518Y17021D01*
G01X9536D01*
G01X9580Y17020D01*
G01X9637D01*
G01X9638Y17028D01*
G01X9639Y17031D01*
G01X9640Y17049D01*
G01Y17150D01*
G01X9632Y17152D01*
G01X9629D01*
G01X9611Y17153D01*
G37*
G36*
G01X9348Y16957D02*
G01X9323Y16956D01*
G01X9311Y16955D01*
G01X9304D01*
G01X9298Y16953D01*
G01X9295Y16952D01*
G01X9294Y16951D01*
G01X9293Y16950D01*
G01X9292Y16948D01*
G01Y16945D01*
G01X9291Y16937D01*
G01X9290Y16918D01*
G01Y16910D01*
G01Y16877D01*
G01X9111D01*
G01X8933Y16875D01*
G01X8929D01*
G01X8926Y16874D01*
G01X8918Y16873D01*
G01X8909Y16871D01*
G01X8905Y16870D01*
G01X8901Y16868D01*
G01X8896Y16863D01*
G01X8884Y16855D01*
G01X8881Y16852D01*
G01X8878Y16849D01*
G01X8867Y16832D01*
G01X8863Y16825D01*
G01X8859Y16817D01*
G01X8857Y16815D01*
G01Y16813D01*
G01X8856Y16807D01*
G01X8855Y16793D01*
G01X8853Y16739D01*
G01Y16630D01*
G01X8862Y16628D01*
G01X8865D01*
G01X8882Y16627D01*
G01X8925D01*
G01X8953D01*
G01X8971Y16629D01*
G01X8977Y16630D01*
G01X8980Y16631D01*
G01X8982Y16632D01*
G01X8983Y16633D01*
G01X8984Y16635D01*
G01X8985Y16639D01*
G01X8986Y16650D01*
G01X8987Y16688D01*
G01Y16737D01*
G01X8997Y16739D01*
G01X9013D01*
G01X9145Y16740D01*
G01X9287D01*
G01X9288Y16731D01*
G01X9289Y16729D01*
G01Y16720D01*
G01X9290Y16678D01*
G01Y16656D01*
G01X9291Y16647D01*
G01X9293Y16635D01*
G01X9294Y16633D01*
G01X9295Y16631D01*
G01X9296Y16630D01*
G01X9297D01*
G01X9303Y16628D01*
G01X9316Y16627D01*
G01X9361D01*
G01X9420D01*
G01X9422Y16635D01*
G01Y16638D01*
G01X9423Y16647D01*
G01Y16688D01*
G01X9424Y16710D01*
G01Y16720D01*
G01X9425Y16726D01*
G01X9427Y16731D01*
G01X9428Y16734D01*
G01Y16735D01*
G01X9429Y16736D01*
G01Y16737D01*
G01X9430D01*
G01X9433Y16738D01*
G01X9438D01*
G01X9453Y16739D01*
G01X9508Y16740D01*
G01X9580D01*
G01X9582Y16748D01*
G01Y16751D01*
G01X9583Y16769D01*
G01Y16815D01*
G01Y16873D01*
G01X9572Y16875D01*
G01X9568D01*
G01X9546Y16876D01*
G01X9494Y16877D01*
G01X9426D01*
G01X9425Y16888D01*
G01X9424Y16895D01*
G01X9423Y16914D01*
G01Y16953D01*
G01X9412Y16955D01*
G01X9406Y16956D01*
G01X9377Y16957D01*
G37*
G36*
G01X8853Y16553D02*
G01X8853Y16420D01*
G01X9052D01*
G01X9234Y16418D01*
G01X9250Y16417D01*
G01X9256Y16416D01*
G01X9258D01*
G01Y16415D01*
G01X9262Y16412D01*
G01X9267Y16409D01*
G01X9269Y16406D01*
G01X9277Y16395D01*
G01X9280Y16389D01*
G01X9283Y16380D01*
G01X9285Y16375D01*
G01X9286Y16369D01*
G01X9288Y16359D01*
G01Y16355D01*
G01X9289Y16342D01*
G01X9290Y16310D01*
G01X9289Y16285D01*
G01Y16277D01*
G01X9287Y16272D01*
G01X9286Y16265D01*
G01X9284Y16255D01*
G01X9283Y16251D01*
G01X9282Y16247D01*
G01X9276Y16234D01*
G01X9272Y16224D01*
G01X9266Y16216D01*
G01X9263Y16212D01*
G01X9260Y16208D01*
G01X9256Y16204D01*
G01X9248Y16198D01*
G01X9232Y16190D01*
G01X9227Y16188D01*
G01X9222Y16187D01*
G01X9216Y16186D01*
G01X9209Y16185D01*
G01X9197Y16184D01*
G01X9025Y16183D01*
G01X8856D01*
G01X8855Y16175D01*
G01X8854Y16172D01*
G01Y16154D01*
G01X8853Y16108D01*
G01Y16050D01*
G01X8865Y16048D01*
G01X8871D01*
G01X9073Y16047D01*
G01X9271Y16048D01*
G01X9275D01*
G01X9281Y16050D01*
G01X9288D01*
G01X9292D01*
G01X9295Y16051D01*
G01X9298Y16053D01*
G01X9307Y16056D01*
G01X9317Y16059D01*
G01X9322Y16062D01*
G01X9330Y16067D01*
G01X9340Y16072D01*
G01X9344Y16074D01*
G01X9352Y16080D01*
G01X9359Y16086D01*
G01X9362Y16090D01*
G01X9365Y16094D01*
G01X9369Y16098D01*
G01X9376Y16104D01*
G01X9380Y16108D01*
G01X9385Y16115D01*
G01X9388Y16119D01*
G01X9390Y16121D01*
G01X9395Y16128D01*
G01X9399Y16135D01*
G01X9402Y16141D01*
G01X9406Y16151D01*
G01X9409Y16157D01*
G01X9412Y16161D01*
G01X9413Y16164D01*
G01X9414Y16168D01*
G01X9417Y16179D01*
G01X9419Y16188D01*
G01X9421Y16196D01*
G01X9422Y16202D01*
G01Y16206D01*
G01X9423Y16281D01*
G01Y16420D01*
G01X9637D01*
G01X9638Y16428D01*
G01X9639Y16431D01*
G01X9640Y16449D01*
G01Y16550D01*
G01X9632Y16552D01*
G01X9624D01*
G01X9238Y16553D01*
G37*
G36*
G01X9185Y15974D02*
G01X8962Y15972D01*
G01X8959D01*
G01X8939Y15965D01*
G01X8934Y15962D01*
G01X8931Y15961D01*
G01X8928Y15958D01*
G01X8921Y15953D01*
G01X8917Y15950D01*
G01X8911Y15943D01*
G01X8907Y15939D01*
G01X8903Y15935D01*
G01X8899Y15930D01*
G01X8894Y15922D01*
G01X8891Y15917D01*
G01X8886Y15910D01*
G01X8884Y15906D01*
G01X8882Y15902D01*
G01X8875Y15887D01*
G01X8871Y15878D01*
G01X8867Y15867D01*
G01X8864Y15857D01*
G01X8860Y15841D01*
G01X8857Y15832D01*
G01X8856Y15824D01*
G01X8855Y15818D01*
G01X8852Y15798D01*
G01X8848Y15782D01*
G01Y15779D01*
G01X8847Y15770D01*
G01Y15730D01*
G01Y15692D01*
G01X8848Y15683D01*
G01Y15682D01*
G01X8849Y15679D01*
G01X8850Y15671D01*
G01Y15658D01*
G01X8851Y15653D01*
G01X8852Y15648D01*
G01X8854Y15639D01*
G01X8856Y15622D01*
G01X8859Y15615D01*
G01X8870Y15580D01*
G01X8873Y15573D01*
G01X8876Y15566D01*
G01X8880Y15559D01*
G01X8885Y15548D01*
G01X8887Y15543D01*
G01X8889Y15541D01*
G01X8895Y15534D01*
G01X8904Y15522D01*
G01X8910Y15514D01*
G01X8915Y15510D01*
G01X8918Y15508D01*
G01X8926Y15503D01*
G01X8929Y15501D01*
G01X8932Y15499D01*
G01X8938Y15495D01*
G01X8942Y15493D01*
G01X8948Y15491D01*
G01X8954Y15489D01*
G01X8959Y15488D01*
G01X8960D01*
G01X9095Y15487D01*
G01X9423D01*
G01Y15616D01*
G01X9415Y15618D01*
G01X9413D01*
G01X9361Y15619D01*
G01X9215Y15620D01*
G01X9039Y15623D01*
G01X9023Y15624D01*
G01X9017Y15625D01*
G01X9015D01*
G01X9013Y15626D01*
G01X9009Y15629D01*
G01X9006Y15632D01*
G01X9004Y15635D01*
G01X9000Y15643D01*
G01X8995Y15651D01*
G01X8994Y15654D01*
G01X8993Y15658D01*
G01X8991Y15666D01*
G01X8988Y15673D01*
G01X8985Y15680D01*
G01X8984Y15684D01*
G01X8983Y15688D01*
G01Y15696D01*
G01X8982Y15702D01*
G01X8981Y15706D01*
G01X8980Y15714D01*
G01Y15733D01*
G01Y15750D01*
G01X8981Y15759D01*
G01X8982Y15765D01*
G01X8984Y15773D01*
G01X8986Y15784D01*
G01X8987Y15789D01*
G01X8989Y15795D01*
G01X8994Y15806D01*
G01X8998Y15816D01*
G01X9000Y15819D01*
G01X9005Y15823D01*
G01X9009Y15827D01*
G01X9013Y15832D01*
G01X9014D01*
G01X9018Y15833D01*
G01X9027Y15834D01*
G01X9111Y15836D01*
G01X9218Y15837D01*
G01X9420D01*
G01X9422Y15845D01*
G01Y15848D01*
G01X9423Y15866D01*
G01Y15912D01*
G01Y15970D01*
G01X9415Y15972D01*
G01X9413D01*
G01X9302Y15973D01*
G37*
G36*
G01X9236Y15400D02*
G01X8857Y15398D01*
G01X8855D01*
G01Y15397D01*
G01X8854Y15385D01*
G01X8853Y15203D01*
G01Y15180D01*
G01X8987D01*
G01X8988Y15251D01*
G01Y15257D01*
G01Y15258D01*
G01X8989D01*
G01X8991Y15260D01*
G01X8995Y15262D01*
G01X8996D01*
G01X9006D01*
G01X9143Y15263D01*
G01X9287D01*
G01X9288Y15255D01*
G01X9289Y15252D01*
G01X9290Y15218D01*
G01Y15170D01*
G01X9289Y15096D01*
G01Y15089D01*
G01X9288D01*
G01X9287Y15086D01*
G01X9286Y15077D01*
G01X9284Y15066D01*
G01X9283Y15061D01*
G01X9281Y15055D01*
G01X9274Y15040D01*
G01X9269Y15033D01*
G01X9263Y15025D01*
G01X9260Y15021D01*
G01X9257Y15018D01*
G01X9253Y15014D01*
G01X9240Y15005D01*
G01X9236Y15003D01*
G01X9232Y15000D01*
G01X9228Y14998D01*
G01X9214Y14993D01*
G01X9205Y14989D01*
G01X9202Y14988D01*
G01X9198Y14987D01*
G01X9195D01*
G01X9187D01*
G01X9182Y14985D01*
G01X9179Y14984D01*
G01X9171Y14983D01*
G01X9158D01*
G01X9149Y14981D01*
G01X9144Y14980D01*
G01X9130D01*
G01X9119D01*
G01X9114D01*
G01X9109Y14981D01*
G01X9105Y14982D01*
G01X9099Y14983D01*
G01X9088Y14984D01*
G01X9083D01*
G01X9076Y14987D01*
G01X9064Y14989D01*
G01X9059Y14991D01*
G01X9056Y14993D01*
G01X9050Y14997D01*
G01X9040Y15002D01*
G01X9036Y15004D01*
G01X9028Y15010D01*
G01X9025Y15013D01*
G01X9021Y15016D01*
G01X9018Y15021D01*
G01X9006Y15037D01*
G01X9004Y15040D01*
G01X9002Y15044D01*
G01X9000Y15048D01*
G01X8997Y15058D01*
G01X8993Y15068D01*
G01X8991Y15076D01*
G01Y15081D01*
G01X8990Y15090D01*
G01X8989Y15096D01*
G01X8988Y15101D01*
G01X8987Y15121D01*
G01Y15180D01*
G01X8853D01*
G01X8854Y15009D01*
G01X8855Y15005D01*
G01X8860Y14990D01*
G01X8863Y14983D01*
G01X8866Y14976D01*
G01X8870Y14970D01*
G01X8875Y14960D01*
G01X8877Y14956D01*
G01X8883Y14948D01*
G01X8892Y14938D01*
G01X8895Y14933D01*
G01X8899Y14929D01*
G01X8906Y14923D01*
G01X8910Y14918D01*
G01X8912Y14916D01*
G01X8917Y14912D01*
G01X8926Y14907D01*
G01X8932Y14902D01*
G01X8935Y14900D01*
G01X8942Y14895D01*
G01X8948Y14892D01*
G01X8954Y14888D01*
G01X8964Y14884D01*
G01X8970Y14881D01*
G01X8974Y14878D01*
G01X8978Y14877D01*
G01X8987Y14873D01*
G01X8996Y14870D01*
G01X9007Y14865D01*
G01X9011Y14864D01*
G01X9015Y14863D01*
G01X9029Y14860D01*
G01X9041Y14856D01*
G01X9048Y14855D01*
G01X9091Y14848D01*
G01X9107Y14847D01*
G01X9149D01*
G01X9196D01*
G01X9203Y14848D01*
G01X9208Y14849D01*
G01X9214Y14850D01*
G01X9223D01*
G01X9231Y14852D01*
G01X9241Y14854D01*
G01X9258Y14856D01*
G01X9265Y14858D01*
G01X9309Y14873D01*
G01X9330Y14883D01*
G01X9336Y14886D01*
G01X9352Y14897D01*
G01X9361Y14904D01*
G01X9369Y14910D01*
G01X9372Y14913D01*
G01X9376Y14917D01*
G01X9379Y14921D01*
G01X9383Y14925D01*
G01X9387Y14929D01*
G01X9389Y14931D01*
G01X9393Y14938D01*
G01X9396Y14943D01*
G01X9401Y14950D01*
G01X9403Y14954D01*
G01X9405Y14958D01*
G01X9412Y14973D01*
G01X9416Y14982D01*
G01X9417Y14987D01*
G01X9420Y15005D01*
G01X9422Y15012D01*
G01Y15015D01*
G01X9423Y15108D01*
G01Y15137D01*
G01X9425Y15226D01*
G01X9426Y15244D01*
G01X9427Y15251D01*
G01X9428Y15256D01*
G01Y15258D01*
G01X9429Y15259D01*
G01Y15260D01*
G01X9430D01*
G01X9433Y15261D01*
G01X9448Y15262D01*
G01X9537Y15263D01*
G01X9637D01*
G01X9638Y15271D01*
G01X9639Y15275D01*
G01X9640Y15292D01*
G01Y15396D01*
G01X9628Y15398D01*
G01X9611Y15399D01*
G37*
G36*
G01X8853Y14787D02*
G01X8853Y14640D01*
G01X8865Y14639D01*
G01X8871Y14638D01*
G01X8909Y14637D01*
G01X8935Y14636D01*
G01X8966Y14638D01*
G01X8978D01*
G01X8985Y14639D01*
G01X8991Y14640D01*
G01X8994Y14641D01*
G01X8995Y14642D01*
G01X8996Y14643D01*
G01X8997D01*
G01X8998Y14646D01*
G01Y14650D01*
G01X8999Y14665D01*
G01X9000Y14717D01*
G01Y14783D01*
G01X8992Y14785D01*
G01X8989D01*
G01X8969Y14786D01*
G01X8918Y14787D01*
G37*
G36*
G01X9135Y14567D02*
G01X9066Y14566D01*
G01X9060Y14565D01*
G01X9058D01*
G01X9056Y14564D01*
G01X9048Y14562D01*
G01X9038Y14561D01*
G01X9034Y14560D01*
G01X9030Y14558D01*
G01X9023Y14555D01*
G01X9016Y14553D01*
G01X9008Y14551D01*
G01X9003Y14549D01*
G01X9000Y14548D01*
G01X8993Y14544D01*
G01X8981Y14538D01*
G01X8976Y14536D01*
G01X8974Y14534D01*
G01X8969Y14530D01*
G01X8956Y14522D01*
G01X8951Y14518D01*
G01X8944Y14512D01*
G01X8939Y14508D01*
G01X8935Y14504D01*
G01X8930Y14497D01*
G01X8923Y14492D01*
G01X8918Y14488D01*
G01X8913Y14481D01*
G01X8908Y14475D01*
G01X8903Y14468D01*
G01X8893Y14453D01*
G01X8891Y14450D01*
G01X8888Y14445D01*
G01X8883Y14435D01*
G01X8882Y14432D01*
G01X8880Y14430D01*
G01X8878Y14428D01*
G01X8877Y14426D01*
G01X8876Y14423D01*
G01X8873Y14414D01*
G01X8870Y14408D01*
G01X8869Y14406D01*
G01X8867Y14402D01*
G01X8866Y14399D01*
G01X8864Y14388D01*
G01X8860Y14376D01*
G01X8856Y14360D01*
G01X8855Y14357D01*
G01X8854Y14354D01*
G01X8853Y14223D01*
G01Y14093D01*
G01X8862Y14092D01*
G01X8865Y14091D01*
G01X8882Y14090D01*
G01X8925D01*
G01X8953D01*
G01X8965Y14091D01*
G01X8977Y14093D01*
G01X8982Y14095D01*
G01X8983Y14096D01*
G01X8984Y14098D01*
G01Y14100D01*
G01X8985Y14107D01*
G01X8987Y14159D01*
G01Y14223D01*
G01X8988Y14342D01*
G01Y14347D01*
G01X8989Y14348D01*
G01X8990Y14354D01*
G01X8993Y14366D01*
G01X8995Y14371D01*
G01X8996Y14374D01*
G01X9000Y14380D01*
G01X9005Y14390D01*
G01X9007Y14393D01*
G01X9009Y14395D01*
G01X9014Y14398D01*
G01X9022Y14407D01*
G01X9024Y14409D01*
G01X9027Y14411D01*
G01X9036Y14417D01*
G01X9044Y14422D01*
G01X9048Y14423D01*
G01X9057Y14427D01*
G01X9066Y14430D01*
G01X9094Y14435D01*
G01X9102Y14436D01*
G01X9140Y14437D01*
G01X9175Y14436D01*
G01X9183Y14435D01*
G01X9185D01*
G01X9188Y14434D01*
G01X9195Y14432D01*
G01X9205Y14431D01*
G01X9209Y14430D01*
G01X9213Y14428D01*
G01X9226Y14423D01*
G01X9235Y14418D01*
G01X9239Y14416D01*
G01X9242Y14414D01*
G01X9244Y14411D01*
G01X9245Y14409D01*
G01X9247Y14407D01*
G01X9249Y14406D01*
G01X9254Y14404D01*
G01X9258Y14401D01*
G01X9263Y14394D01*
G01X9268Y14388D01*
G01X9270Y14386D01*
G01X9275Y14378D01*
G01X9277Y14374D01*
G01X9279Y14370D01*
G01X9281Y14366D01*
G01X9283Y14354D01*
G01X9287Y14342D01*
G01X9289Y14334D01*
G01Y14324D01*
G01X9290Y14212D01*
G01X9291Y14128D01*
G01X9293Y14110D01*
G01X9294Y14103D01*
G01X9295Y14098D01*
G01Y14095D01*
G01X9296Y14094D01*
G01Y14093D01*
G01X9297D01*
G01X9299Y14092D01*
G01X9303D01*
G01X9316Y14091D01*
G01X9360Y14090D01*
G01X9395Y14091D01*
G01X9407D01*
G01X9415Y14093D01*
G01X9418D01*
G01X9419Y14094D01*
G01X9420D01*
G01Y14095D01*
G01X9421Y14098D01*
G01X9422Y14115D01*
G01X9423Y14221D01*
G01X9422Y14342D01*
G01Y14347D01*
G01Y14348D01*
G01X9421Y14351D01*
G01X9420Y14358D01*
G01X9419Y14369D01*
G01Y14374D01*
G01X9417Y14378D01*
G01X9416Y14386D01*
G01X9413Y14399D01*
G01X9407Y14420D01*
G01X9404Y14429D01*
G01X9396Y14445D01*
G01X9391Y14456D01*
G01X9389Y14460D01*
G01X9387Y14463D01*
G01X9380Y14474D01*
G01X9372Y14487D01*
G01X9368Y14492D01*
G01X9361Y14499D01*
G01X9358Y14504D01*
G01X9355Y14506D01*
G01X9352Y14509D01*
G01X9345Y14514D01*
G01X9340Y14518D01*
G01X9338Y14521D01*
G01X9335Y14524D01*
G01X9333Y14526D01*
G01X9331Y14527D01*
G01X9326Y14529D01*
G01X9321Y14532D01*
G01X9313Y14537D01*
G01X9299Y14543D01*
G01X9293Y14546D01*
G01X9286Y14550D01*
G01X9282Y14551D01*
G01X9271Y14553D01*
G01X9248Y14560D01*
G01X9243Y14561D01*
G01X9237Y14562D01*
G01X9232Y14563D01*
G01X9222D01*
G01X9215Y14564D01*
G01X9212Y14565D01*
G01X9210D01*
G01X9190Y14566D01*
G37*
G36*
G01X9147Y14017D02*
G01X9031Y14016D01*
G01X9026Y14015D01*
G01X9025D01*
G01X9022Y14014D01*
G01X9014D01*
G01X9001Y14013D01*
G01X8996Y14012D01*
G01X8992Y14011D01*
G01X8984Y14009D01*
G01X8975Y14008D01*
G01X8971Y14006D01*
G01X8967Y14005D01*
G01X8957Y14000D01*
G01X8947Y13997D01*
G01X8941Y13995D01*
G01X8933Y13990D01*
G01X8923Y13985D01*
G01X8919Y13983D01*
G01X8912Y13977D01*
G01X8901Y13968D01*
G01X8896Y13965D01*
G01X8894Y13962D01*
G01X8892Y13960D01*
G01X8886Y13951D01*
G01X8884Y13948D01*
G01X8881Y13945D01*
G01X8880Y13942D01*
G01X8875Y13935D01*
G01X8869Y13923D01*
G01X8867Y13918D01*
G01X8856Y13892D01*
G01Y13890D01*
G01X8855Y13884D01*
G01X8854Y13839D01*
G01X8853Y13742D01*
G01X8987D01*
G01X8988Y13811D01*
G01Y13817D01*
G01Y13818D01*
G01X8989D01*
G01X8990Y13821D01*
G01Y13830D01*
G01X8991Y13833D01*
G01X8992Y13836D01*
G01X8997Y13844D01*
G01X9002Y13853D01*
G01X9006Y13859D01*
G01X9008Y13862D01*
G01X9014Y13867D01*
G01X9024Y13873D01*
G01X9032Y13878D01*
G01X9039Y13880D01*
G01X9045Y13881D01*
G01X9052Y13882D01*
G01X9060D01*
G01X9155Y13883D01*
G01X9242Y13882D01*
G01X9248D01*
G01X9251Y13881D01*
G01X9254Y13879D01*
G01X9262Y13875D01*
G01X9265Y13872D01*
G01X9269Y13869D01*
G01X9272Y13866D01*
G01X9274Y13863D01*
G01X9277Y13857D01*
G01X9282Y13849D01*
G01X9283Y13846D01*
G01X9284Y13842D01*
G01X9287Y13831D01*
G01X9288Y13825D01*
G01X9289Y13823D01*
G01X9290Y13800D01*
G01Y13737D01*
G01X9289Y13656D01*
G01Y13649D01*
G01X9288Y13648D01*
G01X9283Y13633D01*
G01X9281Y13627D01*
G01X9278Y13619D01*
G01X9270Y13608D01*
G01X9268Y13606D01*
G01X9265Y13603D01*
G01X9262Y13601D01*
G01X9258Y13598D01*
G01X9250Y13594D01*
G01X9246Y13593D01*
G01X9242Y13592D01*
G01X9232Y13591D01*
G01X9137Y13590D01*
G01X9051Y13592D01*
G01X9040D01*
G01X9035Y13593D01*
G01X9034D01*
G01X9033Y13594D01*
G01X9027Y13597D01*
G01X9019Y13602D01*
G01X9015Y13606D01*
G01X9005Y13620D01*
G01X9003Y13624D01*
G01X9000Y13627D01*
G01X8998Y13631D01*
G01X8997Y13635D01*
G01X8993Y13644D01*
G01X8990Y13655D01*
G01X8989Y13662D01*
G01X8988Y13677D01*
G01X8987Y13742D01*
G01X8853D01*
G01Y13740D01*
G01X8854Y13597D01*
G01X8855Y13592D01*
G01X8856Y13588D01*
G01X8860Y13567D01*
G01X8861Y13562D01*
G01X8863Y13555D01*
G01X8866Y13547D01*
G01X8869Y13538D01*
G01X8870Y13535D01*
G01X8872Y13532D01*
G01X8883Y13515D01*
G01X8887Y13510D01*
G01X8894Y13505D01*
G01X8898Y13501D01*
G01X8902Y13496D01*
G01X8907Y13492D01*
G01X8916Y13487D01*
G01X8925Y13482D01*
G01X8928Y13480D01*
G01X8946Y13472D01*
G01X8956Y13468D01*
G01X8960Y13467D01*
G01X8978Y13464D01*
G01X8988Y13461D01*
G01X8998Y13459D01*
G01X9005Y13458D01*
G01X9035Y13455D01*
G01X9044Y13454D01*
G01X9167Y13453D01*
G01X9282Y13454D01*
G01X9288Y13455D01*
G01X9291Y13456D01*
G01X9298Y13457D01*
G01X9308Y13459D01*
G01X9313Y13460D01*
G01X9320Y13464D01*
G01X9333Y13470D01*
G01X9340Y13473D01*
G01X9355Y13483D01*
G01X9364Y13490D01*
G01X9372Y13497D01*
G01X9376Y13500D01*
G01X9379Y13504D01*
G01X9387Y13514D01*
G01X9394Y13524D01*
G01X9399Y13532D01*
G01X9408Y13548D01*
G01X9410Y13551D01*
G01X9411Y13554D01*
G01X9413Y13563D01*
G01X9415Y13570D01*
G01X9418Y13577D01*
G01X9419Y13582D01*
G01X9421Y13588D01*
G01X9422Y13595D01*
G01Y13605D01*
G01X9423Y13743D01*
G01X9422Y13876D01*
G01Y13881D01*
G01X9420Y13888D01*
G01X9417Y13899D01*
G01X9415Y13907D01*
G01X9409Y13919D01*
G01X9405Y13929D01*
G01X9403Y13933D01*
G01X9401Y13936D01*
G01X9390Y13952D01*
G01X9386Y13956D01*
G01X9379Y13962D01*
G01X9375Y13966D01*
G01X9370Y13973D01*
G01X9365Y13977D01*
G01X9346Y13990D01*
G01X9339Y13995D01*
G01X9335Y13997D01*
G01X9330Y13999D01*
G01X9327Y14000D01*
G01X9317Y14004D01*
G01X9308Y14008D01*
G01X9301Y14010D01*
G01X9295Y14011D01*
G01X9276Y14013D01*
G01X9269Y14015D01*
G01X9268D01*
G01X9265D01*
G01X9174Y14017D01*
G37*
G36*
G01X8853Y13373D02*
G01X8853Y13240D01*
G01X9065D01*
G01X9261Y13237D01*
G01X9277Y13236D01*
G01X9283Y13235D01*
G01X9284D01*
G01X9285D01*
G01X9289Y13232D01*
G01X9294Y13228D01*
G01X9297Y13225D01*
G01X9298Y13223D01*
G01X9299Y13221D01*
G01X9300Y13217D01*
G01X9301Y13211D01*
G01X9302Y13194D01*
G01X9304Y13157D01*
G01X9302Y13110D01*
G01X9301Y13099D01*
G01Y13093D01*
G01X9300Y13091D01*
G01X9291Y13071D01*
G01X9290Y13068D01*
G01X9285Y13063D01*
G01X9281Y13060D01*
G01X9277Y13055D01*
G01X9275Y13053D01*
G01X9273Y13051D01*
G01X9270Y13050D01*
G01X9266Y13048D01*
G01X9255Y13045D01*
G01X9254D01*
G01X9233Y13044D01*
G01X9054Y13043D01*
G01X8856D01*
G01X8855Y13035D01*
G01X8854Y13032D01*
G01Y13014D01*
G01X8853Y12968D01*
G01Y12910D01*
G01X8862Y12908D01*
G01X8864D01*
G01X8917Y12907D01*
G01X9065D01*
G01X9253Y12905D01*
G01X9262Y12904D01*
G01X9265D01*
G01X9266Y12903D01*
G01X9273Y12900D01*
G01X9281Y12895D01*
G01X9285Y12891D01*
G01X9287Y12888D01*
G01X9293Y12878D01*
G01X9297Y12872D01*
G01X9300Y12864D01*
G01X9301Y12861D01*
G01Y12856D01*
G01X9302Y12845D01*
G01X9304Y12808D01*
G01X9302Y12776D01*
G01Y12766D01*
G01X9301Y12760D01*
G01X9300Y12757D01*
G01X9298Y12753D01*
G01X9296Y12747D01*
G01X9294Y12740D01*
G01X9291Y12735D01*
G01X9286Y12731D01*
G01X9284Y12729D01*
G01X9283Y12727D01*
G01X9281Y12723D01*
G01X9279Y12720D01*
G01X9277Y12718D01*
G01X9270Y12715D01*
G01X9265Y12712D01*
G01X9263Y12710D01*
G01X9261Y12708D01*
G01X9258Y12707D01*
G01X9255Y12705D01*
G01X9250Y12704D01*
G01X9248Y12703D01*
G01X9240Y12702D01*
G01X9093Y12700D01*
G01X8856D01*
G01X8855Y12692D01*
G01X8854Y12689D01*
G01Y12671D01*
G01X8853Y12625D01*
G01Y12567D01*
G01X8862Y12565D01*
G01X8864D01*
G01X8917Y12564D01*
G01X9067Y12563D01*
G01X9264Y12564D01*
G01X9268Y12565D01*
G01X9285Y12570D01*
G01X9293Y12572D01*
G01X9299Y12575D01*
G01X9304Y12577D01*
G01X9317Y12583D01*
G01X9327Y12589D01*
G01X9346Y12603D01*
G01X9352Y12609D01*
G01X9358Y12613D01*
G01X9361Y12615D01*
G01X9363Y12618D01*
G01X9366Y12621D01*
G01X9371Y12629D01*
G01X9375Y12633D01*
G01X9377Y12636D01*
G01X9381Y12639D01*
G01X9384Y12643D01*
G01X9386Y12648D01*
G01X9389Y12653D01*
G01X9394Y12660D01*
G01X9396Y12664D01*
G01X9398Y12667D01*
G01X9403Y12678D01*
G01X9406Y12684D01*
G01X9408Y12688D01*
G01X9410Y12691D01*
G01X9413Y12700D01*
G01X9416Y12708D01*
G01X9417Y12715D01*
G01X9420Y12729D01*
G01X9422Y12735D01*
G01Y12737D01*
G01X9423Y12757D01*
G01Y12813D01*
G01X9422Y12883D01*
G01Y12891D01*
G01Y12892D01*
G01X9417Y12905D01*
G01X9412Y12916D01*
G01X9408Y12924D01*
G01X9406Y12927D01*
G01X9400Y12935D01*
G01X9393Y12943D01*
G01X9388Y12948D01*
G01X9382Y12953D01*
G01X9379Y12955D01*
G01X9375Y12960D01*
G01X9373Y12965D01*
G01X9372Y12968D01*
G01Y12971D01*
G01Y12972D01*
G01X9373Y12974D01*
G01Y12975D01*
G01X9377Y12979D01*
G01X9382Y12983D01*
G01X9384Y12985D01*
G01X9388Y12990D01*
G01X9393Y12999D01*
G01X9399Y13005D01*
G01X9401Y13008D01*
G01X9405Y13015D01*
G01X9409Y13021D01*
G01X9412Y13028D01*
G01X9413Y13032D01*
G01X9420Y13051D01*
G01X9422Y13060D01*
G01Y13075D01*
G01X9423Y13197D01*
G01X9422Y13316D01*
G01X9421Y13326D01*
G01X9420Y13330D01*
G01Y13331D01*
G01X9417Y13337D01*
G01X9412Y13347D01*
G01X9410Y13349D01*
G01X9408Y13351D01*
G01X9401Y13357D01*
G01X9395Y13362D01*
G01X9390Y13365D01*
G01X9383Y13368D01*
G01X9376Y13371D01*
G01X9370Y13372D01*
G01X9108Y13373D01*
G37*
G36*
G01X8855Y12517D02*
G01X8854Y12516D01*
G01Y12506D01*
G01X8853Y12443D01*
G01X8854Y12400D01*
G01X8855Y12384D01*
G01X8856Y12377D01*
G01X8857Y12371D01*
G01X8859Y12369D01*
G01Y12368D01*
G01Y12367D01*
G01X8860D01*
G01X8866Y12363D01*
G01X8874Y12358D01*
G01X8877Y12357D01*
G01X8889Y12352D01*
G01X8894Y12349D01*
G01X8896Y12347D01*
G01X8899Y12345D01*
G01X8914Y12337D01*
G01X8920Y12334D01*
G01X8935Y12325D01*
G01X8941Y12322D01*
G01X8947Y12318D01*
G01X8956Y12315D01*
G01X8960Y12313D01*
G01X8963Y12311D01*
G01X8970Y12306D01*
G01X8977Y12302D01*
G01X8986Y12298D01*
G01X8990Y12296D01*
G01X8993Y12294D01*
G01X9000Y12289D01*
G01X9004Y12287D01*
G01X9008Y12285D01*
G01X9018Y12281D01*
G01X9024Y12277D01*
G01X9038Y12268D01*
G01X9044Y12265D01*
G01X9051Y12262D01*
G01X9059Y12258D01*
G01X9063Y12256D01*
G01X9067Y12254D01*
G01X9073Y12249D01*
G01X9077Y12247D01*
G01X9081Y12245D01*
G01X9091Y12241D01*
G01X9097Y12238D01*
G01X9111Y12229D01*
G01X9118Y12225D01*
G01X9124Y12222D01*
G01X9132Y12218D01*
G01X9136Y12216D01*
G01X9140Y12214D01*
G01X9147Y12209D01*
G01X9151Y12207D01*
G01X9154Y12205D01*
G01X9164Y12201D01*
G01X9170Y12198D01*
G01X9185Y12188D01*
G01X9191Y12185D01*
G01X9197Y12182D01*
G01X9206Y12178D01*
G01X9213Y12174D01*
G01X9220Y12169D01*
G01X9224Y12167D01*
G01X9228Y12165D01*
G01X9236Y12162D01*
G01X9243Y12157D01*
G01X9250Y12152D01*
G01X9254Y12150D01*
G01X9258Y12148D01*
G01X9267Y12144D01*
G01X9274Y12141D01*
G01X9288Y12132D01*
G01X9294Y12128D01*
G01X9301Y12125D01*
G01X9309Y12121D01*
G01X9313Y12119D01*
G01X9317Y12117D01*
G01X9323Y12113D01*
G01X9327Y12110D01*
G01X9331Y12109D01*
G01X9341Y12104D01*
G01X9347Y12101D01*
G01X9361Y12092D01*
G01X9368Y12088D01*
G01X9374Y12085D01*
G01X9382Y12082D01*
G01X9386Y12080D01*
G01X9390Y12077D01*
G01X9397Y12073D01*
G01X9404Y12069D01*
G01X9414Y12064D01*
G01X9420Y12061D01*
G01X9435Y12052D01*
G01X9441Y12048D01*
G01X9447Y12045D01*
G01X9455Y12042D01*
G01X9460Y12039D01*
G01X9463Y12038D01*
G01X9466Y12035D01*
G01X9471Y12031D01*
G01X9481Y12027D01*
G01X9487Y12024D01*
G01X9502Y12015D01*
G01X9508Y12012D01*
G01X9514Y12009D01*
G01X9522Y12005D01*
G01X9526Y12003D01*
G01X9530Y12000D01*
G01X9537Y11996D01*
G01X9540Y11994D01*
G01X9544Y11992D01*
G01X9554Y11987D01*
G01X9561Y11984D01*
G01X9575Y11975D01*
G01X9581Y11972D01*
G01X9587Y11968D01*
G01X9596Y11965D01*
G01X9600Y11963D01*
G01X9603Y11961D01*
G01X9610Y11956D01*
G01X9617Y11952D01*
G01X9631Y11946D01*
G01X9633Y11945D01*
G01X9636Y11946D01*
G01X9638Y11952D01*
G01X9639Y11955D01*
G01X9640Y11974D01*
G01Y12023D01*
G01X9639Y12065D01*
G01X9638Y12077D01*
G01X9637Y12085D01*
G01X9636Y12087D01*
G01Y12089D01*
G01X9635Y12090D01*
G01X9629Y12095D01*
G01X9625Y12099D01*
G01X9619Y12102D01*
G01X9609Y12106D01*
G01X9603Y12109D01*
G01X9589Y12118D01*
G01X9582Y12122D01*
G01X9576Y12125D01*
G01X9568Y12129D01*
G01X9564Y12131D01*
G01X9560Y12133D01*
G01X9553Y12138D01*
G01X9549Y12140D01*
G01X9546Y12142D01*
G01X9536Y12146D01*
G01X9530Y12149D01*
G01X9515Y12158D01*
G01X9509Y12162D01*
G01X9503Y12165D01*
G01X9495Y12169D01*
G01X9490Y12171D01*
G01X9487Y12173D01*
G01X9480Y12177D01*
G01X9476Y12180D01*
G01X9472Y12181D01*
G01X9464Y12185D01*
G01X9460Y12187D01*
G01X9457Y12189D01*
G01X9450Y12194D01*
G01X9446Y12196D01*
G01X9442Y12198D01*
G01X9433Y12203D01*
G01X9426Y12206D01*
G01X9412Y12215D01*
G01X9406Y12218D01*
G01X9399Y12221D01*
G01X9391Y12225D01*
G01X9387Y12227D01*
G01X9383Y12229D01*
G01X9377Y12234D01*
G01X9373Y12236D01*
G01X9369Y12238D01*
G01X9359Y12242D01*
G01X9353Y12246D01*
G01X9339Y12255D01*
G01X9332Y12259D01*
G01X9326Y12262D01*
G01X9318Y12265D01*
G01X9314Y12267D01*
G01X9310Y12269D01*
G01X9303Y12274D01*
G01X9296Y12278D01*
G01X9286Y12282D01*
G01X9280Y12286D01*
G01X9265Y12295D01*
G01X9259Y12299D01*
G01X9253Y12302D01*
G01X9244Y12305D01*
G01X9237Y12309D01*
G01X9230Y12314D01*
G01X9226Y12316D01*
G01X9222Y12318D01*
G01X9214Y12322D01*
G01X9211Y12324D01*
G01X9207Y12326D01*
G01X9200Y12331D01*
G01X9196Y12333D01*
G01X9192Y12335D01*
G01X9183Y12339D01*
G01X9177Y12342D01*
G01X9162Y12352D01*
G01X9155Y12355D01*
G01X9149Y12358D01*
G01X9141Y12362D01*
G01X9137Y12364D01*
G01X9133Y12366D01*
G01X9127Y12371D01*
G01X9123Y12373D01*
G01X9119Y12375D01*
G01X9109Y12379D01*
G01X9103Y12383D01*
G01X9088Y12392D01*
G01X9082Y12395D01*
G01X9076Y12398D01*
G01X9068Y12402D01*
G01X9064Y12404D01*
G01X9060Y12406D01*
G01X9053Y12411D01*
G01X9046Y12415D01*
G01X9036Y12419D01*
G01X9030Y12423D01*
G01X9015Y12432D01*
G01X9009Y12435D01*
G01X9002Y12438D01*
G01X8994Y12442D01*
G01X8987Y12446D01*
G01X8980Y12451D01*
G01X8976Y12453D01*
G01X8972Y12455D01*
G01X8964Y12458D01*
G01X8961Y12460D01*
G01X8957Y12463D01*
G01X8950Y12467D01*
G01X8946Y12469D01*
G01X8942Y12471D01*
G01X8933Y12476D01*
G01X8926Y12479D01*
G01X8912Y12488D01*
G01X8905Y12492D01*
G01X8899Y12495D01*
G01X8891Y12498D01*
G01X8887Y12500D01*
G01X8883Y12502D01*
G01X8877Y12507D01*
G01X8873Y12510D01*
G01X8869Y12512D01*
G01X8865Y12514D01*
G01X8856Y12517D01*
G37*
G04 //text: /ripinteer/*
G36*
G01X7772Y17567D02*
G01X7771Y17566D01*
G01Y17557D01*
G01X7770Y17500D01*
G01X7771Y17460D01*
G01X7772Y17446D01*
G01X7773Y17440D01*
G01X7774Y17435D01*
G01X7775Y17433D01*
G01Y17432D01*
G01Y17431D01*
G01X7776D01*
G01Y17430D01*
G01X7782Y17427D01*
G01X7792Y17421D01*
G01X7802Y17417D01*
G01X7807Y17415D01*
G01X7809Y17413D01*
G01X7812Y17411D01*
G01X7817Y17408D01*
G01X7826Y17404D01*
G01X7831Y17401D01*
G01X7845Y17393D01*
G01X7850Y17389D01*
G01X7856Y17387D01*
G01X7863Y17384D01*
G01X7870Y17380D01*
G01X7877Y17375D01*
G01X7880Y17374D01*
G01X7883Y17372D01*
G01X7891Y17369D01*
G01X7894Y17366D01*
G01X7903Y17360D01*
G01X7911Y17356D01*
G01X7920Y17353D01*
G01X7925Y17350D01*
G01X7939Y17341D01*
G01X7950Y17335D01*
G01X7957Y17332D01*
G01X7961Y17330D01*
G01X7964Y17328D01*
G01X7971Y17324D01*
G01X7974Y17322D01*
G01X7977Y17320D01*
G01X7986Y17316D01*
G01X7992Y17313D01*
G01X8005Y17305D01*
G01X8011Y17301D01*
G01X8017Y17299D01*
G01X8024Y17296D01*
G01X8031Y17292D01*
G01X8037Y17287D01*
G01X8040Y17286D01*
G01X8044Y17284D01*
G01X8053Y17280D01*
G01X8058Y17277D01*
G01X8072Y17268D01*
G01X8078Y17265D01*
G01X8083Y17262D01*
G01X8090Y17259D01*
G01X8098Y17255D01*
G01X8104Y17251D01*
G01X8111Y17247D01*
G01X8121Y17243D01*
G01X8125Y17241D01*
G01X8131Y17236D01*
G01X8134Y17234D01*
G01X8138Y17232D01*
G01X8147Y17228D01*
G01X8152Y17225D01*
G01X8166Y17217D01*
G01X8171Y17214D01*
G01X8177Y17211D01*
G01X8184Y17208D01*
G01X8192Y17204D01*
G01X8198Y17199D01*
G01X8201Y17198D01*
G01X8205Y17196D01*
G01X8213Y17192D01*
G01X8219Y17189D01*
G01X8233Y17181D01*
G01X8244Y17174D01*
G01X8251Y17171D01*
G01X8255Y17169D01*
G01X8264Y17163D01*
G01X8271Y17159D01*
G01X8280Y17156D01*
G01X8286Y17153D01*
G01X8299Y17144D01*
G01X8305Y17141D01*
G01X8310Y17138D01*
G01X8317Y17135D01*
G01X8322Y17133D01*
G01X8324Y17131D01*
G01X8327Y17129D01*
G01X8332Y17126D01*
G01X8341Y17122D01*
G01X8346Y17119D01*
G01X8360Y17111D01*
G01X8371Y17105D01*
G01X8378Y17102D01*
G01X8386Y17098D01*
G01X8395Y17092D01*
G01X8398Y17090D01*
G01X8407Y17086D01*
G01X8413Y17083D01*
G01X8426Y17074D01*
G01X8432Y17071D01*
G01X8438Y17068D01*
G01X8449Y17064D01*
G01X8452Y17062D01*
G01X8458Y17057D01*
G01X8462Y17055D01*
G01X8465Y17054D01*
G01X8478Y17048D01*
G01X8480Y17047D01*
G01X8482Y17048D01*
G01X8484Y17053D01*
G01Y17056D01*
G01X8485Y17073D01*
G01X8486Y17119D01*
G01X8485Y17156D01*
G01X8484Y17167D01*
G01X8483Y17174D01*
G01X8482Y17177D01*
G01Y17178D01*
G01Y17179D01*
G01X8481D01*
G01X8475Y17184D01*
G01X8471Y17187D01*
G01X8466Y17190D01*
G01X8458Y17193D01*
G01X8452Y17196D01*
G01X8438Y17205D01*
G01X8433Y17208D01*
G01X8427Y17211D01*
G01X8420Y17214D01*
G01X8416Y17216D01*
G01X8413Y17218D01*
G01X8406Y17222D01*
G01X8403Y17224D01*
G01X8400Y17226D01*
G01X8391Y17230D01*
G01X8385Y17233D01*
G01X8372Y17241D01*
G01X8366Y17245D01*
G01X8361Y17247D01*
G01X8353Y17250D01*
G01X8346Y17254D01*
G01X8337Y17260D01*
G01X8333Y17262D01*
G01X8326Y17265D01*
G01X8322Y17267D01*
G01X8319Y17269D01*
G01X8312Y17274D01*
G01X8309Y17276D01*
G01X8306Y17278D01*
G01X8297Y17281D01*
G01X8291Y17284D01*
G01X8278Y17293D01*
G01X8272Y17296D01*
G01X8267Y17298D01*
G01X8259Y17302D01*
G01X8256Y17303D01*
G01X8252Y17306D01*
G01X8246Y17310D01*
G01X8243Y17312D01*
G01X8239Y17314D01*
G01X8230Y17318D01*
G01X8225Y17321D01*
G01X8211Y17329D01*
G01X8206Y17332D01*
G01X8200Y17335D01*
G01X8193Y17338D01*
G01X8185Y17342D01*
G01X8179Y17346D01*
G01X8176Y17348D01*
G01X8173Y17350D01*
G01X8164Y17354D01*
G01X8158Y17357D01*
G01X8145Y17365D01*
G01X8139Y17369D01*
G01X8133Y17372D01*
G01X8125Y17375D01*
G01X8122Y17377D01*
G01X8119Y17378D01*
G01X8113Y17383D01*
G01X8109Y17385D01*
G01X8106Y17386D01*
G01X8099Y17390D01*
G01X8095Y17391D01*
G01X8091Y17393D01*
G01X8085Y17398D01*
G01X8082Y17400D01*
G01X8079Y17402D01*
G01X8070Y17406D01*
G01X8064Y17409D01*
G01X8051Y17417D01*
G01X8045Y17420D01*
G01X8039Y17423D01*
G01X8032Y17426D01*
G01X8025Y17430D01*
G01X8019Y17434D01*
G01X8012Y17438D01*
G01X8003Y17442D01*
G01X7997Y17445D01*
G01X7984Y17453D01*
G01X7973Y17459D01*
G01X7965Y17463D01*
G01X7961Y17465D01*
G01X7958Y17466D01*
G01X7952Y17471D01*
G01X7949Y17473D01*
G01X7945Y17474D01*
G01X7936Y17478D01*
G01X7930Y17481D01*
G01X7917Y17489D01*
G01X7912Y17493D01*
G01X7906Y17496D01*
G01X7898Y17499D01*
G01X7895Y17501D01*
G01X7892Y17503D01*
G01X7885Y17507D01*
G01X7882Y17509D01*
G01X7879Y17511D01*
G01X7871Y17514D01*
G01X7867Y17516D01*
G01X7858Y17522D01*
G01X7851Y17526D01*
G01X7843Y17530D01*
G01X7836Y17533D01*
G01X7823Y17541D01*
G01X7812Y17547D01*
G01X7804Y17550D01*
G01X7801Y17552D01*
G01X7798Y17554D01*
G01X7791Y17559D01*
G01X7788Y17561D01*
G01X7785Y17562D01*
G01X7781Y17564D01*
G01X7773Y17567D01*
G01X7772D01*
G37*
G36*
G01X7969Y17003D02*
G01X7775Y17002D01*
G01X7772D01*
G01X7771Y17000D01*
G01Y16992D01*
G01X7770Y16937D01*
G01Y16873D01*
G01X7778Y16872D01*
G01X7780Y16871D01*
G01X7827Y16870D01*
G01X7960D01*
G01X8119Y16868D01*
G01X8134Y16867D01*
G01X8140Y16866D01*
G01X8141D01*
G01X8153Y16858D01*
G01X8156Y16856D01*
G01X8158Y16854D01*
G01X8161Y16849D01*
G01X8164Y16843D01*
G01X8166Y16838D01*
G01Y16836D01*
G01X8167Y16828D01*
G01Y16782D01*
G01X8168Y16750D01*
G01X8169Y16740D01*
G01X8170Y16732D01*
G01X8171Y16729D01*
G01Y16728D01*
G01X8172D01*
G01Y16727D01*
G01X8174D01*
G01X8177Y16726D01*
G01X8189Y16725D01*
G01X8231Y16724D01*
G01X8285D01*
G01X8287Y16732D01*
G01X8288Y16735D01*
G01Y16770D01*
G01X8289Y16818D01*
G01X8288Y16895D01*
G01X8287Y16901D01*
G01Y16902D01*
G01X8282Y16915D01*
G01X8280Y16921D01*
G01X8277Y16928D01*
G01X8273Y16934D01*
G01X8269Y16943D01*
G01X8267Y16946D01*
G01X8261Y16953D01*
G01X8258Y16957D01*
G01X8252Y16963D01*
G01X8248Y16966D01*
G01X8245Y16969D01*
G01X8241Y16974D01*
G01X8239Y16976D01*
G01X8237Y16977D01*
G01X8228Y16982D01*
G01X8221Y16987D01*
G01X8218Y16988D01*
G01X8201Y16996D01*
G01X8194Y16999D01*
G01X8189Y17000D01*
G01X8184Y17001D01*
G01X8178Y17002D01*
G01X8167D01*
G37*
G36*
G01X8023Y16673D02*
G01X7774Y16672D01*
G01X7772D01*
G01X7771Y16670D01*
G01Y16662D01*
G01X7770Y16611D01*
G01Y16552D01*
G01X7778Y16550D01*
G01X7780D01*
G01X8036Y16549D01*
G01X8285D01*
G01X8288Y16559D01*
G01Y16575D01*
G01X8289Y16617D01*
G01Y16670D01*
G01X8281Y16672D01*
G01X8279D01*
G37*
G36*
G01X8417Y16673D02*
G01X8376Y16673D01*
G01X8369Y16672D01*
G01X8367D01*
G01X8366Y16667D01*
G01X8365Y16656D01*
G01X8364Y16611D01*
G01Y16552D01*
G01X8372Y16550D01*
G01X8374D01*
G01X8390Y16549D01*
G01X8431D01*
G01X8483D01*
G01X8484Y16556D01*
G01Y16559D01*
G01X8485Y16575D01*
G01X8486Y16617D01*
G01Y16670D01*
G01X8475Y16672D01*
G01X8469D01*
G01X8443Y16673D01*
G37*
G36*
G01X7929Y16467D02*
G01X7586Y16466D01*
G01X7584Y16465D01*
G01X7583Y16464D01*
G01Y16456D01*
G01X7582Y16405D01*
G01Y16346D01*
G01X7591Y16344D01*
G01X7599Y16343D01*
G01X7681D01*
G01X7737Y16342D01*
G01X7752Y16340D01*
G01X7758D01*
G01X7763Y16339D01*
G01X7765Y16338D01*
G01X7766D01*
G01X7767Y16337D01*
G01X7768Y16334D01*
G01Y16330D01*
G01X7770Y16304D01*
G01Y16270D01*
G01X7891D01*
G01X7892Y16332D01*
G01X7893Y16337D01*
G01Y16338D01*
G01X7895Y16340D01*
G01X7899Y16341D01*
G01X7900D01*
G01X7909Y16342D01*
G01X8034Y16343D01*
G01X8164D01*
G01X8166Y16335D01*
G01Y16332D01*
G01X8167Y16301D01*
G01Y16258D01*
G01X8166Y16200D01*
G01Y16189D01*
G01X8165Y16184D01*
G01Y16182D01*
G01X8164D01*
G01X8161Y16176D01*
G01X8158Y16172D01*
G01X8152Y16163D01*
G01X8143Y16152D01*
G01X8139Y16150D01*
G01X8131Y16144D01*
G01X8125Y16141D01*
G01X8123Y16138D01*
G01X8118Y16135D01*
G01X8109Y16132D01*
G01X8103Y16128D01*
G01X8101Y16127D01*
G01X8098Y16125D01*
G01X8093Y16124D01*
G01X8084Y16123D01*
G01X8075Y16122D01*
G01X8020Y16121D01*
G01X7982Y16122D01*
G01X7973Y16123D01*
G01X7967Y16124D01*
G01X7965D01*
G01X7961Y16126D01*
G01X7949Y16130D01*
G01X7945Y16132D01*
G01X7933Y16140D01*
G01X7923Y16146D01*
G01X7919Y16150D01*
G01X7917Y16152D01*
G01X7914Y16155D01*
G01X7911Y16159D01*
G01X7906Y16163D01*
G01X7904Y16164D01*
G01X7903Y16166D01*
G01X7901Y16171D01*
G01X7899Y16175D01*
G01X7895Y16183D01*
G01X7893Y16193D01*
G01Y16196D01*
G01X7892Y16222D01*
G01X7891Y16270D01*
G01X7770D01*
G01Y16260D01*
G01X7771Y16190D01*
G01Y16184D01*
G01X7772D01*
G01Y16181D01*
G01X7774Y16173D01*
G01X7775Y16164D01*
G01X7777Y16159D01*
G01X7778Y16153D01*
G01X7782Y16145D01*
G01X7784Y16138D01*
G01X7785Y16135D01*
G01X7787Y16130D01*
G01X7788Y16127D01*
G01X7792Y16121D01*
G01X7796Y16110D01*
G01X7798Y16106D01*
G01X7800Y16104D01*
G01X7804Y16099D01*
G01X7811Y16089D01*
G01X7814Y16085D01*
G01X7816Y16083D01*
G01X7820Y16080D01*
G01X7823Y16077D01*
G01X7828Y16071D01*
G01X7832Y16067D01*
G01X7838Y16062D01*
G01X7846Y16056D01*
G01X7858Y16047D01*
G01X7861Y16045D01*
G01X7865Y16043D01*
G01X7868Y16041D01*
G01X7877Y16038D01*
G01X7883Y16035D01*
G01X7889Y16030D01*
G01X7896Y16027D01*
G01X7911Y16022D01*
G01X7913Y16021D01*
G01X7932Y16015D01*
G01X7941Y16013D01*
G01X7948Y16012D01*
G01X7977Y16007D01*
G01X7985D01*
G01X7991Y16006D01*
G01X7996Y16005D01*
G01X7998D01*
G01X8005Y16004D01*
G01X8043D01*
G01X8081D01*
G01X8089Y16005D01*
G01X8092Y16006D01*
G01X8098D01*
G01X8106Y16007D01*
G01X8114Y16009D01*
G01X8121Y16010D01*
G01X8136Y16012D01*
G01X8142Y16014D01*
G01X8173Y16024D01*
G01X8179Y16027D01*
G01X8186Y16030D01*
G01X8192Y16033D01*
G01X8202Y16039D01*
G01X8207Y16042D01*
G01X8220Y16052D01*
G01X8233Y16061D01*
G01X8236Y16064D01*
G01X8239Y16068D01*
G01X8242Y16071D01*
G01X8248Y16080D01*
G01X8251Y16084D01*
G01X8256Y16089D01*
G01X8260Y16095D01*
G01X8270Y16113D01*
G01X8273Y16120D01*
G01X8278Y16135D01*
G01X8281Y16144D01*
G01X8283Y16151D01*
G01X8287Y16175D01*
G01Y16176D01*
G01X8288Y16199D01*
G01X8289Y16323D01*
G01Y16464D01*
G01X8281Y16465D01*
G01X8274Y16466D01*
G37*
G36*
G01X8023Y15949D02*
G01X7774Y15948D01*
G01X7772Y15947D01*
G01X7771Y15946D01*
G01Y15938D01*
G01X7770Y15887D01*
G01Y15828D01*
G01X7781Y15826D01*
G01X7787D01*
G01X8037Y15825D01*
G01X8267Y15827D01*
G01X8279Y15828D01*
G01X8284D01*
G01X8285Y15829D01*
G01X8286Y15831D01*
G01X8287Y15834D01*
G01X8288Y15847D01*
G01X8289Y15890D01*
G01Y15946D01*
G01X8281Y15947D01*
G01X8279Y15948D01*
G37*
G36*
G01X8419Y15949D02*
G01X8373Y15948D01*
G01X8367D01*
G01X8366D01*
G01Y15947D01*
G01X8365Y15946D01*
G01Y15938D01*
G01X8364Y15888D01*
G01Y15831D01*
G01X8374Y15827D01*
G01X8378Y15826D01*
G01X8390Y15825D01*
G01X8428D01*
G01X8458D01*
G01X8468Y15826D01*
G01X8476Y15827D01*
G01X8479Y15828D01*
G01X8480D01*
G01X8481Y15829D01*
G01X8482Y15831D01*
G01X8483Y15834D01*
G01X8484Y15840D01*
G01X8485Y15855D01*
G01X8486Y15890D01*
G01Y15946D01*
G01X8475Y15948D01*
G01X8459D01*
G37*
G36*
G01X8011Y15743D02*
G01X7804Y15740D01*
G01X7791Y15739D01*
G01X7786D01*
G01X7785Y15738D01*
G01X7784D01*
G01X7774Y15731D01*
G01X7773D01*
G01X7772Y15729D01*
G01Y15726D01*
G01X7771Y15717D01*
G01X7770Y15680D01*
G01X7771Y15654D01*
G01Y15643D01*
G01X7772Y15638D01*
G01X7773Y15633D01*
G01X7774Y15631D01*
G01X7779Y15628D01*
G01X7783Y15625D01*
G01X7784Y15623D01*
G01X7786Y15622D01*
G01X7789D01*
G01X7794D01*
G01X7800Y15620D01*
G01X7802D01*
G01X7803D01*
G01X7822Y15619D01*
G01X7985Y15618D01*
G01X8146Y15616D01*
G01X8160Y15615D01*
G01X8165D01*
G01X8167Y15614D01*
G01X8170Y15610D01*
G01X8173Y15606D01*
G01X8175Y15604D01*
G01X8176Y15601D01*
G01X8177Y15598D01*
G01X8178Y15593D01*
G01Y15587D01*
G01X8179Y15551D01*
G01Y15526D01*
G01Y15473D01*
G01X8178Y15467D01*
G01X8177Y15463D01*
G01X8176Y15456D01*
G01X8174Y15447D01*
G01X8173Y15443D01*
G01X8172Y15440D01*
G01X8166Y15428D01*
G01X8162Y15421D01*
G01X8159Y15418D01*
G01X8156Y15415D01*
G01X8152Y15412D01*
G01X8139Y15403D01*
G01X8136Y15402D01*
G01X8133Y15401D01*
G01X8128Y15400D01*
G01X8123Y15399D01*
G01X8102Y15396D01*
G01X8097Y15395D01*
G01X7931Y15394D01*
G01X7770D01*
G01Y15273D01*
G01X7958D01*
G01X8147Y15274D01*
G01X8150Y15275D01*
G01X8156Y15276D01*
G01X8167Y15279D01*
G01X8173Y15281D01*
G01X8184Y15286D01*
G01X8194Y15290D01*
G01X8197Y15291D01*
G01X8201Y15293D01*
G01X8210Y15300D01*
G01X8221Y15307D01*
G01X8225Y15311D01*
G01X8227Y15313D01*
G01X8230Y15316D01*
G01X8233Y15320D01*
G01X8240Y15325D01*
G01X8245Y15331D01*
G01X8248Y15335D01*
G01X8252Y15338D01*
G01X8254Y15340D01*
G01X8256Y15342D01*
G01X8258Y15347D01*
G01X8261Y15352D01*
G01X8265Y15358D01*
G01X8269Y15365D01*
G01X8273Y15374D01*
G01X8276Y15379D01*
G01X8278Y15383D01*
G01X8279Y15386D01*
G01X8280Y15389D01*
G01X8282Y15400D01*
G01X8285Y15410D01*
G01X8287Y15417D01*
G01Y15418D01*
G01X8288Y15434D01*
G01X8289Y15558D01*
G01X8287Y15683D01*
G01X8286Y15693D01*
G01Y15696D01*
G01X8285Y15697D01*
G01X8279Y15709D01*
G01X8276Y15714D01*
G01X8274Y15718D01*
G01X8269Y15722D01*
G01X8263Y15728D01*
G01X8259Y15730D01*
G01X8255Y15733D01*
G01X8251Y15735D01*
G01X8247Y15737D01*
G01X8235Y15741D01*
G01X8234D01*
G01X8162Y15742D01*
G37*
G36*
G01X8224Y15219D02*
G01X8198Y15218D01*
G01X8187Y15217D01*
G01X8181D01*
G01X8176Y15215D01*
G01X8173D01*
G01X8172Y15214D01*
G01X8171Y15213D01*
G01X8170D01*
G01Y15211D01*
G01X8169Y15204D01*
G01X8168Y15196D01*
G01X8167Y15178D01*
G01Y15149D01*
G01X8159Y15147D01*
G01X8158D01*
G01X8124Y15146D01*
G01X7993D01*
G01X7834Y15144D01*
G01X7830D01*
G01X7829D01*
G01X7817Y15139D01*
G01X7811Y15137D01*
G01X7808Y15135D01*
G01X7805Y15132D01*
G01X7799Y15128D01*
G01X7795Y15124D01*
G01X7792Y15120D01*
G01X7782Y15106D01*
G01X7780Y15102D01*
G01X7776Y15095D01*
G01X7775Y15093D01*
G01X7774Y15089D01*
G01X7773Y15083D01*
G01X7772Y15070D01*
G01X7770Y15011D01*
G01Y14921D01*
G01X7781Y14920D01*
G01X7786Y14919D01*
G01X7812Y14918D01*
G01X7837D01*
G01X7863Y14919D01*
G01X7873Y14920D01*
G01X7879D01*
G01X7884Y14921D01*
G01X7886Y14922D01*
G01X7887Y14923D01*
G01X7888Y14925D01*
G01X7889Y14928D01*
G01X7890Y14932D01*
G01X7891Y14945D01*
G01Y14973D01*
G01Y15019D01*
G01X7900Y15020D01*
G01X7916Y15021D01*
G01X8036Y15022D01*
G01X8164D01*
G01X8166Y15011D01*
G01X8167Y15004D01*
G01Y14965D01*
G01Y14925D01*
G01X8175Y14921D01*
G01X8177D01*
G01X8181Y14920D01*
G01X8193Y14919D01*
G01X8233Y14918D01*
G01X8262Y14919D01*
G01X8273Y14920D01*
G01X8280Y14921D01*
G01X8283D01*
G01X8284Y14922D01*
G01X8285Y14923D01*
G01X8287Y14928D01*
G01X8288Y14937D01*
G01X8289Y14997D01*
G01X8290Y15007D01*
G01X8291Y15013D01*
G01X8292Y15016D01*
G01Y15017D01*
G01X8293Y15019D01*
G01X8295D01*
G01X8299Y15020D01*
G01X8313Y15021D01*
G01X8364Y15022D01*
G01X8431D01*
G01X8433Y15032D01*
G01Y15048D01*
G01X8434Y15090D01*
G01Y15142D01*
G01X8424Y15144D01*
G01X8405Y15146D01*
G01X8292D01*
G01X8290Y15156D01*
G01Y15162D01*
G01X8289Y15180D01*
G01Y15216D01*
G01X8281Y15217D01*
G01X8278D01*
G01X8263Y15218D01*
G37*
G36*
G01X8011Y14879D02*
G01X7972Y14878D01*
G01X7964D01*
G01X7960Y14877D01*
G01X7954Y14876D01*
G01X7944D01*
G01X7940Y14875D01*
G01X7936Y14874D01*
G01X7929Y14872D01*
G01X7917Y14870D01*
G01X7897Y14864D01*
G01X7891Y14862D01*
G01X7885Y14858D01*
G01X7879Y14855D01*
G01X7868Y14850D01*
G01X7864Y14848D01*
G01X7860Y14845D01*
G01X7847Y14835D01*
G01X7843Y14832D01*
G01X7838Y14828D01*
G01X7833Y14822D01*
G01X7829Y14818D01*
G01X7827Y14817D01*
G01X7825Y14815D01*
G01X7823Y14812D01*
G01X7819Y14804D01*
G01X7817Y14801D01*
G01X7814Y14799D01*
G01X7811Y14794D01*
G01X7806Y14785D01*
G01X7802Y14778D01*
G01X7800Y14775D01*
G01X7798Y14767D01*
G01X7795Y14758D01*
G01X7790Y14749D01*
G01X7789Y14745D01*
G01X7788Y14741D01*
G01X7786Y14728D01*
G01X7783Y14718D01*
G01X7781Y14711D01*
G01X7778Y14696D01*
G01X7773Y14666D01*
G01X7772Y14661D01*
G01X7771Y14660D01*
G01Y14650D01*
G01X7770Y14530D01*
G01Y14406D01*
G01X7781Y14405D01*
G01X7786Y14404D01*
G01X7813Y14403D01*
G01X7838D01*
G01X7861Y14404D01*
G01X7873Y14405D01*
G01X7879D01*
G01X7884Y14407D01*
G01X7887D01*
G01X7888Y14409D01*
G01X7889Y14410D01*
G01Y14413D01*
G01X7890Y14426D01*
G01X7891Y14547D01*
G01X7893Y14679D01*
G01Y14683D01*
G01X7894Y14689D01*
G01X7897Y14699D01*
G01X7898Y14704D01*
G01X7900Y14707D01*
G01X7903Y14713D01*
G01X7909Y14721D01*
G01X7911Y14725D01*
G01X7916Y14732D01*
G01X7919Y14736D01*
G01X7923Y14740D01*
G01X7926Y14742D01*
G01X7933Y14746D01*
G01X7941Y14750D01*
G01X7945Y14751D01*
G01X7949Y14752D01*
G01X7954Y14753D01*
G01X7960Y14754D01*
G01X7964Y14753D01*
G01X7965D01*
G01X7967Y14752D01*
G01Y14751D01*
G01X7968Y14748D01*
G01X7969Y14723D01*
G01X7970Y14621D01*
G01X8088D01*
G01X8089Y14745D01*
G01X8090Y14750D01*
G01X8092Y14752D01*
G01X8096Y14753D01*
G01X8099Y14754D01*
G01X8105D01*
G01X8108Y14753D01*
G01X8112Y14752D01*
G01X8116Y14751D01*
G01X8119Y14749D01*
G01X8130Y14743D01*
G01X8134Y14739D01*
G01X8137Y14735D01*
G01X8149Y14718D01*
G01X8153Y14711D01*
G01X8156Y14707D01*
G01X8158Y14703D01*
G01X8159Y14698D01*
G01X8164Y14686D01*
G01X8169Y14676D01*
G01X8170Y14672D01*
G01X8171Y14669D01*
G01X8173Y14656D01*
G01X8176Y14645D01*
G01X8178Y14638D01*
G01X8179Y14632D01*
G01Y14627D01*
G01X8180Y14616D01*
G01Y14612D01*
G01X8181Y14608D01*
G01X8182Y14605D01*
G01X8181Y14600D01*
G01X8180Y14586D01*
G01X8179Y14574D01*
G01X8178Y14568D01*
G01X8177Y14563D01*
G01X8176Y14556D01*
G01X8174Y14548D01*
G01X8173Y14544D01*
G01X8172Y14540D01*
G01X8167Y14528D01*
G01X8163Y14520D01*
G01X8161Y14515D01*
G01X8159Y14513D01*
G01X8153Y14507D01*
G01X8150Y14502D01*
G01X8147Y14499D01*
G01X8133Y14489D01*
G01X8122Y14484D01*
G01X8112Y14481D01*
G01X8107Y14480D01*
G01X8103Y14479D01*
G01X8098D01*
G01X8095Y14480D01*
G01X8094D01*
G01X8093Y14481D01*
G01X8091Y14483D01*
G01X8090Y14485D01*
G01Y14487D01*
G01Y14488D01*
G01X8089Y14503D01*
G01X8088Y14621D01*
G01X7970D01*
G01X7971Y14559D01*
G01X7973Y14397D01*
G01X7974Y14378D01*
G01X7975Y14371D01*
G01X7976Y14368D01*
G01Y14367D01*
G01X7979Y14366D01*
G01X7983D01*
G01X7997Y14365D01*
G01X8046Y14364D01*
G01X8107Y14365D01*
G01X8113D01*
G01X8117Y14366D01*
G01X8123Y14367D01*
G01X8133D01*
G01X8137Y14368D01*
G01X8153Y14373D01*
G01X8173Y14379D01*
G01X8179Y14381D01*
G01X8186Y14385D01*
G01X8192Y14388D01*
G01X8203Y14393D01*
G01X8206Y14395D01*
G01X8210Y14399D01*
G01X8211Y14401D01*
G01X8213Y14402D01*
G01X8215Y14404D01*
G01X8219Y14406D01*
G01X8221Y14407D01*
G01X8223Y14409D01*
G01X8230Y14417D01*
G01X8235Y14420D01*
G01X8237Y14422D01*
G01X8238Y14425D01*
G01X8243Y14433D01*
G01X8245Y14436D01*
G01X8248Y14438D01*
G01X8249Y14441D01*
G01X8253Y14447D01*
G01X8257Y14453D01*
G01X8260Y14459D01*
G01X8264Y14468D01*
G01X8267Y14473D01*
G01X8269Y14477D01*
G01X8271Y14483D01*
G01X8275Y14497D01*
G01X8278Y14504D01*
G01X8279Y14508D01*
G01X8280Y14513D01*
G01X8282Y14529D01*
G01X8284Y14537D01*
G01X8285Y14543D01*
G01X8286Y14551D01*
G01X8287Y14556D01*
G01X8288Y14558D01*
G01Y14565D01*
G01X8289Y14605D01*
G01X8288Y14644D01*
G01X8287Y14652D01*
G01X8286Y14656D01*
G01X8285Y14661D01*
G01Y14670D01*
G01X8283Y14677D01*
G01X8281Y14685D01*
G01X8280Y14695D01*
G01X8279Y14699D01*
G01X8277Y14705D01*
G01X8274Y14713D01*
G01X8271Y14724D01*
G01X8269Y14730D01*
G01X8264Y14742D01*
G01X8259Y14752D01*
G01X8256Y14758D01*
G01X8252Y14765D01*
G01X8247Y14773D01*
G01X8245Y14776D01*
G01X8240Y14784D01*
G01X8233Y14793D01*
G01X8229Y14798D01*
G01X8226Y14802D01*
G01X8219Y14807D01*
G01X8214Y14813D01*
G01X8210Y14817D01*
G01X8200Y14824D01*
G01X8196Y14828D01*
G01X8188Y14833D01*
G01X8166Y14847D01*
G01X8154Y14853D01*
G01X8150Y14855D01*
G01X8136Y14861D01*
G01X8127Y14864D01*
G01X8117Y14867D01*
G01X8109Y14869D01*
G01X8102Y14871D01*
G01X8087Y14873D01*
G01X8079Y14875D01*
G01X8073Y14876D01*
G01X8065D01*
G01X8060Y14877D01*
G01X8058Y14878D01*
G01X8051D01*
G37*
G36*
G01X8010Y14318D02*
G01X7985Y14318D01*
G01X7977Y14317D01*
G01X7972Y14316D01*
G01X7965Y14315D01*
G01X7953D01*
G01X7949Y14314D01*
G01X7945Y14313D01*
G01X7936Y14312D01*
G01X7925Y14310D01*
G01X7920Y14309D01*
G01X7914Y14307D01*
G01X7907Y14304D01*
G01X7895Y14301D01*
G01X7889Y14299D01*
G01X7867Y14288D01*
G01X7854Y14279D01*
G01X7848Y14274D01*
G01X7840Y14268D01*
G01X7836Y14265D01*
G01X7832Y14262D01*
G01X7825Y14251D01*
G01X7822Y14247D01*
G01X7816Y14240D01*
G01X7811Y14232D01*
G01X7808Y14227D01*
G01X7805Y14221D01*
G01X7801Y14212D01*
G01X7798Y14206D01*
G01X7795Y14199D01*
G01X7792Y14191D01*
G01X7786Y14172D01*
G01X7782Y14155D01*
G01X7780Y14141D01*
G01X7777Y14133D01*
G01X7776Y14127D01*
G01Y14119D01*
G01X7774Y14111D01*
G01X7773Y14105D01*
G01Y14097D01*
G01Y14094D01*
G01X7772D01*
G01Y14093D01*
G01X7771Y14090D01*
G01X7770Y13968D01*
G01Y13846D01*
G01X7778Y13844D01*
G01X7781D01*
G01X7796Y13843D01*
G01X7835Y13842D01*
G01X7861Y13843D01*
G01X7878Y13845D01*
G01X7883Y13846D01*
G01X7886Y13847D01*
G01X7887Y13848D01*
G01X7888D01*
G01Y13849D01*
G01X7889Y13850D01*
G01Y13852D01*
G01X7890Y13865D01*
G01X7891Y13987D01*
G01X7893Y14118D01*
G01Y14123D01*
G01X7897Y14137D01*
G01X7900Y14145D01*
G01X7905Y14155D01*
G01X7908Y14158D01*
G01X7913Y14166D01*
G01X7916Y14169D01*
G01X7918Y14172D01*
G01X7922Y14175D01*
G01X7927Y14179D01*
G01X7931Y14182D01*
G01X7933Y14183D01*
G01X7938Y14186D01*
G01X7942Y14188D01*
G01X7953Y14192D01*
G01X7958Y14193D01*
G01X7962D01*
G01X7963D01*
G01X7964Y14192D01*
G01X7965Y14191D01*
G01X7967Y14189D01*
G01Y14188D01*
G01X7968Y14181D01*
G01X7970Y14041D01*
G01X7971Y13997D01*
G01X7972Y13919D01*
G01X8088D01*
G01Y14053D01*
G01X8089Y14185D01*
G01X8090Y14189D01*
G01X8092Y14191D01*
G01X8096Y14193D01*
G01X8099D01*
G01X8101Y14194D01*
G01X8103Y14193D01*
G01X8113Y14190D01*
G01X8118Y14189D01*
G01X8121Y14188D01*
G01X8123Y14186D01*
G01X8126Y14183D01*
G01X8133Y14179D01*
G01X8137Y14175D01*
G01X8138Y14173D01*
G01X8143Y14165D01*
G01X8145Y14162D01*
G01X8148Y14159D01*
G01X8150Y14154D01*
G01X8152Y14152D01*
G01X8162Y14132D01*
G01X8164Y14126D01*
G01X8170Y14112D01*
G01X8172Y14102D01*
G01X8174Y14095D01*
G01X8176Y14081D01*
G01X8178Y14072D01*
G01X8179Y14066D01*
G01X8180Y14055D01*
G01Y14051D01*
G01X8181Y14048D01*
G01X8182Y14044D01*
G01X8181Y14040D01*
G01X8180Y14025D01*
G01X8179Y14011D01*
G01X8178Y14005D01*
G01X8176Y13996D01*
G01X8174Y13986D01*
G01X8172Y13979D01*
G01X8167Y13968D01*
G01X8163Y13959D01*
G01X8161Y13955D01*
G01X8158Y13951D01*
G01X8155Y13947D01*
G01X8152Y13944D01*
G01X8149Y13941D01*
G01X8146Y13937D01*
G01X8140Y13933D01*
G01X8137Y13930D01*
G01X8135Y13929D01*
G01X8130Y13926D01*
G01X8126Y13924D01*
G01X8114Y13920D01*
G01X8112Y13919D01*
G01X8108D01*
G01X8088D01*
G01X7972D01*
G01X7973Y13827D01*
G01X7974Y13814D01*
G01Y13808D01*
G01X7975Y13807D01*
G01Y13806D01*
G01X7977Y13805D01*
G01X7981D01*
G01X7995Y13804D01*
G01X8049Y13803D01*
G01X8116Y13804D01*
G01X8122D01*
G01X8123Y13805D01*
G01X8126D01*
G01X8135Y13807D01*
G01X8146Y13808D01*
G01X8150Y13810D01*
G01X8156Y13812D01*
G01X8165Y13815D01*
G01X8172Y13817D01*
G01X8175Y13818D01*
G01X8183Y13821D01*
G01X8189Y13825D01*
G01X8199Y13830D01*
G01X8204Y13833D01*
G01X8219Y13845D01*
G01X8223Y13848D01*
G01X8228Y13855D01*
G01X8233Y13858D01*
G01X8237Y13862D01*
G01X8239Y13865D01*
G01X8245Y13873D01*
G01X8248Y13878D01*
G01X8250Y13881D01*
G01X8253Y13886D01*
G01X8258Y13895D01*
G01X8261Y13900D01*
G01X8264Y13907D01*
G01X8267Y13914D01*
G01X8273Y13928D01*
G01Y13930D01*
G01X8279Y13950D01*
G01X8281Y13959D01*
G01X8283Y13968D01*
G01X8286Y13991D01*
G01X8288Y13998D01*
G01Y14006D01*
G01X8289Y14044D01*
G01X8288Y14081D01*
G01X8286Y14092D01*
G01X8285Y14098D01*
G01Y14106D01*
G01X8283Y14114D01*
G01X8281Y14121D01*
G01X8279Y14135D01*
G01X8278Y14141D01*
G01X8265Y14179D01*
G01X8262Y14185D01*
G01X8258Y14192D01*
G01X8253Y14202D01*
G01X8251Y14206D01*
G01X8250Y14209D01*
G01X8246Y14213D01*
G01X8239Y14223D01*
G01X8236Y14228D01*
G01X8234Y14230D01*
G01X8230Y14232D01*
G01X8227Y14236D01*
G01X8226Y14240D01*
G01X8222Y14244D01*
G01X8218Y14247D01*
G01X8214Y14251D01*
G01X8211Y14255D01*
G01X8207Y14259D01*
G01X8203Y14260D01*
G01X8199Y14263D01*
G01X8196Y14268D01*
G01X8192Y14271D01*
G01X8187Y14272D01*
G01X8182Y14275D01*
G01X8176Y14280D01*
G01X8173Y14282D01*
G01X8170Y14283D01*
G01X8161Y14288D01*
G01X8155Y14291D01*
G01X8148Y14294D01*
G01X8142Y14297D01*
G01X8127Y14303D01*
G01X8118Y14305D01*
G01X8111Y14307D01*
G01X8099Y14309D01*
G01X8090Y14312D01*
G01X8081Y14313D01*
G01X8051Y14317D01*
G01X8044D01*
G01X8023Y14318D01*
G37*
G36*
G01X7969Y13734D02*
G01X7775Y13732D01*
G01X7772D01*
G01X7771Y13731D01*
G01Y13722D01*
G01X7770Y13667D01*
G01Y13603D01*
G01X7778Y13602D01*
G01X7780D01*
G01X7816Y13601D01*
G01X7958Y13600D01*
G01X8124Y13599D01*
G01X8133Y13598D01*
G01X8136D01*
G01X8137Y13597D01*
G01X8143Y13594D01*
G01X8150Y13590D01*
G01X8153Y13586D01*
G01X8158Y13579D01*
G01X8161Y13576D01*
G01X8163Y13574D01*
G01X8164Y13572D01*
G01X8165Y13569D01*
G01X8166Y13566D01*
G01Y13563D01*
G01X8167Y13547D01*
G01Y13458D01*
G01X8177Y13456D01*
G01X8194Y13455D01*
G01X8235D01*
G01X8289D01*
G01Y13541D01*
G01X8288Y13626D01*
G01X8287Y13631D01*
G01Y13632D01*
G01X8282Y13646D01*
G01X8277Y13658D01*
G01X8265Y13677D01*
G01X8258Y13687D01*
G01X8255Y13690D01*
G01X8252Y13693D01*
G01X8249Y13696D01*
G01X8243Y13700D01*
G01X8238Y13705D01*
G01X8236Y13707D01*
G01X8230Y13711D01*
G01X8219Y13717D01*
G01X8216Y13719D01*
G01X8208Y13722D01*
G01X8202Y13725D01*
G01X8197Y13727D01*
G01X8191Y13728D01*
G01X8187Y13729D01*
G01X8172Y13732D01*
G01X8170D01*
G01X8089Y13733D01*
G37*
G36*
G01X7772Y13437D02*
G01X7771Y13436D01*
G01Y13427D01*
G01X7770Y13370D01*
G01X7771Y13330D01*
G01X7772Y13316D01*
G01X7773Y13310D01*
G01X7774Y13305D01*
G01X7775Y13301D01*
G01X7776Y13300D01*
G01X7782Y13297D01*
G01X7789Y13293D01*
G01X7792Y13291D01*
G01X7802Y13287D01*
G01X7807Y13284D01*
G01X7809Y13283D01*
G01X7812Y13281D01*
G01X7817Y13278D01*
G01X7826Y13274D01*
G01X7831Y13270D01*
G01X7845Y13262D01*
G01X7856Y13256D01*
G01X7863Y13253D01*
G01X7867Y13251D01*
G01X7870Y13250D01*
G01X7877Y13245D01*
G01X7880Y13243D01*
G01X7883Y13241D01*
G01X7891Y13238D01*
G01X7894Y13236D01*
G01X7897Y13234D01*
G01X7903Y13230D01*
G01X7907Y13228D01*
G01X7911Y13226D01*
G01X7920Y13222D01*
G01X7925Y13219D01*
G01X7939Y13211D01*
G01X7944Y13207D01*
G01X7950Y13205D01*
G01X7957Y13202D01*
G01X7961Y13200D01*
G01X7964Y13198D01*
G01X7971Y13194D01*
G01X7974Y13192D01*
G01X7977Y13190D01*
G01X7986Y13186D01*
G01X7992Y13183D01*
G01X8005Y13174D01*
G01X8011Y13171D01*
G01X8017Y13168D01*
G01X8024Y13165D01*
G01X8027Y13163D01*
G01X8031Y13162D01*
G01X8037Y13157D01*
G01X8040Y13155D01*
G01X8044Y13154D01*
G01X8053Y13150D01*
G01X8058Y13147D01*
G01X8072Y13138D01*
G01X8078Y13135D01*
G01X8083Y13132D01*
G01X8090Y13129D01*
G01X8094Y13127D01*
G01X8098Y13125D01*
G01X8104Y13121D01*
G01X8107Y13119D01*
G01X8118Y13114D01*
G01X8125Y13110D01*
G01X8134Y13104D01*
G01X8138Y13102D01*
G01X8147Y13098D01*
G01X8152Y13095D01*
G01X8166Y13087D01*
G01X8171Y13084D01*
G01X8177Y13080D01*
G01X8184Y13077D01*
G01X8188Y13075D01*
G01X8192Y13074D01*
G01X8198Y13069D01*
G01X8201Y13067D01*
G01X8205Y13066D01*
G01X8213Y13062D01*
G01X8219Y13059D01*
G01X8233Y13050D01*
G01X8238Y13047D01*
G01X8244Y13044D01*
G01X8251Y13041D01*
G01X8255Y13039D01*
G01X8258Y13037D01*
G01X8264Y13033D01*
G01X8268Y13031D01*
G01X8271Y13029D01*
G01X8280Y13025D01*
G01X8286Y13022D01*
G01X8299Y13014D01*
G01X8310Y13008D01*
G01X8317Y13005D01*
G01X8322Y13003D01*
G01X8324Y13001D01*
G01X8327Y12999D01*
G01X8332Y12996D01*
G01X8341Y12992D01*
G01X8346Y12989D01*
G01X8360Y12980D01*
G01X8365Y12977D01*
G01X8371Y12975D01*
G01X8378Y12971D01*
G01X8382Y12970D01*
G01X8386Y12968D01*
G01X8392Y12963D01*
G01X8395Y12961D01*
G01X8398Y12960D01*
G01X8407Y12956D01*
G01X8413Y12952D01*
G01X8426Y12944D01*
G01X8432Y12941D01*
G01X8438Y12938D01*
G01X8445Y12935D01*
G01X8452Y12931D01*
G01X8458Y12927D01*
G01X8465Y12923D01*
G01X8478Y12918D01*
G01X8480Y12917D01*
G01X8482Y12918D01*
G01X8484Y12923D01*
G01Y12926D01*
G01X8485Y12943D01*
G01X8486Y12988D01*
G01X8485Y13026D01*
G01X8484Y13037D01*
G01X8483Y13044D01*
G01X8482Y13046D01*
G01Y13047D01*
G01Y13048D01*
G01X8481D01*
G01X8475Y13053D01*
G01X8471Y13056D01*
G01X8466Y13059D01*
G01X8458Y13063D01*
G01X8452Y13066D01*
G01X8438Y13074D01*
G01X8433Y13078D01*
G01X8427Y13080D01*
G01X8420Y13084D01*
G01X8416Y13086D01*
G01X8413Y13088D01*
G01X8406Y13092D01*
G01X8403Y13094D01*
G01X8400Y13096D01*
G01X8391Y13099D01*
G01X8385Y13102D01*
G01X8372Y13111D01*
G01X8361Y13117D01*
G01X8353Y13120D01*
G01X8349Y13122D01*
G01X8346Y13124D01*
G01X8340Y13128D01*
G01X8337Y13130D01*
G01X8333Y13132D01*
G01X8326Y13135D01*
G01X8322Y13137D01*
G01X8319Y13139D01*
G01X8312Y13143D01*
G01X8309Y13146D01*
G01X8306Y13147D01*
G01X8297Y13151D01*
G01X8291Y13154D01*
G01X8278Y13162D01*
G01X8267Y13168D01*
G01X8259Y13171D01*
G01X8252Y13175D01*
G01X8243Y13182D01*
G01X8239Y13184D01*
G01X8230Y13187D01*
G01X8225Y13190D01*
G01X8211Y13199D01*
G01X8206Y13202D01*
G01X8200Y13205D01*
G01X8189Y13210D01*
G01X8185Y13212D01*
G01X8179Y13216D01*
G01X8176Y13218D01*
G01X8173Y13220D01*
G01X8164Y13224D01*
G01X8158Y13227D01*
G01X8145Y13235D01*
G01X8139Y13238D01*
G01X8133Y13241D01*
G01X8125Y13244D01*
G01X8122Y13246D01*
G01X8119Y13248D01*
G01X8113Y13252D01*
G01X8106Y13256D01*
G01X8099Y13259D01*
G01X8091Y13263D01*
G01X8082Y13269D01*
G01X8079Y13272D01*
G01X8070Y13275D01*
G01X8064Y13278D01*
G01X8051Y13287D01*
G01X8045Y13290D01*
G01X8039Y13293D01*
G01X8028Y13297D01*
G01X8025Y13299D01*
G01X8019Y13304D01*
G01X8015Y13306D01*
G01X8012Y13308D01*
G01X8003Y13312D01*
G01X7997Y13315D01*
G01X7984Y13323D01*
G01X7978Y13326D01*
G01X7973Y13329D01*
G01X7965Y13332D01*
G01X7961Y13334D01*
G01X7952Y13340D01*
G01X7945Y13344D01*
G01X7936Y13348D01*
G01X7930Y13351D01*
G01X7917Y13359D01*
G01X7906Y13365D01*
G01X7898Y13369D01*
G01X7895Y13371D01*
G01X7892Y13372D01*
G01X7885Y13377D01*
G01X7882Y13379D01*
G01X7879Y13381D01*
G01X7871Y13384D01*
G01X7867Y13385D01*
G01X7864Y13387D01*
G01X7858Y13392D01*
G01X7855Y13394D01*
G01X7851Y13395D01*
G01X7843Y13400D01*
G01X7836Y13403D01*
G01X7823Y13411D01*
G01X7818Y13414D01*
G01X7812Y13417D01*
G01X7804Y13420D01*
G01X7801Y13422D01*
G01X7798Y13424D01*
G01X7791Y13428D01*
G01X7788Y13430D01*
G01X7785Y13432D01*
G01X7781Y13434D01*
G01X7773Y13437D01*
G37*
G04 //text: G*
G36*
G01X8676Y2200D02*
G01X8679Y2199D01*
G01X8689Y2198D01*
G01X8742Y2196D01*
G01X8914Y2195D01*
G01X9136Y2196D01*
G01X9144Y2197D01*
G01X9145D01*
G01X9150Y2199D01*
G01X9162Y2201D01*
G01X9178Y2204D01*
G01X9185Y2206D01*
G01X9191Y2208D01*
G01X9206Y2215D01*
G01X9225Y2222D01*
G01X9232Y2225D01*
G01X9241Y2229D01*
G01X9245Y2231D01*
G01X9253Y2238D01*
G01X9268Y2247D01*
G01X9274Y2250D01*
G01X9287Y2260D01*
G01X9305Y2273D01*
G01X9313Y2279D01*
G01X9320Y2286D01*
G01X9329Y2297D01*
G01X9336Y2304D01*
G01X9340Y2307D01*
G01X9345Y2311D01*
G01X9349Y2316D01*
G01X9358Y2332D01*
G01X9365Y2340D01*
G01X9369Y2345D01*
G01X9372Y2349D01*
G01X9380Y2361D01*
G01X9391Y2380D01*
G01X9394Y2385D01*
G01X9400Y2400D01*
G01X9405Y2410D01*
G01X9413Y2429D01*
G01X9418Y2440D01*
G01X9420Y2447D01*
G01X9422Y2454D01*
G01X9426Y2476D01*
G01X9430Y2491D01*
G01X9433Y2505D01*
G01X9435Y2514D01*
G01Y2521D01*
G01X9437Y2745D01*
G01Y2958D01*
G01X9424Y2961D01*
G01X9421D01*
G01X9375Y2963D01*
G01X9126Y2964D01*
G01X8843D01*
G01X8840Y2945D01*
G01X8839Y2935D01*
G01X8837Y2874D01*
G01Y2833D01*
G01Y2740D01*
G01X8853Y2737D01*
G01X8866Y2736D01*
G01X9009Y2735D01*
G01X9117Y2733D01*
G01X9142Y2731D01*
G01X9155Y2729D01*
G01X9159Y2728D01*
G01X9161Y2727D01*
G01X9162D01*
G01Y2726D01*
G01X9164Y2723D01*
G01X9165Y2717D01*
G01X9167Y2708D01*
G01X9169Y2683D01*
G01X9170Y2625D01*
G01X9169Y2539D01*
G01X9168Y2527D01*
G01X9167Y2525D01*
G01X9159Y2503D01*
G01X9156Y2496D01*
G01X9153Y2491D01*
G01X9149Y2487D01*
G01X9145Y2484D01*
G01X9142Y2481D01*
G01X9139Y2477D01*
G01X9136Y2474D01*
G01X9133Y2466D01*
G01X9130Y2463D01*
G01X9127Y2461D01*
G01X9120Y2458D01*
G01X9116Y2456D01*
G01X9113Y2453D01*
G01X9107Y2448D01*
G01X9097Y2443D01*
G01X9091Y2440D01*
G01X9081Y2436D01*
G01X9070Y2433D01*
G01X9064Y2432D01*
G01X9058Y2431D01*
G01X8999Y2429D01*
G01X8914D01*
G01X8798Y2431D01*
G01X8778Y2432D01*
G01X8769Y2434D01*
G01X8767D01*
G01X8745Y2445D01*
G01X8739Y2448D01*
G01X8735Y2452D01*
G01X8731Y2455D01*
G01X8725Y2463D01*
G01X8718Y2470D01*
G01X8710Y2476D01*
G01X8706Y2480D01*
G01X8702Y2486D01*
G01X8698Y2492D01*
G01X8685Y2514D01*
G01X8679Y2524D01*
G01X8674Y2538D01*
G01X8663Y2574D01*
G01X8660Y2584D01*
G01X8659Y2594D01*
G01X8658Y2605D01*
G01X8657Y2633D01*
G01X8656Y2645D01*
G01X8655Y2650D01*
G01X8654Y2652D01*
G01X8653Y2668D01*
G01X8652Y2890D01*
G01X8654Y3121D01*
G01Y3129D01*
G01X8655Y3130D01*
G01X8663Y3152D01*
G01X8666Y3158D01*
G01X8669Y3163D01*
G01X8672Y3168D01*
G01X8676Y3171D01*
G01X8680Y3174D01*
G01X8683Y3177D01*
G01X8686Y3181D01*
G01X8689Y3188D01*
G01X8691Y3192D01*
G01X8694Y3195D01*
G01X8702Y3201D01*
G01X8709Y3208D01*
G01X8715Y3216D01*
G01X8719Y3220D01*
G01X8725Y3224D01*
G01X8731Y3228D01*
G01X8750Y3239D01*
G01X8755Y3242D01*
G01X8758D01*
G01X8769Y3244D01*
G01X8877Y3247D01*
G01X9053D01*
G01X9339D01*
G01X9345Y3261D01*
G01X9346Y3266D01*
G01X9347Y3273D01*
G01X9349Y3295D01*
G01X9350Y3370D01*
G01X9349Y3431D01*
G01X9347Y3451D01*
G01X9345Y3465D01*
G01X9344Y3470D01*
G01X9343Y3472D01*
G01X9342Y3473D01*
G01Y3474D01*
G01X9340Y3475D01*
G01X9335Y3476D01*
G01X9318Y3477D01*
G01X9181Y3481D01*
G01X9009Y3482D01*
G01X8683Y3480D01*
G01X8677Y3479D01*
G01X8672Y3478D01*
G01X8659Y3475D01*
G01X8644Y3472D01*
G01X8635Y3469D01*
G01X8629Y3467D01*
G01X8618Y3461D01*
G01X8603Y3456D01*
G01X8599Y3454D01*
G01X8595Y3452D01*
G01X8589Y3446D01*
G01X8581Y3441D01*
G01X8566Y3433D01*
G01X8561Y3429D01*
G01X8549Y3419D01*
G01X8542Y3413D01*
G01X8535Y3407D01*
G01X8529Y3399D01*
G01X8526Y3396D01*
G01X8522Y3394D01*
G01X8514Y3390D01*
G01X8511Y3387D01*
G01X8507Y3383D01*
G01X8502Y3373D01*
G01X8498Y3369D01*
G01X8495Y3365D01*
G01X8491Y3362D01*
G01X8487Y3359D01*
G01X8483Y3355D01*
G01X8480Y3351D01*
G01X8472Y3336D01*
G01X8468Y3331D01*
G01X8463Y3326D01*
G01X8460Y3322D01*
G01X8453Y3310D01*
G01X8436Y3283D01*
G01X8433Y3276D01*
G01X8430Y3270D01*
G01X8427Y3264D01*
G01X8422Y3248D01*
G01X8417Y3239D01*
G01X8415Y3235D01*
G01X8412Y3230D01*
G01X8411Y3224D01*
G01X8406Y3205D01*
G01X8401Y3186D01*
G01X8398Y3174D01*
G01X8393Y3141D01*
G01X8392Y3132D01*
G01X8390Y2844D01*
G01X8392Y2565D01*
G01X8393Y2558D01*
G01Y2557D01*
G01X8394Y2553D01*
G01X8395Y2543D01*
G01X8396Y2528D01*
G01X8401Y2510D01*
G01X8406Y2485D01*
G01X8417Y2451D01*
G01X8423Y2436D01*
G01X8435Y2409D01*
G01X8442Y2393D01*
G01X8446Y2385D01*
G01X8449Y2381D01*
G01X8453Y2377D01*
G01X8458Y2369D01*
G01X8464Y2358D01*
G01X8468Y2352D01*
G01X8477Y2339D01*
G01X8491Y2322D01*
G01X8497Y2313D01*
G01X8503Y2307D01*
G01X8515Y2297D01*
G01X8524Y2286D01*
G01X8531Y2279D01*
G01X8550Y2265D01*
G01X8556Y2260D01*
G01X8570Y2250D01*
G01X8605Y2227D01*
G01X8616Y2222D01*
G01X8630Y2216D01*
G01X8655Y2208D01*
G01X8676Y2200D01*
G37*
G04 Text End*

G04 PolygonModel Start*
G54D10*
G01X13970Y16510D02*
G01X13970Y13970D01*
G54D11*
G01X13970Y11430D02*
G01X11430Y13970D01*
G01Y19040D01*
G54D12*
G01X12800Y20100D02*
G01X12800Y15300D01*
G01X13260D01*
G01X14690Y15300D02*
G01X15100Y15300D01*
G54D13*
G01X1270Y3810D02*
G01X3109Y3810D01*
G01X5970Y1650D02*
G01X5146Y2474D01*
G54D11*
G01X11450Y1290D02*
G01X11450Y3060D01*
G01X11450Y12200D02*
G01X11450Y10960D01*
G54D14*
G01X9665Y7778D02*
G03X9665Y8042I0J132D01*
G54D12*
G01X9595Y5635D02*
G03X10115Y6155I0J520D01*
G01X5565Y6155D02*
G03X6085Y5635I520J-0D01*
G01X6085Y10185D02*
G03X5565Y9665I0J-520D01*
G01X10115Y9665D02*
G03X9595Y10185I-520J0D01*
G54D14*
G01X6163Y9226D02*
G01X6163Y6594D01*
G01X6163Y9226D02*
G01X6927Y9226D01*
G01X6163Y6594D02*
G01X6927Y6594D01*
G01X8408Y9226D02*
G01X8408Y8451D01*
G01X8408Y8451D02*
G01X8408Y7395D01*
G01X8671Y7778D02*
G01X9665Y7778D01*
G01X8671Y8042D02*
G01X9665Y8042D01*
G01X8408Y7395D02*
G01X8671Y7395D01*
G01X8408Y8451D02*
G01X8671Y8451D01*
G01X8671Y8451D02*
G01X8671Y8042D01*
G01X8671Y8042D02*
G01X8671Y7778D01*
G54D12*
G01X5565Y9665D02*
G01X5565Y6155D01*
G01X6085Y10185D02*
G01X9595Y10185D01*
G01X6085Y5635D02*
G01X9595Y5635D01*
G54D14*
G01X8408Y7395D02*
G01X8408Y6594D01*
G54D12*
G01X10115Y9665D02*
G01X10115Y6155D01*
G54D14*
G01X8671Y7778D02*
G01X8671Y7395D01*
G01X6927Y9226D02*
G01X6927Y8802D01*
G01X7674Y9226D02*
G01X7674Y8824D01*
G01X7674Y9226D02*
G01X8408Y9226D01*
G01X6927Y8802D02*
G01X6927Y7039D01*
G01X7674Y6594D02*
G01X8408Y6594D01*
G01X7674Y7027D02*
G01X7674Y8824D01*
G01X7674Y7027D02*
G01X7674Y6594D01*
G01X6927Y7039D02*
G01X6927Y6594D01*
G01X7674Y9025D02*
G01X6927Y9025D01*
G01X7674Y6810D02*
G01X6927Y6810D01*
G01X6927Y6594D02*
G01X6927Y9226D01*
G01X6163D01*
G01Y6594D01*
G01X6927D01*
G01X7674Y9226D02*
G01X8408Y9226D01*
G01Y6594D01*
G01X7674D01*
G01X8671Y7778D02*
G01X9665Y7778D01*
G01X8671Y8042D02*
G01X9665Y8042D01*
G01X8408Y7395D02*
G01X8671Y7395D01*
G01Y8451D01*
G01X8408Y8451D02*
G01X8671Y8451D01*
G54D12*
G01X5565Y9665D02*
G01X5565Y6155D01*
G01X6085Y10185D02*
G01X9595Y10185D01*
G01X6085Y5635D02*
G01X9595Y5635D01*
G01X10115Y9665D02*
G01X10115Y6155D01*
G54D14*
G01X7674Y9226D02*
G01X7674Y6594D01*
G01X7674Y9025D02*
G01X6927Y9025D01*
G01X7674Y6810D02*
G01X6927Y6810D01*
G54D12*
G01X5717Y10033D02*
G01X9963Y5787D01*
G01X9963Y10033D02*
G01X5717Y5787D01*
G54D15*
G01X15240Y0D02*
G01X0Y0D01*
G01X0Y0D02*
G01X0Y20320D01*
G01X0Y20320D02*
G01X15240Y20320D01*
G01X15240Y20320D02*
G01X15240Y0D01*
G04 PolygonModel End*

G04 Rect Start*
G54D16*
G01X200Y20100D02*
G01X200Y200D01*
G01X15000D01*
G01Y20100D01*
G01X200D01*
G54D17*
G01X0Y20320D02*
G01X0Y0D01*
G01X15240D01*
G01Y20320D01*
G01X0D01*
G36*
G01X0Y20320D02*
G01X0Y17780D01*
G01X2540D01*
G01Y20320D01*
G01X0D01*
G37*
G54D19*
G01X0Y20320D02*
G01X0Y17780D01*
G01X2540D01*
G01Y20320D01*
G01X0D01*
G04 Rect End*

M02*
