G04 Layer: DrillDrawingLayer*
G04 EasyEDA Pro v1.9.29, 2023-05-07 01:58:04*
G04 Gerber Generator version 0.3*
G04 Scale: 100 percent, Rotated: No, Reflected: No*
G04 Dimensions in millimeters*
G04 Leading zeros omitted, absolute positions, 3 integers and 3 decimals*
%FSLAX33Y33*%
%MOMM*%
%ADD10C,0.254*%
G75*


G04 Image Start*
G36*
G01X10233Y8205D02*
G01X10233Y8169D01*
G01X10269D01*
G01X10595D01*
G01Y7843D01*
G01X10269D01*
G01Y8169D01*
G01X10233D01*
G01Y7806D01*
G01X10631D01*
G01Y8205D01*
G37*
G36*
G01X13970Y14170D02*
G01X13950Y14168D01*
G01X13930Y14166D01*
G01X13911Y14161D01*
G01X13892Y14154D01*
G01X13875Y14145D01*
G01X13859Y14135D01*
G01X13843Y14124D01*
G01X13829Y14111D01*
G01X13816Y14097D01*
G01X13805Y14081D01*
G01X13795Y14065D01*
G01X13786Y14048D01*
G01X13780Y14029D01*
G01X13774Y14010D01*
G01X13772Y13990D01*
G01X13770Y13970D01*
G01X13804D01*
G01X13805Y13987D01*
G01X13807Y14004D01*
G01X13812Y14019D01*
G01X13817Y14035D01*
G01X13824Y14049D01*
G01X13832Y14063D01*
G01X13842Y14076D01*
G01X13853Y14087D01*
G01X13864Y14098D01*
G01X13877Y14108D01*
G01X13891Y14116D01*
G01X13905Y14123D01*
G01X13921Y14128D01*
G01X13936Y14133D01*
G01X13953Y14135D01*
G01X13970Y14136D01*
G01X13987Y14135D01*
G01X14004Y14133D01*
G01X14019Y14128D01*
G01X14035Y14123D01*
G01X14049Y14116D01*
G01X14063Y14108D01*
G01X14076Y14098D01*
G01X14087Y14087D01*
G01X14098Y14076D01*
G01X14108Y14063D01*
G01X14116Y14049D01*
G01X14123Y14035D01*
G01X14128Y14019D01*
G01X14133Y14004D01*
G01X14135Y13987D01*
G01X14136Y13970D01*
G01X14135Y13953D01*
G01X14133Y13936D01*
G01X14128Y13921D01*
G01X14123Y13905D01*
G01X14116Y13891D01*
G01X14108Y13877D01*
G01X14098Y13864D01*
G01X14087Y13853D01*
G01X14076Y13842D01*
G01X14063Y13832D01*
G01X14049Y13824D01*
G01X14035Y13817D01*
G01X14019Y13812D01*
G01X14004Y13807D01*
G01X13987Y13805D01*
G01X13970Y13804D01*
G01X13953Y13805D01*
G01X13936Y13807D01*
G01X13921Y13812D01*
G01X13905Y13817D01*
G01X13891Y13824D01*
G01X13877Y13832D01*
G01X13864Y13842D01*
G01X13853Y13853D01*
G01X13842Y13864D01*
G01X13832Y13877D01*
G01X13824Y13891D01*
G01X13817Y13905D01*
G01X13812Y13921D01*
G01X13807Y13936D01*
G01X13805Y13953D01*
G01X13804Y13970D01*
G01X13770D01*
G01X13772Y13950D01*
G01X13774Y13930D01*
G01X13780Y13911D01*
G01X13786Y13892D01*
G01X13795Y13875D01*
G01X13805Y13859D01*
G01X13816Y13843D01*
G01X13829Y13829D01*
G01X13843Y13816D01*
G01X13859Y13805D01*
G01X13875Y13795D01*
G01X13892Y13786D01*
G01X13911Y13780D01*
G01X13930Y13774D01*
G01X13950Y13772D01*
G01X13970Y13771D01*
G01X13990Y13772D01*
G01X14010Y13774D01*
G01X14029Y13780D01*
G01X14048Y13786D01*
G01X14065Y13795D01*
G01X14081Y13805D01*
G01X14097Y13816D01*
G01X14111Y13829D01*
G01X14124Y13843D01*
G01X14135Y13859D01*
G01X14145Y13875D01*
G01X14154Y13892D01*
G01X14161Y13911D01*
G01X14166Y13930D01*
G01X14168Y13950D01*
G01X14170Y13970D01*
G01X14168Y13990D01*
G01X14166Y14010D01*
G01X14161Y14029D01*
G01X14154Y14048D01*
G01X14145Y14065D01*
G01X14135Y14081D01*
G01X14124Y14097D01*
G01X14111Y14111D01*
G01X14097Y14124D01*
G01X14081Y14135D01*
G01X14065Y14145D01*
G01X14048Y14154D01*
G01X14029Y14161D01*
G01X14010Y14166D01*
G01X13990Y14168D01*
G37*
G36*
G01X13970Y16710D02*
G01X13950Y16708D01*
G01X13930Y16706D01*
G01X13911Y16701D01*
G01X13892Y16694D01*
G01X13875Y16685D01*
G01X13859Y16675D01*
G01X13843Y16664D01*
G01X13829Y16651D01*
G01X13816Y16637D01*
G01X13805Y16621D01*
G01X13795Y16605D01*
G01X13786Y16588D01*
G01X13780Y16569D01*
G01X13774Y16550D01*
G01X13772Y16530D01*
G01X13770Y16510D01*
G01X13804D01*
G01X13805Y16527D01*
G01X13807Y16544D01*
G01X13812Y16559D01*
G01X13817Y16575D01*
G01X13824Y16589D01*
G01X13832Y16603D01*
G01X13842Y16616D01*
G01X13853Y16627D01*
G01X13864Y16638D01*
G01X13877Y16648D01*
G01X13891Y16656D01*
G01X13905Y16663D01*
G01X13921Y16668D01*
G01X13936Y16673D01*
G01X13953Y16675D01*
G01X13970Y16676D01*
G01X13987Y16675D01*
G01X14004Y16673D01*
G01X14019Y16668D01*
G01X14035Y16663D01*
G01X14049Y16656D01*
G01X14063Y16648D01*
G01X14076Y16638D01*
G01X14087Y16627D01*
G01X14098Y16616D01*
G01X14108Y16603D01*
G01X14116Y16589D01*
G01X14123Y16575D01*
G01X14128Y16559D01*
G01X14133Y16544D01*
G01X14135Y16527D01*
G01X14136Y16510D01*
G01X14135Y16493D01*
G01X14133Y16476D01*
G01X14128Y16461D01*
G01X14123Y16445D01*
G01X14116Y16431D01*
G01X14108Y16417D01*
G01X14098Y16404D01*
G01X14087Y16393D01*
G01X14076Y16382D01*
G01X14063Y16372D01*
G01X14049Y16364D01*
G01X14035Y16357D01*
G01X14019Y16352D01*
G01X14004Y16347D01*
G01X13987Y16345D01*
G01X13970Y16344D01*
G01X13953Y16345D01*
G01X13936Y16347D01*
G01X13921Y16352D01*
G01X13905Y16357D01*
G01X13891Y16364D01*
G01X13877Y16372D01*
G01X13864Y16382D01*
G01X13853Y16393D01*
G01X13842Y16404D01*
G01X13832Y16417D01*
G01X13824Y16431D01*
G01X13817Y16445D01*
G01X13812Y16461D01*
G01X13807Y16476D01*
G01X13805Y16493D01*
G01X13804Y16510D01*
G01X13770D01*
G01X13772Y16490D01*
G01X13774Y16470D01*
G01X13780Y16451D01*
G01X13786Y16432D01*
G01X13795Y16415D01*
G01X13805Y16399D01*
G01X13816Y16383D01*
G01X13829Y16369D01*
G01X13843Y16356D01*
G01X13859Y16345D01*
G01X13875Y16335D01*
G01X13892Y16326D01*
G01X13911Y16320D01*
G01X13930Y16314D01*
G01X13950Y16312D01*
G01X13970Y16311D01*
G01X13990Y16312D01*
G01X14010Y16314D01*
G01X14029Y16320D01*
G01X14048Y16326D01*
G01X14065Y16335D01*
G01X14081Y16345D01*
G01X14097Y16356D01*
G01X14111Y16369D01*
G01X14124Y16383D01*
G01X14135Y16399D01*
G01X14145Y16415D01*
G01X14154Y16432D01*
G01X14161Y16451D01*
G01X14166Y16470D01*
G01X14168Y16490D01*
G01X14170Y16510D01*
G01X14168Y16530D01*
G01X14166Y16550D01*
G01X14161Y16569D01*
G01X14154Y16588D01*
G01X14145Y16605D01*
G01X14135Y16621D01*
G01X14124Y16637D01*
G01X14111Y16651D01*
G01X14097Y16664D01*
G01X14081Y16675D01*
G01X14065Y16685D01*
G01X14048Y16694D01*
G01X14029Y16701D01*
G01X14010Y16706D01*
G01X13990Y16708D01*
G37*
G36*
G01X13970Y19250D02*
G01X13950Y19248D01*
G01X13930Y19246D01*
G01X13911Y19241D01*
G01X13892Y19234D01*
G01X13875Y19225D01*
G01X13859Y19215D01*
G01X13843Y19204D01*
G01X13829Y19191D01*
G01X13816Y19177D01*
G01X13805Y19161D01*
G01X13795Y19145D01*
G01X13786Y19128D01*
G01X13780Y19109D01*
G01X13774Y19090D01*
G01X13772Y19070D01*
G01X13770Y19050D01*
G01X13804D01*
G01X13805Y19067D01*
G01X13807Y19084D01*
G01X13812Y19099D01*
G01X13817Y19115D01*
G01X13824Y19129D01*
G01X13832Y19143D01*
G01X13842Y19156D01*
G01X13853Y19167D01*
G01X13864Y19178D01*
G01X13877Y19188D01*
G01X13891Y19196D01*
G01X13905Y19203D01*
G01X13921Y19208D01*
G01X13936Y19213D01*
G01X13953Y19215D01*
G01X13970Y19216D01*
G01X13987Y19215D01*
G01X14004Y19213D01*
G01X14019Y19208D01*
G01X14035Y19203D01*
G01X14049Y19196D01*
G01X14063Y19188D01*
G01X14076Y19178D01*
G01X14087Y19167D01*
G01X14098Y19156D01*
G01X14108Y19143D01*
G01X14116Y19129D01*
G01X14123Y19115D01*
G01X14128Y19099D01*
G01X14133Y19084D01*
G01X14135Y19067D01*
G01X14136Y19050D01*
G01X14135Y19033D01*
G01X14133Y19016D01*
G01X14128Y19001D01*
G01X14123Y18985D01*
G01X14116Y18971D01*
G01X14108Y18957D01*
G01X14098Y18944D01*
G01X14087Y18933D01*
G01X14076Y18922D01*
G01X14063Y18912D01*
G01X14049Y18904D01*
G01X14035Y18897D01*
G01X14019Y18892D01*
G01X14004Y18887D01*
G01X13987Y18885D01*
G01X13970Y18884D01*
G01X13953Y18885D01*
G01X13936Y18887D01*
G01X13921Y18892D01*
G01X13905Y18897D01*
G01X13891Y18904D01*
G01X13877Y18912D01*
G01X13864Y18922D01*
G01X13853Y18933D01*
G01X13842Y18944D01*
G01X13832Y18957D01*
G01X13824Y18971D01*
G01X13817Y18985D01*
G01X13812Y19001D01*
G01X13807Y19016D01*
G01X13805Y19033D01*
G01X13804Y19050D01*
G01X13770D01*
G01X13772Y19030D01*
G01X13774Y19010D01*
G01X13780Y18991D01*
G01X13786Y18972D01*
G01X13795Y18955D01*
G01X13805Y18939D01*
G01X13816Y18923D01*
G01X13829Y18909D01*
G01X13843Y18896D01*
G01X13859Y18885D01*
G01X13875Y18875D01*
G01X13892Y18866D01*
G01X13911Y18860D01*
G01X13930Y18854D01*
G01X13950Y18852D01*
G01X13970Y18851D01*
G01X13990Y18852D01*
G01X14010Y18854D01*
G01X14029Y18860D01*
G01X14048Y18866D01*
G01X14065Y18875D01*
G01X14081Y18885D01*
G01X14097Y18896D01*
G01X14111Y18909D01*
G01X14124Y18923D01*
G01X14135Y18939D01*
G01X14145Y18955D01*
G01X14154Y18972D01*
G01X14161Y18991D01*
G01X14166Y19010D01*
G01X14168Y19030D01*
G01X14170Y19050D01*
G01X14168Y19070D01*
G01X14166Y19090D01*
G01X14161Y19109D01*
G01X14154Y19128D01*
G01X14145Y19145D01*
G01X14135Y19161D01*
G01X14124Y19177D01*
G01X14111Y19191D01*
G01X14097Y19204D01*
G01X14081Y19215D01*
G01X14065Y19225D01*
G01X14048Y19234D01*
G01X14029Y19241D01*
G01X14010Y19246D01*
G01X13990Y19248D01*
G37*
G36*
G01X13970Y11630D02*
G01X13950Y11628D01*
G01X13930Y11626D01*
G01X13911Y11621D01*
G01X13892Y11614D01*
G01X13875Y11605D01*
G01X13859Y11595D01*
G01X13843Y11584D01*
G01X13829Y11571D01*
G01X13816Y11557D01*
G01X13805Y11541D01*
G01X13795Y11525D01*
G01X13786Y11508D01*
G01X13780Y11489D01*
G01X13774Y11470D01*
G01X13772Y11450D01*
G01X13770Y11430D01*
G01X13804D01*
G01X13805Y11447D01*
G01X13807Y11464D01*
G01X13812Y11479D01*
G01X13817Y11495D01*
G01X13824Y11509D01*
G01X13832Y11523D01*
G01X13842Y11536D01*
G01X13853Y11547D01*
G01X13864Y11558D01*
G01X13877Y11568D01*
G01X13891Y11576D01*
G01X13905Y11583D01*
G01X13921Y11588D01*
G01X13936Y11593D01*
G01X13953Y11595D01*
G01X13970Y11596D01*
G01X13987Y11595D01*
G01X14004Y11593D01*
G01X14019Y11588D01*
G01X14035Y11583D01*
G01X14049Y11576D01*
G01X14063Y11568D01*
G01X14076Y11558D01*
G01X14087Y11547D01*
G01X14098Y11536D01*
G01X14108Y11523D01*
G01X14116Y11509D01*
G01X14123Y11495D01*
G01X14128Y11479D01*
G01X14133Y11464D01*
G01X14135Y11447D01*
G01X14136Y11430D01*
G01X14135Y11413D01*
G01X14133Y11396D01*
G01X14128Y11381D01*
G01X14123Y11365D01*
G01X14116Y11351D01*
G01X14108Y11337D01*
G01X14098Y11324D01*
G01X14087Y11313D01*
G01X14076Y11302D01*
G01X14063Y11292D01*
G01X14049Y11284D01*
G01X14035Y11277D01*
G01X14019Y11272D01*
G01X14004Y11267D01*
G01X13987Y11265D01*
G01X13970Y11264D01*
G01X13953Y11265D01*
G01X13936Y11267D01*
G01X13921Y11272D01*
G01X13905Y11277D01*
G01X13891Y11284D01*
G01X13877Y11292D01*
G01X13864Y11302D01*
G01X13853Y11313D01*
G01X13842Y11324D01*
G01X13832Y11337D01*
G01X13824Y11351D01*
G01X13817Y11365D01*
G01X13812Y11381D01*
G01X13807Y11396D01*
G01X13805Y11413D01*
G01X13804Y11430D01*
G01X13770D01*
G01X13772Y11410D01*
G01X13774Y11390D01*
G01X13780Y11371D01*
G01X13786Y11352D01*
G01X13795Y11335D01*
G01X13805Y11319D01*
G01X13816Y11303D01*
G01X13829Y11289D01*
G01X13843Y11276D01*
G01X13859Y11265D01*
G01X13875Y11255D01*
G01X13892Y11246D01*
G01X13911Y11240D01*
G01X13930Y11234D01*
G01X13950Y11232D01*
G01X13970Y11231D01*
G01X13990Y11232D01*
G01X14010Y11234D01*
G01X14029Y11240D01*
G01X14048Y11246D01*
G01X14065Y11255D01*
G01X14081Y11265D01*
G01X14097Y11276D01*
G01X14111Y11289D01*
G01X14124Y11303D01*
G01X14135Y11319D01*
G01X14145Y11335D01*
G01X14154Y11352D01*
G01X14161Y11371D01*
G01X14166Y11390D01*
G01X14168Y11410D01*
G01X14170Y11430D01*
G01X14168Y11450D01*
G01X14166Y11470D01*
G01X14161Y11489D01*
G01X14154Y11508D01*
G01X14145Y11525D01*
G01X14135Y11541D01*
G01X14124Y11557D01*
G01X14111Y11571D01*
G01X14097Y11584D01*
G01X14081Y11595D01*
G01X14065Y11605D01*
G01X14048Y11614D01*
G01X14029Y11621D01*
G01X14010Y11626D01*
G01X13990Y11628D01*
G37*
G36*
G01X13970Y9090D02*
G01X13950Y9088D01*
G01X13930Y9086D01*
G01X13911Y9081D01*
G01X13892Y9074D01*
G01X13875Y9065D01*
G01X13859Y9055D01*
G01X13843Y9044D01*
G01X13829Y9031D01*
G01X13816Y9017D01*
G01X13805Y9001D01*
G01X13795Y8985D01*
G01X13786Y8968D01*
G01X13780Y8949D01*
G01X13774Y8930D01*
G01X13772Y8910D01*
G01X13770Y8890D01*
G01X13804D01*
G01X13805Y8907D01*
G01X13807Y8924D01*
G01X13812Y8939D01*
G01X13817Y8955D01*
G01X13824Y8969D01*
G01X13832Y8983D01*
G01X13842Y8996D01*
G01X13853Y9007D01*
G01X13864Y9018D01*
G01X13877Y9028D01*
G01X13891Y9036D01*
G01X13905Y9043D01*
G01X13921Y9048D01*
G01X13936Y9053D01*
G01X13953Y9055D01*
G01X13970Y9056D01*
G01X13987Y9055D01*
G01X14004Y9053D01*
G01X14019Y9048D01*
G01X14035Y9043D01*
G01X14049Y9036D01*
G01X14063Y9028D01*
G01X14076Y9018D01*
G01X14087Y9007D01*
G01X14098Y8996D01*
G01X14108Y8983D01*
G01X14116Y8969D01*
G01X14123Y8955D01*
G01X14128Y8939D01*
G01X14133Y8924D01*
G01X14135Y8907D01*
G01X14136Y8890D01*
G01X14135Y8873D01*
G01X14133Y8856D01*
G01X14128Y8841D01*
G01X14123Y8825D01*
G01X14116Y8811D01*
G01X14108Y8797D01*
G01X14098Y8784D01*
G01X14087Y8773D01*
G01X14076Y8762D01*
G01X14063Y8752D01*
G01X14049Y8744D01*
G01X14035Y8737D01*
G01X14019Y8732D01*
G01X14004Y8727D01*
G01X13987Y8725D01*
G01X13970Y8724D01*
G01X13953Y8725D01*
G01X13936Y8727D01*
G01X13921Y8732D01*
G01X13905Y8737D01*
G01X13891Y8744D01*
G01X13877Y8752D01*
G01X13864Y8762D01*
G01X13853Y8773D01*
G01X13842Y8784D01*
G01X13832Y8797D01*
G01X13824Y8811D01*
G01X13817Y8825D01*
G01X13812Y8841D01*
G01X13807Y8856D01*
G01X13805Y8873D01*
G01X13804Y8890D01*
G01X13770D01*
G01X13772Y8870D01*
G01X13774Y8850D01*
G01X13780Y8831D01*
G01X13786Y8812D01*
G01X13795Y8795D01*
G01X13805Y8779D01*
G01X13816Y8763D01*
G01X13829Y8749D01*
G01X13843Y8736D01*
G01X13859Y8725D01*
G01X13875Y8715D01*
G01X13892Y8706D01*
G01X13911Y8700D01*
G01X13930Y8694D01*
G01X13950Y8692D01*
G01X13970Y8691D01*
G01X13990Y8692D01*
G01X14010Y8694D01*
G01X14029Y8700D01*
G01X14048Y8706D01*
G01X14065Y8715D01*
G01X14081Y8725D01*
G01X14097Y8736D01*
G01X14111Y8749D01*
G01X14124Y8763D01*
G01X14135Y8779D01*
G01X14145Y8795D01*
G01X14154Y8812D01*
G01X14161Y8831D01*
G01X14166Y8850D01*
G01X14168Y8870D01*
G01X14170Y8890D01*
G01X14168Y8910D01*
G01X14166Y8930D01*
G01X14161Y8949D01*
G01X14154Y8968D01*
G01X14145Y8985D01*
G01X14135Y9001D01*
G01X14124Y9017D01*
G01X14111Y9031D01*
G01X14097Y9044D01*
G01X14081Y9055D01*
G01X14065Y9065D01*
G01X14048Y9074D01*
G01X14029Y9081D01*
G01X14010Y9086D01*
G01X13990Y9088D01*
G37*
G36*
G01X13970Y6550D02*
G01X13950Y6548D01*
G01X13930Y6546D01*
G01X13911Y6541D01*
G01X13892Y6534D01*
G01X13875Y6525D01*
G01X13859Y6515D01*
G01X13843Y6504D01*
G01X13829Y6491D01*
G01X13816Y6477D01*
G01X13805Y6461D01*
G01X13795Y6445D01*
G01X13786Y6428D01*
G01X13780Y6409D01*
G01X13774Y6390D01*
G01X13772Y6370D01*
G01X13770Y6350D01*
G01X13804D01*
G01X13805Y6367D01*
G01X13807Y6384D01*
G01X13812Y6399D01*
G01X13817Y6415D01*
G01X13824Y6429D01*
G01X13832Y6443D01*
G01X13842Y6456D01*
G01X13853Y6467D01*
G01X13864Y6478D01*
G01X13877Y6488D01*
G01X13891Y6496D01*
G01X13905Y6503D01*
G01X13921Y6508D01*
G01X13936Y6513D01*
G01X13953Y6515D01*
G01X13970Y6516D01*
G01X13987Y6515D01*
G01X14004Y6513D01*
G01X14019Y6508D01*
G01X14035Y6503D01*
G01X14049Y6496D01*
G01X14063Y6488D01*
G01X14076Y6478D01*
G01X14087Y6467D01*
G01X14098Y6456D01*
G01X14108Y6443D01*
G01X14116Y6429D01*
G01X14123Y6415D01*
G01X14128Y6399D01*
G01X14133Y6384D01*
G01X14135Y6367D01*
G01X14136Y6350D01*
G01X14135Y6333D01*
G01X14133Y6316D01*
G01X14128Y6301D01*
G01X14123Y6285D01*
G01X14116Y6271D01*
G01X14108Y6257D01*
G01X14098Y6244D01*
G01X14087Y6233D01*
G01X14076Y6222D01*
G01X14063Y6212D01*
G01X14049Y6204D01*
G01X14035Y6197D01*
G01X14019Y6192D01*
G01X14004Y6187D01*
G01X13987Y6185D01*
G01X13970Y6184D01*
G01X13953Y6185D01*
G01X13936Y6187D01*
G01X13921Y6192D01*
G01X13905Y6197D01*
G01X13891Y6204D01*
G01X13877Y6212D01*
G01X13864Y6222D01*
G01X13853Y6233D01*
G01X13842Y6244D01*
G01X13832Y6257D01*
G01X13824Y6271D01*
G01X13817Y6285D01*
G01X13812Y6301D01*
G01X13807Y6316D01*
G01X13805Y6333D01*
G01X13804Y6350D01*
G01X13770D01*
G01X13772Y6330D01*
G01X13774Y6310D01*
G01X13780Y6291D01*
G01X13786Y6272D01*
G01X13795Y6255D01*
G01X13805Y6239D01*
G01X13816Y6223D01*
G01X13829Y6209D01*
G01X13843Y6196D01*
G01X13859Y6185D01*
G01X13875Y6175D01*
G01X13892Y6166D01*
G01X13911Y6160D01*
G01X13930Y6154D01*
G01X13950Y6152D01*
G01X13970Y6151D01*
G01X13990Y6152D01*
G01X14010Y6154D01*
G01X14029Y6160D01*
G01X14048Y6166D01*
G01X14065Y6175D01*
G01X14081Y6185D01*
G01X14097Y6196D01*
G01X14111Y6209D01*
G01X14124Y6223D01*
G01X14135Y6239D01*
G01X14145Y6255D01*
G01X14154Y6272D01*
G01X14161Y6291D01*
G01X14166Y6310D01*
G01X14168Y6330D01*
G01X14170Y6350D01*
G01X14168Y6370D01*
G01X14166Y6390D01*
G01X14161Y6409D01*
G01X14154Y6428D01*
G01X14145Y6445D01*
G01X14135Y6461D01*
G01X14124Y6477D01*
G01X14111Y6491D01*
G01X14097Y6504D01*
G01X14081Y6515D01*
G01X14065Y6525D01*
G01X14048Y6534D01*
G01X14029Y6541D01*
G01X14010Y6546D01*
G01X13990Y6548D01*
G37*
G36*
G01X13970Y4010D02*
G01X13950Y4008D01*
G01X13930Y4006D01*
G01X13911Y4001D01*
G01X13892Y3994D01*
G01X13875Y3985D01*
G01X13859Y3975D01*
G01X13843Y3964D01*
G01X13829Y3951D01*
G01X13816Y3937D01*
G01X13805Y3921D01*
G01X13795Y3905D01*
G01X13786Y3888D01*
G01X13780Y3869D01*
G01X13774Y3850D01*
G01X13772Y3830D01*
G01X13770Y3810D01*
G01X13804D01*
G01X13805Y3827D01*
G01X13807Y3844D01*
G01X13812Y3859D01*
G01X13817Y3875D01*
G01X13824Y3889D01*
G01X13832Y3903D01*
G01X13842Y3916D01*
G01X13853Y3927D01*
G01X13864Y3938D01*
G01X13877Y3948D01*
G01X13891Y3956D01*
G01X13905Y3963D01*
G01X13921Y3968D01*
G01X13936Y3973D01*
G01X13953Y3975D01*
G01X13970Y3976D01*
G01X13987Y3975D01*
G01X14004Y3973D01*
G01X14019Y3968D01*
G01X14035Y3963D01*
G01X14049Y3956D01*
G01X14063Y3948D01*
G01X14076Y3938D01*
G01X14087Y3927D01*
G01X14098Y3916D01*
G01X14108Y3903D01*
G01X14116Y3889D01*
G01X14123Y3875D01*
G01X14128Y3859D01*
G01X14133Y3844D01*
G01X14135Y3827D01*
G01X14136Y3810D01*
G01X14135Y3793D01*
G01X14133Y3776D01*
G01X14128Y3761D01*
G01X14123Y3745D01*
G01X14116Y3731D01*
G01X14108Y3717D01*
G01X14098Y3704D01*
G01X14087Y3693D01*
G01X14076Y3682D01*
G01X14063Y3672D01*
G01X14049Y3664D01*
G01X14035Y3657D01*
G01X14019Y3652D01*
G01X14004Y3647D01*
G01X13987Y3645D01*
G01X13970Y3644D01*
G01X13953Y3645D01*
G01X13936Y3647D01*
G01X13921Y3652D01*
G01X13905Y3657D01*
G01X13891Y3664D01*
G01X13877Y3672D01*
G01X13864Y3682D01*
G01X13853Y3693D01*
G01X13842Y3704D01*
G01X13832Y3717D01*
G01X13824Y3731D01*
G01X13817Y3745D01*
G01X13812Y3761D01*
G01X13807Y3776D01*
G01X13805Y3793D01*
G01X13804Y3810D01*
G01X13770D01*
G01X13772Y3790D01*
G01X13774Y3770D01*
G01X13780Y3751D01*
G01X13786Y3732D01*
G01X13795Y3715D01*
G01X13805Y3699D01*
G01X13816Y3683D01*
G01X13829Y3669D01*
G01X13843Y3656D01*
G01X13859Y3645D01*
G01X13875Y3635D01*
G01X13892Y3626D01*
G01X13911Y3620D01*
G01X13930Y3614D01*
G01X13950Y3612D01*
G01X13970Y3611D01*
G01X13990Y3612D01*
G01X14010Y3614D01*
G01X14029Y3620D01*
G01X14048Y3626D01*
G01X14065Y3635D01*
G01X14081Y3645D01*
G01X14097Y3656D01*
G01X14111Y3669D01*
G01X14124Y3683D01*
G01X14135Y3699D01*
G01X14145Y3715D01*
G01X14154Y3732D01*
G01X14161Y3751D01*
G01X14166Y3770D01*
G01X14168Y3790D01*
G01X14170Y3810D01*
G01X14168Y3830D01*
G01X14166Y3850D01*
G01X14161Y3869D01*
G01X14154Y3888D01*
G01X14145Y3905D01*
G01X14135Y3921D01*
G01X14124Y3937D01*
G01X14111Y3951D01*
G01X14097Y3964D01*
G01X14081Y3975D01*
G01X14065Y3985D01*
G01X14048Y3994D01*
G01X14029Y4001D01*
G01X14010Y4006D01*
G01X13990Y4008D01*
G37*
G36*
G01X13970Y1470D02*
G01X13950Y1468D01*
G01X13930Y1466D01*
G01X13911Y1461D01*
G01X13892Y1454D01*
G01X13875Y1445D01*
G01X13859Y1435D01*
G01X13843Y1424D01*
G01X13829Y1411D01*
G01X13816Y1397D01*
G01X13805Y1381D01*
G01X13795Y1365D01*
G01X13786Y1348D01*
G01X13780Y1329D01*
G01X13774Y1310D01*
G01X13772Y1290D01*
G01X13770Y1270D01*
G01X13804D01*
G01X13805Y1287D01*
G01X13807Y1304D01*
G01X13812Y1319D01*
G01X13817Y1335D01*
G01X13824Y1349D01*
G01X13832Y1363D01*
G01X13842Y1376D01*
G01X13853Y1387D01*
G01X13864Y1398D01*
G01X13877Y1408D01*
G01X13891Y1416D01*
G01X13905Y1423D01*
G01X13921Y1428D01*
G01X13936Y1433D01*
G01X13953Y1435D01*
G01X13970Y1436D01*
G01X13987Y1435D01*
G01X14004Y1433D01*
G01X14019Y1428D01*
G01X14035Y1423D01*
G01X14049Y1416D01*
G01X14063Y1408D01*
G01X14076Y1398D01*
G01X14087Y1387D01*
G01X14098Y1376D01*
G01X14108Y1363D01*
G01X14116Y1349D01*
G01X14123Y1335D01*
G01X14128Y1319D01*
G01X14133Y1304D01*
G01X14135Y1287D01*
G01X14136Y1270D01*
G01X14135Y1253D01*
G01X14133Y1236D01*
G01X14128Y1221D01*
G01X14123Y1205D01*
G01X14116Y1191D01*
G01X14108Y1177D01*
G01X14098Y1164D01*
G01X14087Y1153D01*
G01X14076Y1142D01*
G01X14063Y1132D01*
G01X14049Y1124D01*
G01X14035Y1117D01*
G01X14019Y1112D01*
G01X14004Y1107D01*
G01X13987Y1105D01*
G01X13970Y1104D01*
G01X13953Y1105D01*
G01X13936Y1107D01*
G01X13921Y1112D01*
G01X13905Y1117D01*
G01X13891Y1124D01*
G01X13877Y1132D01*
G01X13864Y1142D01*
G01X13853Y1153D01*
G01X13842Y1164D01*
G01X13832Y1177D01*
G01X13824Y1191D01*
G01X13817Y1205D01*
G01X13812Y1221D01*
G01X13807Y1236D01*
G01X13805Y1253D01*
G01X13804Y1270D01*
G01X13770D01*
G01X13772Y1250D01*
G01X13774Y1230D01*
G01X13780Y1211D01*
G01X13786Y1192D01*
G01X13795Y1175D01*
G01X13805Y1159D01*
G01X13816Y1143D01*
G01X13829Y1129D01*
G01X13843Y1116D01*
G01X13859Y1105D01*
G01X13875Y1095D01*
G01X13892Y1086D01*
G01X13911Y1080D01*
G01X13930Y1074D01*
G01X13950Y1072D01*
G01X13970Y1071D01*
G01X13990Y1072D01*
G01X14010Y1074D01*
G01X14029Y1080D01*
G01X14048Y1086D01*
G01X14065Y1095D01*
G01X14081Y1105D01*
G01X14097Y1116D01*
G01X14111Y1129D01*
G01X14124Y1143D01*
G01X14135Y1159D01*
G01X14145Y1175D01*
G01X14154Y1192D01*
G01X14161Y1211D01*
G01X14166Y1230D01*
G01X14168Y1250D01*
G01X14170Y1270D01*
G01X14168Y1290D01*
G01X14166Y1310D01*
G01X14161Y1329D01*
G01X14154Y1348D01*
G01X14145Y1365D01*
G01X14135Y1381D01*
G01X14124Y1397D01*
G01X14111Y1411D01*
G01X14097Y1424D01*
G01X14081Y1435D01*
G01X14065Y1445D01*
G01X14048Y1454D01*
G01X14029Y1461D01*
G01X14010Y1466D01*
G01X13990Y1468D01*
G37*
G36*
G01X1270Y1470D02*
G01X1250Y1468D01*
G01X1230Y1466D01*
G01X1211Y1461D01*
G01X1192Y1454D01*
G01X1175Y1445D01*
G01X1159Y1435D01*
G01X1143Y1424D01*
G01X1129Y1411D01*
G01X1116Y1397D01*
G01X1105Y1381D01*
G01X1095Y1365D01*
G01X1086Y1348D01*
G01X1080Y1329D01*
G01X1074Y1310D01*
G01X1072Y1290D01*
G01X1071Y1270D01*
G01X1104D01*
G01X1105Y1287D01*
G01X1107Y1304D01*
G01X1112Y1319D01*
G01X1117Y1335D01*
G01X1124Y1349D01*
G01X1132Y1363D01*
G01X1142Y1376D01*
G01X1153Y1387D01*
G01X1164Y1398D01*
G01X1177Y1408D01*
G01X1191Y1416D01*
G01X1205Y1423D01*
G01X1221Y1428D01*
G01X1236Y1433D01*
G01X1253Y1435D01*
G01X1270Y1436D01*
G01X1287Y1435D01*
G01X1304Y1433D01*
G01X1319Y1428D01*
G01X1335Y1423D01*
G01X1349Y1416D01*
G01X1363Y1408D01*
G01X1376Y1398D01*
G01X1387Y1387D01*
G01X1398Y1376D01*
G01X1408Y1363D01*
G01X1416Y1349D01*
G01X1423Y1335D01*
G01X1428Y1319D01*
G01X1433Y1304D01*
G01X1435Y1287D01*
G01X1436Y1270D01*
G01X1435Y1253D01*
G01X1433Y1236D01*
G01X1428Y1221D01*
G01X1423Y1205D01*
G01X1416Y1191D01*
G01X1408Y1177D01*
G01X1398Y1164D01*
G01X1387Y1153D01*
G01X1376Y1142D01*
G01X1363Y1132D01*
G01X1349Y1124D01*
G01X1335Y1117D01*
G01X1319Y1112D01*
G01X1304Y1107D01*
G01X1287Y1105D01*
G01X1270Y1104D01*
G01X1253Y1105D01*
G01X1236Y1107D01*
G01X1221Y1112D01*
G01X1205Y1117D01*
G01X1191Y1124D01*
G01X1177Y1132D01*
G01X1164Y1142D01*
G01X1153Y1153D01*
G01X1142Y1164D01*
G01X1132Y1177D01*
G01X1124Y1191D01*
G01X1117Y1205D01*
G01X1112Y1221D01*
G01X1107Y1236D01*
G01X1105Y1253D01*
G01X1104Y1270D01*
G01X1071D01*
G01X1072Y1250D01*
G01X1074Y1230D01*
G01X1080Y1211D01*
G01X1086Y1192D01*
G01X1095Y1175D01*
G01X1105Y1159D01*
G01X1116Y1143D01*
G01X1129Y1129D01*
G01X1143Y1116D01*
G01X1159Y1105D01*
G01X1175Y1095D01*
G01X1192Y1086D01*
G01X1211Y1080D01*
G01X1230Y1074D01*
G01X1250Y1072D01*
G01X1270Y1071D01*
G01X1290Y1072D01*
G01X1310Y1074D01*
G01X1329Y1080D01*
G01X1348Y1086D01*
G01X1365Y1095D01*
G01X1381Y1105D01*
G01X1397Y1116D01*
G01X1411Y1129D01*
G01X1424Y1143D01*
G01X1435Y1159D01*
G01X1445Y1175D01*
G01X1454Y1192D01*
G01X1461Y1211D01*
G01X1466Y1230D01*
G01X1468Y1250D01*
G01X1470Y1270D01*
G01X1468Y1290D01*
G01X1466Y1310D01*
G01X1461Y1329D01*
G01X1454Y1348D01*
G01X1445Y1365D01*
G01X1435Y1381D01*
G01X1424Y1397D01*
G01X1411Y1411D01*
G01X1397Y1424D01*
G01X1381Y1435D01*
G01X1365Y1445D01*
G01X1348Y1454D01*
G01X1329Y1461D01*
G01X1310Y1466D01*
G01X1290Y1468D01*
G37*
G36*
G01X1270Y4010D02*
G01X1250Y4008D01*
G01X1230Y4006D01*
G01X1211Y4001D01*
G01X1192Y3994D01*
G01X1175Y3985D01*
G01X1159Y3975D01*
G01X1143Y3964D01*
G01X1129Y3951D01*
G01X1116Y3937D01*
G01X1105Y3921D01*
G01X1095Y3905D01*
G01X1086Y3888D01*
G01X1080Y3869D01*
G01X1074Y3850D01*
G01X1072Y3830D01*
G01X1071Y3810D01*
G01X1104D01*
G01X1105Y3827D01*
G01X1107Y3844D01*
G01X1112Y3859D01*
G01X1117Y3875D01*
G01X1124Y3889D01*
G01X1132Y3903D01*
G01X1142Y3916D01*
G01X1153Y3927D01*
G01X1164Y3938D01*
G01X1177Y3948D01*
G01X1191Y3956D01*
G01X1205Y3963D01*
G01X1221Y3968D01*
G01X1236Y3973D01*
G01X1253Y3975D01*
G01X1270Y3976D01*
G01X1287Y3975D01*
G01X1304Y3973D01*
G01X1319Y3968D01*
G01X1335Y3963D01*
G01X1349Y3956D01*
G01X1363Y3948D01*
G01X1376Y3938D01*
G01X1387Y3927D01*
G01X1398Y3916D01*
G01X1408Y3903D01*
G01X1416Y3889D01*
G01X1423Y3875D01*
G01X1428Y3859D01*
G01X1433Y3844D01*
G01X1435Y3827D01*
G01X1436Y3810D01*
G01X1435Y3793D01*
G01X1433Y3776D01*
G01X1428Y3761D01*
G01X1423Y3745D01*
G01X1416Y3731D01*
G01X1408Y3717D01*
G01X1398Y3704D01*
G01X1387Y3693D01*
G01X1376Y3682D01*
G01X1363Y3672D01*
G01X1349Y3664D01*
G01X1335Y3657D01*
G01X1319Y3652D01*
G01X1304Y3647D01*
G01X1287Y3645D01*
G01X1270Y3644D01*
G01X1253Y3645D01*
G01X1236Y3647D01*
G01X1221Y3652D01*
G01X1205Y3657D01*
G01X1191Y3664D01*
G01X1177Y3672D01*
G01X1164Y3682D01*
G01X1153Y3693D01*
G01X1142Y3704D01*
G01X1132Y3717D01*
G01X1124Y3731D01*
G01X1117Y3745D01*
G01X1112Y3761D01*
G01X1107Y3776D01*
G01X1105Y3793D01*
G01X1104Y3810D01*
G01X1071D01*
G01X1072Y3790D01*
G01X1074Y3770D01*
G01X1080Y3751D01*
G01X1086Y3732D01*
G01X1095Y3715D01*
G01X1105Y3699D01*
G01X1116Y3683D01*
G01X1129Y3669D01*
G01X1143Y3656D01*
G01X1159Y3645D01*
G01X1175Y3635D01*
G01X1192Y3626D01*
G01X1211Y3620D01*
G01X1230Y3614D01*
G01X1250Y3612D01*
G01X1270Y3611D01*
G01X1290Y3612D01*
G01X1310Y3614D01*
G01X1329Y3620D01*
G01X1348Y3626D01*
G01X1365Y3635D01*
G01X1381Y3645D01*
G01X1397Y3656D01*
G01X1411Y3669D01*
G01X1424Y3683D01*
G01X1435Y3699D01*
G01X1445Y3715D01*
G01X1454Y3732D01*
G01X1461Y3751D01*
G01X1466Y3770D01*
G01X1468Y3790D01*
G01X1470Y3810D01*
G01X1468Y3830D01*
G01X1466Y3850D01*
G01X1461Y3869D01*
G01X1454Y3888D01*
G01X1445Y3905D01*
G01X1435Y3921D01*
G01X1424Y3937D01*
G01X1411Y3951D01*
G01X1397Y3964D01*
G01X1381Y3975D01*
G01X1365Y3985D01*
G01X1348Y3994D01*
G01X1329Y4001D01*
G01X1310Y4006D01*
G01X1290Y4008D01*
G37*
G36*
G01X1270Y6550D02*
G01X1250Y6548D01*
G01X1230Y6546D01*
G01X1211Y6541D01*
G01X1192Y6534D01*
G01X1175Y6525D01*
G01X1159Y6515D01*
G01X1143Y6504D01*
G01X1129Y6491D01*
G01X1116Y6477D01*
G01X1105Y6461D01*
G01X1095Y6445D01*
G01X1086Y6428D01*
G01X1080Y6409D01*
G01X1074Y6390D01*
G01X1072Y6370D01*
G01X1071Y6350D01*
G01X1104D01*
G01X1105Y6367D01*
G01X1107Y6384D01*
G01X1112Y6399D01*
G01X1117Y6415D01*
G01X1124Y6429D01*
G01X1132Y6443D01*
G01X1142Y6456D01*
G01X1153Y6467D01*
G01X1164Y6478D01*
G01X1177Y6488D01*
G01X1191Y6496D01*
G01X1205Y6503D01*
G01X1221Y6508D01*
G01X1236Y6513D01*
G01X1253Y6515D01*
G01X1270Y6516D01*
G01X1287Y6515D01*
G01X1304Y6513D01*
G01X1319Y6508D01*
G01X1335Y6503D01*
G01X1349Y6496D01*
G01X1363Y6488D01*
G01X1376Y6478D01*
G01X1387Y6467D01*
G01X1398Y6456D01*
G01X1408Y6443D01*
G01X1416Y6429D01*
G01X1423Y6415D01*
G01X1428Y6399D01*
G01X1433Y6384D01*
G01X1435Y6367D01*
G01X1436Y6350D01*
G01X1435Y6333D01*
G01X1433Y6316D01*
G01X1428Y6301D01*
G01X1423Y6285D01*
G01X1416Y6271D01*
G01X1408Y6257D01*
G01X1398Y6244D01*
G01X1387Y6233D01*
G01X1376Y6222D01*
G01X1363Y6212D01*
G01X1349Y6204D01*
G01X1335Y6197D01*
G01X1319Y6192D01*
G01X1304Y6187D01*
G01X1287Y6185D01*
G01X1270Y6184D01*
G01X1253Y6185D01*
G01X1236Y6187D01*
G01X1221Y6192D01*
G01X1205Y6197D01*
G01X1191Y6204D01*
G01X1177Y6212D01*
G01X1164Y6222D01*
G01X1153Y6233D01*
G01X1142Y6244D01*
G01X1132Y6257D01*
G01X1124Y6271D01*
G01X1117Y6285D01*
G01X1112Y6301D01*
G01X1107Y6316D01*
G01X1105Y6333D01*
G01X1104Y6350D01*
G01X1071D01*
G01X1072Y6330D01*
G01X1074Y6310D01*
G01X1080Y6291D01*
G01X1086Y6272D01*
G01X1095Y6255D01*
G01X1105Y6239D01*
G01X1116Y6223D01*
G01X1129Y6209D01*
G01X1143Y6196D01*
G01X1159Y6185D01*
G01X1175Y6175D01*
G01X1192Y6166D01*
G01X1211Y6160D01*
G01X1230Y6154D01*
G01X1250Y6152D01*
G01X1270Y6151D01*
G01X1290Y6152D01*
G01X1310Y6154D01*
G01X1329Y6160D01*
G01X1348Y6166D01*
G01X1365Y6175D01*
G01X1381Y6185D01*
G01X1397Y6196D01*
G01X1411Y6209D01*
G01X1424Y6223D01*
G01X1435Y6239D01*
G01X1445Y6255D01*
G01X1454Y6272D01*
G01X1461Y6291D01*
G01X1466Y6310D01*
G01X1468Y6330D01*
G01X1470Y6350D01*
G01X1468Y6370D01*
G01X1466Y6390D01*
G01X1461Y6409D01*
G01X1454Y6428D01*
G01X1445Y6445D01*
G01X1435Y6461D01*
G01X1424Y6477D01*
G01X1411Y6491D01*
G01X1397Y6504D01*
G01X1381Y6515D01*
G01X1365Y6525D01*
G01X1348Y6534D01*
G01X1329Y6541D01*
G01X1310Y6546D01*
G01X1290Y6548D01*
G37*
G36*
G01X1270Y9090D02*
G01X1250Y9088D01*
G01X1230Y9086D01*
G01X1211Y9081D01*
G01X1192Y9074D01*
G01X1175Y9065D01*
G01X1159Y9055D01*
G01X1143Y9044D01*
G01X1129Y9031D01*
G01X1116Y9017D01*
G01X1105Y9001D01*
G01X1095Y8985D01*
G01X1086Y8968D01*
G01X1080Y8949D01*
G01X1074Y8930D01*
G01X1072Y8910D01*
G01X1071Y8890D01*
G01X1104D01*
G01X1105Y8907D01*
G01X1107Y8924D01*
G01X1112Y8939D01*
G01X1117Y8955D01*
G01X1124Y8969D01*
G01X1132Y8983D01*
G01X1142Y8996D01*
G01X1153Y9007D01*
G01X1164Y9018D01*
G01X1177Y9028D01*
G01X1191Y9036D01*
G01X1205Y9043D01*
G01X1221Y9048D01*
G01X1236Y9053D01*
G01X1253Y9055D01*
G01X1270Y9056D01*
G01X1287Y9055D01*
G01X1304Y9053D01*
G01X1319Y9048D01*
G01X1335Y9043D01*
G01X1349Y9036D01*
G01X1363Y9028D01*
G01X1376Y9018D01*
G01X1387Y9007D01*
G01X1398Y8996D01*
G01X1408Y8983D01*
G01X1416Y8969D01*
G01X1423Y8955D01*
G01X1428Y8939D01*
G01X1433Y8924D01*
G01X1435Y8907D01*
G01X1436Y8890D01*
G01X1435Y8873D01*
G01X1433Y8856D01*
G01X1428Y8841D01*
G01X1423Y8825D01*
G01X1416Y8811D01*
G01X1408Y8797D01*
G01X1398Y8784D01*
G01X1387Y8773D01*
G01X1376Y8762D01*
G01X1363Y8752D01*
G01X1349Y8744D01*
G01X1335Y8737D01*
G01X1319Y8732D01*
G01X1304Y8727D01*
G01X1287Y8725D01*
G01X1270Y8724D01*
G01X1253Y8725D01*
G01X1236Y8727D01*
G01X1221Y8732D01*
G01X1205Y8737D01*
G01X1191Y8744D01*
G01X1177Y8752D01*
G01X1164Y8762D01*
G01X1153Y8773D01*
G01X1142Y8784D01*
G01X1132Y8797D01*
G01X1124Y8811D01*
G01X1117Y8825D01*
G01X1112Y8841D01*
G01X1107Y8856D01*
G01X1105Y8873D01*
G01X1104Y8890D01*
G01X1071D01*
G01X1072Y8870D01*
G01X1074Y8850D01*
G01X1080Y8831D01*
G01X1086Y8812D01*
G01X1095Y8795D01*
G01X1105Y8779D01*
G01X1116Y8763D01*
G01X1129Y8749D01*
G01X1143Y8736D01*
G01X1159Y8725D01*
G01X1175Y8715D01*
G01X1192Y8706D01*
G01X1211Y8700D01*
G01X1230Y8694D01*
G01X1250Y8692D01*
G01X1270Y8691D01*
G01X1290Y8692D01*
G01X1310Y8694D01*
G01X1329Y8700D01*
G01X1348Y8706D01*
G01X1365Y8715D01*
G01X1381Y8725D01*
G01X1397Y8736D01*
G01X1411Y8749D01*
G01X1424Y8763D01*
G01X1435Y8779D01*
G01X1445Y8795D01*
G01X1454Y8812D01*
G01X1461Y8831D01*
G01X1466Y8850D01*
G01X1468Y8870D01*
G01X1470Y8890D01*
G01X1468Y8910D01*
G01X1466Y8930D01*
G01X1461Y8949D01*
G01X1454Y8968D01*
G01X1445Y8985D01*
G01X1435Y9001D01*
G01X1424Y9017D01*
G01X1411Y9031D01*
G01X1397Y9044D01*
G01X1381Y9055D01*
G01X1365Y9065D01*
G01X1348Y9074D01*
G01X1329Y9081D01*
G01X1310Y9086D01*
G01X1290Y9088D01*
G37*
G36*
G01X1270Y11630D02*
G01X1250Y11628D01*
G01X1230Y11626D01*
G01X1211Y11621D01*
G01X1192Y11614D01*
G01X1175Y11605D01*
G01X1159Y11595D01*
G01X1143Y11584D01*
G01X1129Y11571D01*
G01X1116Y11557D01*
G01X1105Y11541D01*
G01X1095Y11525D01*
G01X1086Y11508D01*
G01X1080Y11489D01*
G01X1074Y11470D01*
G01X1072Y11450D01*
G01X1071Y11430D01*
G01X1104D01*
G01X1105Y11447D01*
G01X1107Y11464D01*
G01X1112Y11479D01*
G01X1117Y11495D01*
G01X1124Y11509D01*
G01X1132Y11523D01*
G01X1142Y11536D01*
G01X1153Y11547D01*
G01X1164Y11558D01*
G01X1177Y11568D01*
G01X1191Y11576D01*
G01X1205Y11583D01*
G01X1221Y11588D01*
G01X1236Y11593D01*
G01X1253Y11595D01*
G01X1270Y11596D01*
G01X1287Y11595D01*
G01X1304Y11593D01*
G01X1319Y11588D01*
G01X1335Y11583D01*
G01X1349Y11576D01*
G01X1363Y11568D01*
G01X1376Y11558D01*
G01X1387Y11547D01*
G01X1398Y11536D01*
G01X1408Y11523D01*
G01X1416Y11509D01*
G01X1423Y11495D01*
G01X1428Y11479D01*
G01X1433Y11464D01*
G01X1435Y11447D01*
G01X1436Y11430D01*
G01X1435Y11413D01*
G01X1433Y11396D01*
G01X1428Y11381D01*
G01X1423Y11365D01*
G01X1416Y11351D01*
G01X1408Y11337D01*
G01X1398Y11324D01*
G01X1387Y11313D01*
G01X1376Y11302D01*
G01X1363Y11292D01*
G01X1349Y11284D01*
G01X1335Y11277D01*
G01X1319Y11272D01*
G01X1304Y11267D01*
G01X1287Y11265D01*
G01X1270Y11264D01*
G01X1253Y11265D01*
G01X1236Y11267D01*
G01X1221Y11272D01*
G01X1205Y11277D01*
G01X1191Y11284D01*
G01X1177Y11292D01*
G01X1164Y11302D01*
G01X1153Y11313D01*
G01X1142Y11324D01*
G01X1132Y11337D01*
G01X1124Y11351D01*
G01X1117Y11365D01*
G01X1112Y11381D01*
G01X1107Y11396D01*
G01X1105Y11413D01*
G01X1104Y11430D01*
G01X1071D01*
G01X1072Y11410D01*
G01X1074Y11390D01*
G01X1080Y11371D01*
G01X1086Y11352D01*
G01X1095Y11335D01*
G01X1105Y11319D01*
G01X1116Y11303D01*
G01X1129Y11289D01*
G01X1143Y11276D01*
G01X1159Y11265D01*
G01X1175Y11255D01*
G01X1192Y11246D01*
G01X1211Y11240D01*
G01X1230Y11234D01*
G01X1250Y11232D01*
G01X1270Y11231D01*
G01X1290Y11232D01*
G01X1310Y11234D01*
G01X1329Y11240D01*
G01X1348Y11246D01*
G01X1365Y11255D01*
G01X1381Y11265D01*
G01X1397Y11276D01*
G01X1411Y11289D01*
G01X1424Y11303D01*
G01X1435Y11319D01*
G01X1445Y11335D01*
G01X1454Y11352D01*
G01X1461Y11371D01*
G01X1466Y11390D01*
G01X1468Y11410D01*
G01X1470Y11430D01*
G01X1468Y11450D01*
G01X1466Y11470D01*
G01X1461Y11489D01*
G01X1454Y11508D01*
G01X1445Y11525D01*
G01X1435Y11541D01*
G01X1424Y11557D01*
G01X1411Y11571D01*
G01X1397Y11584D01*
G01X1381Y11595D01*
G01X1365Y11605D01*
G01X1348Y11614D01*
G01X1329Y11621D01*
G01X1310Y11626D01*
G01X1290Y11628D01*
G37*
G36*
G01X1270Y14170D02*
G01X1250Y14168D01*
G01X1230Y14166D01*
G01X1211Y14161D01*
G01X1192Y14154D01*
G01X1175Y14145D01*
G01X1159Y14135D01*
G01X1143Y14124D01*
G01X1129Y14111D01*
G01X1116Y14097D01*
G01X1105Y14081D01*
G01X1095Y14065D01*
G01X1086Y14048D01*
G01X1080Y14029D01*
G01X1074Y14010D01*
G01X1072Y13990D01*
G01X1071Y13970D01*
G01X1104D01*
G01X1105Y13987D01*
G01X1107Y14004D01*
G01X1112Y14019D01*
G01X1117Y14035D01*
G01X1124Y14049D01*
G01X1132Y14063D01*
G01X1142Y14076D01*
G01X1153Y14087D01*
G01X1164Y14098D01*
G01X1177Y14108D01*
G01X1191Y14116D01*
G01X1205Y14123D01*
G01X1221Y14128D01*
G01X1236Y14133D01*
G01X1253Y14135D01*
G01X1270Y14136D01*
G01X1287Y14135D01*
G01X1304Y14133D01*
G01X1319Y14128D01*
G01X1335Y14123D01*
G01X1349Y14116D01*
G01X1363Y14108D01*
G01X1376Y14098D01*
G01X1387Y14087D01*
G01X1398Y14076D01*
G01X1408Y14063D01*
G01X1416Y14049D01*
G01X1423Y14035D01*
G01X1428Y14019D01*
G01X1433Y14004D01*
G01X1435Y13987D01*
G01X1436Y13970D01*
G01X1435Y13953D01*
G01X1433Y13936D01*
G01X1428Y13921D01*
G01X1423Y13905D01*
G01X1416Y13891D01*
G01X1408Y13877D01*
G01X1398Y13864D01*
G01X1387Y13853D01*
G01X1376Y13842D01*
G01X1363Y13832D01*
G01X1349Y13824D01*
G01X1335Y13817D01*
G01X1319Y13812D01*
G01X1304Y13807D01*
G01X1287Y13805D01*
G01X1270Y13804D01*
G01X1253Y13805D01*
G01X1236Y13807D01*
G01X1221Y13812D01*
G01X1205Y13817D01*
G01X1191Y13824D01*
G01X1177Y13832D01*
G01X1164Y13842D01*
G01X1153Y13853D01*
G01X1142Y13864D01*
G01X1132Y13877D01*
G01X1124Y13891D01*
G01X1117Y13905D01*
G01X1112Y13921D01*
G01X1107Y13936D01*
G01X1105Y13953D01*
G01X1104Y13970D01*
G01X1071D01*
G01X1072Y13950D01*
G01X1074Y13930D01*
G01X1080Y13911D01*
G01X1086Y13892D01*
G01X1095Y13875D01*
G01X1105Y13859D01*
G01X1116Y13843D01*
G01X1129Y13829D01*
G01X1143Y13816D01*
G01X1159Y13805D01*
G01X1175Y13795D01*
G01X1192Y13786D01*
G01X1211Y13780D01*
G01X1230Y13774D01*
G01X1250Y13772D01*
G01X1270Y13771D01*
G01X1290Y13772D01*
G01X1310Y13774D01*
G01X1329Y13780D01*
G01X1348Y13786D01*
G01X1365Y13795D01*
G01X1381Y13805D01*
G01X1397Y13816D01*
G01X1411Y13829D01*
G01X1424Y13843D01*
G01X1435Y13859D01*
G01X1445Y13875D01*
G01X1454Y13892D01*
G01X1461Y13911D01*
G01X1466Y13930D01*
G01X1468Y13950D01*
G01X1470Y13970D01*
G01X1468Y13990D01*
G01X1466Y14010D01*
G01X1461Y14029D01*
G01X1454Y14048D01*
G01X1445Y14065D01*
G01X1435Y14081D01*
G01X1424Y14097D01*
G01X1411Y14111D01*
G01X1397Y14124D01*
G01X1381Y14135D01*
G01X1365Y14145D01*
G01X1348Y14154D01*
G01X1329Y14161D01*
G01X1310Y14166D01*
G01X1290Y14168D01*
G37*
G36*
G01X1270Y16710D02*
G01X1250Y16708D01*
G01X1230Y16706D01*
G01X1211Y16701D01*
G01X1192Y16694D01*
G01X1175Y16685D01*
G01X1159Y16675D01*
G01X1143Y16664D01*
G01X1129Y16651D01*
G01X1116Y16637D01*
G01X1105Y16621D01*
G01X1095Y16605D01*
G01X1086Y16588D01*
G01X1080Y16569D01*
G01X1074Y16550D01*
G01X1072Y16530D01*
G01X1071Y16510D01*
G01X1104D01*
G01X1105Y16527D01*
G01X1107Y16544D01*
G01X1112Y16559D01*
G01X1117Y16575D01*
G01X1124Y16589D01*
G01X1132Y16603D01*
G01X1142Y16616D01*
G01X1153Y16627D01*
G01X1164Y16638D01*
G01X1177Y16648D01*
G01X1191Y16656D01*
G01X1205Y16663D01*
G01X1221Y16668D01*
G01X1236Y16673D01*
G01X1253Y16675D01*
G01X1270Y16676D01*
G01X1287Y16675D01*
G01X1304Y16673D01*
G01X1319Y16668D01*
G01X1335Y16663D01*
G01X1349Y16656D01*
G01X1363Y16648D01*
G01X1376Y16638D01*
G01X1387Y16627D01*
G01X1398Y16616D01*
G01X1408Y16603D01*
G01X1416Y16589D01*
G01X1423Y16575D01*
G01X1428Y16559D01*
G01X1433Y16544D01*
G01X1435Y16527D01*
G01X1436Y16510D01*
G01X1435Y16493D01*
G01X1433Y16476D01*
G01X1428Y16461D01*
G01X1423Y16445D01*
G01X1416Y16431D01*
G01X1408Y16417D01*
G01X1398Y16404D01*
G01X1387Y16393D01*
G01X1376Y16382D01*
G01X1363Y16372D01*
G01X1349Y16364D01*
G01X1335Y16357D01*
G01X1319Y16352D01*
G01X1304Y16347D01*
G01X1287Y16345D01*
G01X1270Y16344D01*
G01X1253Y16345D01*
G01X1236Y16347D01*
G01X1221Y16352D01*
G01X1205Y16357D01*
G01X1191Y16364D01*
G01X1177Y16372D01*
G01X1164Y16382D01*
G01X1153Y16393D01*
G01X1142Y16404D01*
G01X1132Y16417D01*
G01X1124Y16431D01*
G01X1117Y16445D01*
G01X1112Y16461D01*
G01X1107Y16476D01*
G01X1105Y16493D01*
G01X1104Y16510D01*
G01X1071D01*
G01X1072Y16490D01*
G01X1074Y16470D01*
G01X1080Y16451D01*
G01X1086Y16432D01*
G01X1095Y16415D01*
G01X1105Y16399D01*
G01X1116Y16383D01*
G01X1129Y16369D01*
G01X1143Y16356D01*
G01X1159Y16345D01*
G01X1175Y16335D01*
G01X1192Y16326D01*
G01X1211Y16320D01*
G01X1230Y16314D01*
G01X1250Y16312D01*
G01X1270Y16311D01*
G01X1290Y16312D01*
G01X1310Y16314D01*
G01X1329Y16320D01*
G01X1348Y16326D01*
G01X1365Y16335D01*
G01X1381Y16345D01*
G01X1397Y16356D01*
G01X1411Y16369D01*
G01X1424Y16383D01*
G01X1435Y16399D01*
G01X1445Y16415D01*
G01X1454Y16432D01*
G01X1461Y16451D01*
G01X1466Y16470D01*
G01X1468Y16490D01*
G01X1470Y16510D01*
G01X1468Y16530D01*
G01X1466Y16550D01*
G01X1461Y16569D01*
G01X1454Y16588D01*
G01X1445Y16605D01*
G01X1435Y16621D01*
G01X1424Y16637D01*
G01X1411Y16651D01*
G01X1397Y16664D01*
G01X1381Y16675D01*
G01X1365Y16685D01*
G01X1348Y16694D01*
G01X1329Y16701D01*
G01X1310Y16706D01*
G01X1290Y16708D01*
G37*
G36*
G01X1270Y19250D02*
G01X1250Y19248D01*
G01X1230Y19246D01*
G01X1211Y19241D01*
G01X1192Y19234D01*
G01X1175Y19225D01*
G01X1159Y19215D01*
G01X1143Y19204D01*
G01X1129Y19191D01*
G01X1116Y19177D01*
G01X1105Y19161D01*
G01X1095Y19145D01*
G01X1086Y19128D01*
G01X1080Y19109D01*
G01X1074Y19090D01*
G01X1072Y19070D01*
G01X1071Y19050D01*
G01X1104D01*
G01X1105Y19067D01*
G01X1107Y19084D01*
G01X1112Y19099D01*
G01X1117Y19115D01*
G01X1124Y19129D01*
G01X1132Y19143D01*
G01X1142Y19156D01*
G01X1153Y19167D01*
G01X1164Y19178D01*
G01X1177Y19188D01*
G01X1191Y19196D01*
G01X1205Y19203D01*
G01X1221Y19208D01*
G01X1236Y19213D01*
G01X1253Y19215D01*
G01X1270Y19216D01*
G01X1287Y19215D01*
G01X1304Y19213D01*
G01X1319Y19208D01*
G01X1335Y19203D01*
G01X1349Y19196D01*
G01X1363Y19188D01*
G01X1376Y19178D01*
G01X1387Y19167D01*
G01X1398Y19156D01*
G01X1408Y19143D01*
G01X1416Y19129D01*
G01X1423Y19115D01*
G01X1428Y19099D01*
G01X1433Y19084D01*
G01X1435Y19067D01*
G01X1436Y19050D01*
G01X1435Y19033D01*
G01X1433Y19016D01*
G01X1428Y19001D01*
G01X1423Y18985D01*
G01X1416Y18971D01*
G01X1408Y18957D01*
G01X1398Y18944D01*
G01X1387Y18933D01*
G01X1376Y18922D01*
G01X1363Y18912D01*
G01X1349Y18904D01*
G01X1335Y18897D01*
G01X1319Y18892D01*
G01X1304Y18887D01*
G01X1287Y18885D01*
G01X1270Y18884D01*
G01X1253Y18885D01*
G01X1236Y18887D01*
G01X1221Y18892D01*
G01X1205Y18897D01*
G01X1191Y18904D01*
G01X1177Y18912D01*
G01X1164Y18922D01*
G01X1153Y18933D01*
G01X1142Y18944D01*
G01X1132Y18957D01*
G01X1124Y18971D01*
G01X1117Y18985D01*
G01X1112Y19001D01*
G01X1107Y19016D01*
G01X1105Y19033D01*
G01X1104Y19050D01*
G01X1071D01*
G01X1072Y19030D01*
G01X1074Y19010D01*
G01X1080Y18991D01*
G01X1086Y18972D01*
G01X1095Y18955D01*
G01X1105Y18939D01*
G01X1116Y18923D01*
G01X1129Y18909D01*
G01X1143Y18896D01*
G01X1159Y18885D01*
G01X1175Y18875D01*
G01X1192Y18866D01*
G01X1211Y18860D01*
G01X1230Y18854D01*
G01X1250Y18852D01*
G01X1270Y18851D01*
G01X1290Y18852D01*
G01X1310Y18854D01*
G01X1329Y18860D01*
G01X1348Y18866D01*
G01X1365Y18875D01*
G01X1381Y18885D01*
G01X1397Y18896D01*
G01X1411Y18909D01*
G01X1424Y18923D01*
G01X1435Y18939D01*
G01X1445Y18955D01*
G01X1454Y18972D01*
G01X1461Y18991D01*
G01X1466Y19010D01*
G01X1468Y19030D01*
G01X1470Y19050D01*
G01X1468Y19070D01*
G01X1466Y19090D01*
G01X1461Y19109D01*
G01X1454Y19128D01*
G01X1445Y19145D01*
G01X1435Y19161D01*
G01X1424Y19177D01*
G01X1411Y19191D01*
G01X1397Y19204D01*
G01X1381Y19215D01*
G01X1365Y19225D01*
G01X1348Y19234D01*
G01X1329Y19241D01*
G01X1310Y19246D01*
G01X1290Y19248D01*
G37*
G36*
G01X11430Y19250D02*
G01X11410Y19248D01*
G01X11390Y19246D01*
G01X11371Y19241D01*
G01X11352Y19234D01*
G01X11335Y19225D01*
G01X11319Y19215D01*
G01X11303Y19204D01*
G01X11289Y19191D01*
G01X11276Y19177D01*
G01X11265Y19161D01*
G01X11255Y19145D01*
G01X11246Y19128D01*
G01X11240Y19109D01*
G01X11234Y19090D01*
G01X11232Y19070D01*
G01X11231Y19050D01*
G01X11264D01*
G01X11265Y19067D01*
G01X11267Y19084D01*
G01X11272Y19099D01*
G01X11277Y19115D01*
G01X11284Y19129D01*
G01X11292Y19143D01*
G01X11302Y19156D01*
G01X11313Y19167D01*
G01X11324Y19178D01*
G01X11337Y19188D01*
G01X11351Y19196D01*
G01X11365Y19203D01*
G01X11381Y19208D01*
G01X11396Y19213D01*
G01X11413Y19215D01*
G01X11430Y19216D01*
G01X11447Y19215D01*
G01X11464Y19213D01*
G01X11479Y19208D01*
G01X11495Y19203D01*
G01X11509Y19196D01*
G01X11523Y19188D01*
G01X11536Y19178D01*
G01X11547Y19167D01*
G01X11558Y19156D01*
G01X11568Y19143D01*
G01X11576Y19129D01*
G01X11583Y19115D01*
G01X11588Y19099D01*
G01X11593Y19084D01*
G01X11595Y19067D01*
G01X11596Y19050D01*
G01X11595Y19033D01*
G01X11593Y19016D01*
G01X11588Y19001D01*
G01X11583Y18985D01*
G01X11576Y18971D01*
G01X11568Y18957D01*
G01X11558Y18944D01*
G01X11547Y18933D01*
G01X11536Y18922D01*
G01X11523Y18912D01*
G01X11509Y18904D01*
G01X11495Y18897D01*
G01X11479Y18892D01*
G01X11464Y18887D01*
G01X11447Y18885D01*
G01X11430Y18884D01*
G01X11413Y18885D01*
G01X11396Y18887D01*
G01X11381Y18892D01*
G01X11365Y18897D01*
G01X11351Y18904D01*
G01X11337Y18912D01*
G01X11324Y18922D01*
G01X11313Y18933D01*
G01X11302Y18944D01*
G01X11292Y18957D01*
G01X11284Y18971D01*
G01X11277Y18985D01*
G01X11272Y19001D01*
G01X11267Y19016D01*
G01X11265Y19033D01*
G01X11264Y19050D01*
G01X11231D01*
G01X11232Y19030D01*
G01X11234Y19010D01*
G01X11240Y18991D01*
G01X11246Y18972D01*
G01X11255Y18955D01*
G01X11265Y18939D01*
G01X11276Y18923D01*
G01X11289Y18909D01*
G01X11303Y18896D01*
G01X11319Y18885D01*
G01X11335Y18875D01*
G01X11352Y18866D01*
G01X11371Y18860D01*
G01X11390Y18854D01*
G01X11410Y18852D01*
G01X11430Y18851D01*
G01X11450Y18852D01*
G01X11470Y18854D01*
G01X11489Y18860D01*
G01X11508Y18866D01*
G01X11525Y18875D01*
G01X11541Y18885D01*
G01X11557Y18896D01*
G01X11571Y18909D01*
G01X11584Y18923D01*
G01X11595Y18939D01*
G01X11605Y18955D01*
G01X11614Y18972D01*
G01X11621Y18991D01*
G01X11626Y19010D01*
G01X11628Y19030D01*
G01X11630Y19050D01*
G01X11628Y19070D01*
G01X11626Y19090D01*
G01X11621Y19109D01*
G01X11614Y19128D01*
G01X11605Y19145D01*
G01X11595Y19161D01*
G01X11584Y19177D01*
G01X11571Y19191D01*
G01X11557Y19204D01*
G01X11541Y19215D01*
G01X11525Y19225D01*
G01X11508Y19234D01*
G01X11489Y19241D01*
G01X11470Y19246D01*
G01X11450Y19248D01*
G37*
G36*
G01X8890Y19250D02*
G01X8870Y19248D01*
G01X8850Y19246D01*
G01X8831Y19241D01*
G01X8812Y19234D01*
G01X8795Y19225D01*
G01X8779Y19215D01*
G01X8763Y19204D01*
G01X8749Y19191D01*
G01X8736Y19177D01*
G01X8725Y19161D01*
G01X8715Y19145D01*
G01X8706Y19128D01*
G01X8700Y19109D01*
G01X8694Y19090D01*
G01X8692Y19070D01*
G01X8690Y19050D01*
G01X8724D01*
G01X8725Y19067D01*
G01X8727Y19084D01*
G01X8732Y19099D01*
G01X8737Y19115D01*
G01X8744Y19129D01*
G01X8752Y19143D01*
G01X8762Y19156D01*
G01X8773Y19167D01*
G01X8784Y19178D01*
G01X8797Y19188D01*
G01X8811Y19196D01*
G01X8825Y19203D01*
G01X8841Y19208D01*
G01X8856Y19213D01*
G01X8873Y19215D01*
G01X8890Y19216D01*
G01X8907Y19215D01*
G01X8924Y19213D01*
G01X8939Y19208D01*
G01X8955Y19203D01*
G01X8969Y19196D01*
G01X8983Y19188D01*
G01X8996Y19178D01*
G01X9007Y19167D01*
G01X9018Y19156D01*
G01X9028Y19143D01*
G01X9036Y19129D01*
G01X9043Y19115D01*
G01X9048Y19099D01*
G01X9053Y19084D01*
G01X9055Y19067D01*
G01X9056Y19050D01*
G01X9055Y19033D01*
G01X9053Y19016D01*
G01X9048Y19001D01*
G01X9043Y18985D01*
G01X9036Y18971D01*
G01X9028Y18957D01*
G01X9018Y18944D01*
G01X9007Y18933D01*
G01X8996Y18922D01*
G01X8983Y18912D01*
G01X8969Y18904D01*
G01X8955Y18897D01*
G01X8939Y18892D01*
G01X8924Y18887D01*
G01X8907Y18885D01*
G01X8890Y18884D01*
G01X8873Y18885D01*
G01X8856Y18887D01*
G01X8841Y18892D01*
G01X8825Y18897D01*
G01X8811Y18904D01*
G01X8797Y18912D01*
G01X8784Y18922D01*
G01X8773Y18933D01*
G01X8762Y18944D01*
G01X8752Y18957D01*
G01X8744Y18971D01*
G01X8737Y18985D01*
G01X8732Y19001D01*
G01X8727Y19016D01*
G01X8725Y19033D01*
G01X8724Y19050D01*
G01X8690D01*
G01X8692Y19030D01*
G01X8694Y19010D01*
G01X8700Y18991D01*
G01X8706Y18972D01*
G01X8715Y18955D01*
G01X8725Y18939D01*
G01X8736Y18923D01*
G01X8749Y18909D01*
G01X8763Y18896D01*
G01X8779Y18885D01*
G01X8795Y18875D01*
G01X8812Y18866D01*
G01X8831Y18860D01*
G01X8850Y18854D01*
G01X8870Y18852D01*
G01X8890Y18851D01*
G01X8910Y18852D01*
G01X8930Y18854D01*
G01X8949Y18860D01*
G01X8968Y18866D01*
G01X8985Y18875D01*
G01X9001Y18885D01*
G01X9017Y18896D01*
G01X9031Y18909D01*
G01X9044Y18923D01*
G01X9055Y18939D01*
G01X9065Y18955D01*
G01X9074Y18972D01*
G01X9081Y18991D01*
G01X9086Y19010D01*
G01X9088Y19030D01*
G01X9090Y19050D01*
G01X9088Y19070D01*
G01X9086Y19090D01*
G01X9081Y19109D01*
G01X9074Y19128D01*
G01X9065Y19145D01*
G01X9055Y19161D01*
G01X9044Y19177D01*
G01X9031Y19191D01*
G01X9017Y19204D01*
G01X9001Y19215D01*
G01X8985Y19225D01*
G01X8968Y19234D01*
G01X8949Y19241D01*
G01X8930Y19246D01*
G01X8910Y19248D01*
G37*
G36*
G01X6350Y19250D02*
G01X6330Y19248D01*
G01X6310Y19246D01*
G01X6291Y19241D01*
G01X6272Y19234D01*
G01X6255Y19225D01*
G01X6239Y19215D01*
G01X6223Y19204D01*
G01X6209Y19191D01*
G01X6196Y19177D01*
G01X6185Y19161D01*
G01X6175Y19145D01*
G01X6166Y19128D01*
G01X6160Y19109D01*
G01X6154Y19090D01*
G01X6152Y19070D01*
G01X6151Y19050D01*
G01X6184D01*
G01X6185Y19067D01*
G01X6187Y19084D01*
G01X6192Y19099D01*
G01X6197Y19115D01*
G01X6204Y19129D01*
G01X6212Y19143D01*
G01X6222Y19156D01*
G01X6233Y19167D01*
G01X6244Y19178D01*
G01X6257Y19188D01*
G01X6271Y19196D01*
G01X6285Y19203D01*
G01X6301Y19208D01*
G01X6316Y19213D01*
G01X6333Y19215D01*
G01X6350Y19216D01*
G01X6367Y19215D01*
G01X6384Y19213D01*
G01X6399Y19208D01*
G01X6415Y19203D01*
G01X6429Y19196D01*
G01X6443Y19188D01*
G01X6456Y19178D01*
G01X6467Y19167D01*
G01X6478Y19156D01*
G01X6488Y19143D01*
G01X6496Y19129D01*
G01X6503Y19115D01*
G01X6508Y19099D01*
G01X6513Y19084D01*
G01X6515Y19067D01*
G01X6516Y19050D01*
G01X6515Y19033D01*
G01X6513Y19016D01*
G01X6508Y19001D01*
G01X6503Y18985D01*
G01X6496Y18971D01*
G01X6488Y18957D01*
G01X6478Y18944D01*
G01X6467Y18933D01*
G01X6456Y18922D01*
G01X6443Y18912D01*
G01X6429Y18904D01*
G01X6415Y18897D01*
G01X6399Y18892D01*
G01X6384Y18887D01*
G01X6367Y18885D01*
G01X6350Y18884D01*
G01X6333Y18885D01*
G01X6316Y18887D01*
G01X6301Y18892D01*
G01X6285Y18897D01*
G01X6271Y18904D01*
G01X6257Y18912D01*
G01X6244Y18922D01*
G01X6233Y18933D01*
G01X6222Y18944D01*
G01X6212Y18957D01*
G01X6204Y18971D01*
G01X6197Y18985D01*
G01X6192Y19001D01*
G01X6187Y19016D01*
G01X6185Y19033D01*
G01X6184Y19050D01*
G01X6151D01*
G01X6152Y19030D01*
G01X6154Y19010D01*
G01X6160Y18991D01*
G01X6166Y18972D01*
G01X6175Y18955D01*
G01X6185Y18939D01*
G01X6196Y18923D01*
G01X6209Y18909D01*
G01X6223Y18896D01*
G01X6239Y18885D01*
G01X6255Y18875D01*
G01X6272Y18866D01*
G01X6291Y18860D01*
G01X6310Y18854D01*
G01X6330Y18852D01*
G01X6350Y18851D01*
G01X6370Y18852D01*
G01X6390Y18854D01*
G01X6409Y18860D01*
G01X6428Y18866D01*
G01X6445Y18875D01*
G01X6461Y18885D01*
G01X6477Y18896D01*
G01X6491Y18909D01*
G01X6504Y18923D01*
G01X6515Y18939D01*
G01X6525Y18955D01*
G01X6534Y18972D01*
G01X6541Y18991D01*
G01X6546Y19010D01*
G01X6548Y19030D01*
G01X6550Y19050D01*
G01X6548Y19070D01*
G01X6546Y19090D01*
G01X6541Y19109D01*
G01X6534Y19128D01*
G01X6525Y19145D01*
G01X6515Y19161D01*
G01X6504Y19177D01*
G01X6491Y19191D01*
G01X6477Y19204D01*
G01X6461Y19215D01*
G01X6445Y19225D01*
G01X6428Y19234D01*
G01X6409Y19241D01*
G01X6390Y19246D01*
G01X6370Y19248D01*
G37*
G36*
G01X3810Y19250D02*
G01X3790Y19248D01*
G01X3770Y19246D01*
G01X3751Y19241D01*
G01X3732Y19234D01*
G01X3715Y19225D01*
G01X3699Y19215D01*
G01X3683Y19204D01*
G01X3669Y19191D01*
G01X3656Y19177D01*
G01X3645Y19161D01*
G01X3635Y19145D01*
G01X3626Y19128D01*
G01X3620Y19109D01*
G01X3614Y19090D01*
G01X3612Y19070D01*
G01X3611Y19050D01*
G01X3644D01*
G01X3645Y19067D01*
G01X3647Y19084D01*
G01X3652Y19099D01*
G01X3657Y19115D01*
G01X3664Y19129D01*
G01X3672Y19143D01*
G01X3682Y19156D01*
G01X3693Y19167D01*
G01X3704Y19178D01*
G01X3717Y19188D01*
G01X3731Y19196D01*
G01X3745Y19203D01*
G01X3761Y19208D01*
G01X3776Y19213D01*
G01X3793Y19215D01*
G01X3810Y19216D01*
G01X3827Y19215D01*
G01X3844Y19213D01*
G01X3859Y19208D01*
G01X3875Y19203D01*
G01X3889Y19196D01*
G01X3903Y19188D01*
G01X3916Y19178D01*
G01X3927Y19167D01*
G01X3938Y19156D01*
G01X3948Y19143D01*
G01X3956Y19129D01*
G01X3963Y19115D01*
G01X3968Y19099D01*
G01X3973Y19084D01*
G01X3975Y19067D01*
G01X3976Y19050D01*
G01X3975Y19033D01*
G01X3973Y19016D01*
G01X3968Y19001D01*
G01X3963Y18985D01*
G01X3956Y18971D01*
G01X3948Y18957D01*
G01X3938Y18944D01*
G01X3927Y18933D01*
G01X3916Y18922D01*
G01X3903Y18912D01*
G01X3889Y18904D01*
G01X3875Y18897D01*
G01X3859Y18892D01*
G01X3844Y18887D01*
G01X3827Y18885D01*
G01X3810Y18884D01*
G01X3793Y18885D01*
G01X3776Y18887D01*
G01X3761Y18892D01*
G01X3745Y18897D01*
G01X3731Y18904D01*
G01X3717Y18912D01*
G01X3704Y18922D01*
G01X3693Y18933D01*
G01X3682Y18944D01*
G01X3672Y18957D01*
G01X3664Y18971D01*
G01X3657Y18985D01*
G01X3652Y19001D01*
G01X3647Y19016D01*
G01X3645Y19033D01*
G01X3644Y19050D01*
G01X3611D01*
G01X3612Y19030D01*
G01X3614Y19010D01*
G01X3620Y18991D01*
G01X3626Y18972D01*
G01X3635Y18955D01*
G01X3645Y18939D01*
G01X3656Y18923D01*
G01X3669Y18909D01*
G01X3683Y18896D01*
G01X3699Y18885D01*
G01X3715Y18875D01*
G01X3732Y18866D01*
G01X3751Y18860D01*
G01X3770Y18854D01*
G01X3790Y18852D01*
G01X3810Y18851D01*
G01X3830Y18852D01*
G01X3850Y18854D01*
G01X3869Y18860D01*
G01X3888Y18866D01*
G01X3905Y18875D01*
G01X3921Y18885D01*
G01X3937Y18896D01*
G01X3951Y18909D01*
G01X3964Y18923D01*
G01X3975Y18939D01*
G01X3985Y18955D01*
G01X3994Y18972D01*
G01X4001Y18991D01*
G01X4006Y19010D01*
G01X4008Y19030D01*
G01X4010Y19050D01*
G01X4008Y19070D01*
G01X4006Y19090D01*
G01X4001Y19109D01*
G01X3994Y19128D01*
G01X3985Y19145D01*
G01X3975Y19161D01*
G01X3964Y19177D01*
G01X3951Y19191D01*
G01X3937Y19204D01*
G01X3921Y19215D01*
G01X3905Y19225D01*
G01X3888Y19234D01*
G01X3869Y19241D01*
G01X3850Y19246D01*
G01X3830Y19248D01*
G37*
G36*
G01X7548Y14600D02*
G01X7567Y14567D01*
G01X7605D01*
G01X7889D01*
G01X7818Y14444D01*
G01X7747Y14322D01*
G01X7676Y14444D01*
G01X7605Y14567D01*
G01X7567D01*
G01X7647Y14428D01*
G01X7747Y14255D01*
G01X7847Y14428D01*
G01X7947Y14600D01*
G37*
G36*
G01X7548Y13965D02*
G01X7567Y13932D01*
G01X7605D01*
G01X7889D01*
G01X7818Y13809D01*
G01X7747Y13687D01*
G01X7676Y13809D01*
G01X7605Y13932D01*
G01X7567D01*
G01X7647Y13793D01*
G01X7747Y13620D01*
G01X7847Y13793D01*
G01X7947Y13965D01*
G37*
G36*
G01X6913Y15235D02*
G01X6932Y15202D01*
G01X6970D01*
G01X7254D01*
G01X7183Y15079D01*
G01X7112Y14957D01*
G01X7041Y15079D01*
G01X6970Y15202D01*
G01X6932D01*
G01X7012Y15063D01*
G01X7112Y14890D01*
G01X7212Y15063D01*
G01X7312Y15235D01*
G37*
G36*
G01X6913Y14600D02*
G01X6932Y14567D01*
G01X6970D01*
G01X7254D01*
G01X7183Y14444D01*
G01X7112Y14322D01*
G01X7041Y14444D01*
G01X6970Y14567D01*
G01X6932D01*
G01X7012Y14428D01*
G01X7112Y14255D01*
G01X7212Y14428D01*
G01X7312Y14600D01*
G37*
G36*
G01X6913Y13965D02*
G01X6932Y13932D01*
G01X6970D01*
G01X7254D01*
G01X7183Y13809D01*
G01X7112Y13687D01*
G01X7041Y13809D01*
G01X6970Y13932D01*
G01X6932D01*
G01X7012Y13793D01*
G01X7112Y13620D01*
G01X7212Y13793D01*
G01X7312Y13965D01*
G37*
G36*
G01X6913Y13330D02*
G01X6932Y13297D01*
G01X6970D01*
G01X7254D01*
G01X7183Y13174D01*
G01X7112Y13052D01*
G01X7041Y13174D01*
G01X6970Y13297D01*
G01X6932D01*
G01X7012Y13158D01*
G01X7112Y12985D01*
G01X7212Y13158D01*
G01X7312Y13330D01*
G37*
G36*
G01X6278Y13330D02*
G01X6297Y13297D01*
G01X6335D01*
G01X6619D01*
G01X6548Y13174D01*
G01X6477Y13052D01*
G01X6406Y13174D01*
G01X6335Y13297D01*
G01X6297D01*
G01X6377Y13158D01*
G01X6477Y12985D01*
G01X6577Y13158D01*
G01X6677Y13330D01*
G37*
G36*
G01X6278Y13965D02*
G01X6297Y13932D01*
G01X6335D01*
G01X6619D01*
G01X6548Y13809D01*
G01X6477Y13687D01*
G01X6406Y13809D01*
G01X6335Y13932D01*
G01X6297D01*
G01X6377Y13793D01*
G01X6477Y13620D01*
G01X6577Y13793D01*
G01X6677Y13965D01*
G37*
G36*
G01X6278Y14600D02*
G01X6297Y14567D01*
G01X6335D01*
G01X6619D01*
G01X6548Y14444D01*
G01X6477Y14322D01*
G01X6406Y14444D01*
G01X6335Y14567D01*
G01X6297D01*
G01X6377Y14428D01*
G01X6477Y14255D01*
G01X6577Y14428D01*
G01X6677Y14600D01*
G37*
G36*
G01X7548Y13330D02*
G01X7567Y13297D01*
G01X7605D01*
G01X7889D01*
G01X7818Y13174D01*
G01X7747Y13052D01*
G01X7676Y13174D01*
G01X7605Y13297D01*
G01X7567D01*
G01X7647Y13158D01*
G01X7747Y12985D01*
G01X7847Y13158D01*
G01X7947Y13330D01*
G37*
G36*
G01X7548Y15235D02*
G01X7567Y15202D01*
G01X7605D01*
G01X7889D01*
G01X7818Y15079D01*
G01X7747Y14957D01*
G01X7676Y15079D01*
G01X7605Y15202D01*
G01X7567D01*
G01X7647Y15063D01*
G01X7747Y14890D01*
G01X7847Y15063D01*
G01X7947Y15235D01*
G37*
G36*
G01X6278Y15235D02*
G01X6297Y15202D01*
G01X6335D01*
G01X6619D01*
G01X6548Y15079D01*
G01X6477Y14957D01*
G01X6406Y15079D01*
G01X6335Y15202D01*
G01X6297D01*
G01X6377Y15063D01*
G01X6477Y14890D01*
G01X6577Y15063D01*
G01X6677Y15235D01*
G37*
G36*
G01X10233Y8814D02*
G01X10252Y8780D01*
G01X10290D01*
G01X10574D01*
G01X10503Y8658D01*
G01X10432Y8535D01*
G01X10361Y8658D01*
G01X10290Y8780D01*
G01X10252D01*
G01X10332Y8641D01*
G01X10432Y8468D01*
G01X10631Y8814D01*
G37*
G36*
G01X10233Y7544D02*
G01X10252Y7510D01*
G01X10290D01*
G01X10574D01*
G01X10503Y7388D01*
G01X10432Y7265D01*
G01X10361Y7388D01*
G01X10290Y7510D01*
G01X10252D01*
G01X10332Y7371D01*
G01X10432Y7198D01*
G01X10631Y7544D01*
G37*
G36*
G01X10868Y8179D02*
G01X10887Y8145D01*
G01X10925D01*
G01X11209D01*
G01X11138Y8023D01*
G01X11067Y7900D01*
G01X10996Y8023D01*
G01X10925Y8145D01*
G01X10887D01*
G01X10967Y8006D01*
G01X11067Y7833D01*
G01X11266Y8179D01*
G37*
G36*
G01X9598Y8179D02*
G01X9617Y8145D01*
G01X9655D01*
G01X9939D01*
G01X9868Y8023D01*
G01X9797Y7900D01*
G01X9726Y8023D01*
G01X9655Y8145D01*
G01X9617D01*
G01X9697Y8006D01*
G01X9797Y7833D01*
G01X9996Y8179D01*
G37*
G36*
G01X10868Y7544D02*
G01X10887Y7510D01*
G01X10925D01*
G01X11209D01*
G01X11138Y7388D01*
G01X11067Y7265D01*
G01X10996Y7388D01*
G01X10925Y7510D01*
G01X10887D01*
G01X10967Y7371D01*
G01X11067Y7198D01*
G01X11266Y7544D01*
G37*
G36*
G01X9598Y7544D02*
G01X9617Y7510D01*
G01X9655D01*
G01X9939D01*
G01X9868Y7388D01*
G01X9797Y7265D01*
G01X9726Y7388D01*
G01X9655Y7510D01*
G01X9617D01*
G01X9697Y7371D01*
G01X9797Y7198D01*
G01X9996Y7544D01*
G37*
G36*
G01X10868Y8814D02*
G01X10887Y8780D01*
G01X10925D01*
G01X11209D01*
G01X11138Y8658D01*
G01X11067Y8535D01*
G01X10996Y8658D01*
G01X10925Y8780D01*
G01X10887D01*
G01X10967Y8641D01*
G01X11067Y8468D01*
G01X11266Y8814D01*
G37*
G36*
G01X9598Y8814D02*
G01X9617Y8780D01*
G01X9655D01*
G01X9939D01*
G01X9868Y8658D01*
G01X9797Y8535D01*
G01X9726Y8658D01*
G01X9655Y8780D01*
G01X9617D01*
G01X9697Y8641D01*
G01X9797Y8468D01*
G01X9996Y8814D01*
G37*
G36*
G01X5643Y13330D02*
G01X5662Y13297D01*
G01X5700D01*
G01X5984D01*
G01X5913Y13174D01*
G01X5842Y13052D01*
G01X5771Y13174D01*
G01X5700Y13297D01*
G01X5662D01*
G01X5742Y13158D01*
G01X5842Y12985D01*
G01X5942Y13158D01*
G01X6042Y13330D01*
G37*
G36*
G01X5643Y13965D02*
G01X5662Y13932D01*
G01X5700D01*
G01X5984D01*
G01X5913Y13809D01*
G01X5842Y13687D01*
G01X5771Y13809D01*
G01X5700Y13932D01*
G01X5662D01*
G01X5742Y13793D01*
G01X5842Y13620D01*
G01X5942Y13793D01*
G01X6042Y13965D01*
G37*
G36*
G01X5643Y14600D02*
G01X5662Y14567D01*
G01X5700D01*
G01X5984D01*
G01X5913Y14444D01*
G01X5842Y14322D01*
G01X5771Y14444D01*
G01X5700Y14567D01*
G01X5662D01*
G01X5742Y14428D01*
G01X5842Y14255D01*
G01X5942Y14428D01*
G01X6042Y14600D01*
G37*
G36*
G01X5643Y15235D02*
G01X5662Y15202D01*
G01X5700D01*
G01X5984D01*
G01X5913Y15079D01*
G01X5842Y14957D01*
G01X5771Y15079D01*
G01X5700Y15202D01*
G01X5662D01*
G01X5742Y15063D01*
G01X5842Y14890D01*
G01X5942Y15063D01*
G01X6042Y15235D01*
G37*
G36*
G01X7929Y3475D02*
G01X7948Y3441D01*
G01X7986D01*
G01X8270D01*
G01X8199Y3319D01*
G01X8128Y3196D01*
G01X8057Y3319D01*
G01X7986Y3441D01*
G01X7948D01*
G01X8128Y3129D01*
G01X8228Y3302D01*
G01X8328Y3475D01*
G37*
G36*
G01X3001Y10673D02*
G01X3020Y10640D01*
G01X3058D01*
G01X3342D01*
G01X3271Y10517D01*
G01X3200Y10394D01*
G01X3129Y10517D01*
G01X3058Y10640D01*
G01X3020D01*
G01X3200Y10327D01*
G01X3299Y10500D01*
G01X3400Y10673D01*
G37*
G36*
G01X8101Y5872D02*
G01X8119Y5839D01*
G01X8158D01*
G01X8442D01*
G01X8371Y5717D01*
G01X8300Y5594D01*
G01X8158Y5839D01*
G01X8119D01*
G01X8200Y5700D01*
G01X8300Y5528D01*
G01X8400Y5700D01*
G01X8499Y5872D01*
G37*
G36*
G01X3992Y9317D02*
G01X4011Y9283D01*
G01X4049D01*
G01X4333D01*
G01X4262Y9161D01*
G01X4191Y9038D01*
G01X4120Y9161D01*
G01X4049Y9283D01*
G01X4011D01*
G01X4191Y8971D01*
G01X4291Y9144D01*
G01X4391Y9317D01*
G37*
G36*
G01X7294Y5888D02*
G01X7313Y5854D01*
G01X7351D01*
G01X7635D01*
G01X7564Y5732D01*
G01X7493Y5609D01*
G01X7422Y5732D01*
G01X7351Y5854D01*
G01X7313D01*
G01X7493Y5542D01*
G01X7593Y5715D01*
G01X7693Y5888D01*
G37*
G36*
G01X8901Y12472D02*
G01X8920Y12439D01*
G01X8958D01*
G01X9242D01*
G01X9100Y12194D01*
G01X9029Y12316D01*
G01X8958Y12439D01*
G01X8920D01*
G01X9000Y12300D01*
G01X9100Y12127D01*
G01X9200Y12300D01*
G01X9299Y12472D01*
G37*
G04 Image End*
G54D10*

M02*
