G04 Layer: TopPasteMaskLayer*
G04 EasyEDA Pro v1.9.29, 2023-05-07 01:58:04*
G04 Gerber Generator version 0.3*
G04 Scale: 100 percent, Rotated: No, Reflected: No*
G04 Dimensions in millimeters*
G04 Leading zeros omitted, absolute positions, 3 integers and 3 decimals*
%FSLAX33Y33*%
%MOMM*%
%AMPolygonMacro1*4,1,5,-0.5,0.499999,0.5,0.499999,0.005363,-0.000003,0.5,-0.499999,-0.5,-0.499999,-0.5,0.499999,0*%
%AMPolygonMacro2*4,1,6,-0.75,0.0,-0.250001,0.499999,0.75,0.499999,0.249998,0.0,0.75,-0.499999,-0.250001,-0.499999,-0.75,0.0,0*%
%AMPolygonMacro3*4,1,5,-0.5,0.0,-0.000001,0.499999,0.5,0.499999,0.5,-0.499999,-0.000001,-0.499999,-0.5,0.0,0*%
%ADD10C,0.0254*%
%ADD11R,1.399997X1.199998*%
%ADD12PolygonMacro1*%
%ADD13PolygonMacro2*%
%ADD14PolygonMacro3*%
G75*


G04 PolygonModel Start*
G36*
G01X8865Y1414D02*
G01X8865Y2694D01*
G01X8915Y2744D01*
G01X10065D01*
G01X10115Y2694D01*
G01X10120Y2284D01*
G01X9670D01*
G01Y1834D01*
G01X10110D01*
G01X10115Y1414D01*
G01X10065Y1364D01*
G01X8915D01*
G01X8865Y1414D01*
G37*
G54D10*
G01X8865Y1414D02*
G01X8865Y2694D01*
G01X8915Y2744D01*
G01X10065D01*
G01X10115Y2694D01*
G01X10120Y2284D01*
G01X9670D01*
G01Y1834D01*
G01X10110D01*
G01X10115Y1414D01*
G01X10065Y1364D01*
G01X8915D01*
G01X8865Y1414D01*
G36*
G01X11015Y1414D02*
G01X11015Y1834D01*
G01X11460D01*
G01Y2284D01*
G01X11020D01*
G01X11015Y2694D01*
G01X11065Y2744D01*
G01X12215D01*
G01X12265Y2694D01*
G01Y1414D01*
G01X12215Y1364D01*
G01X11065D01*
G01X11015Y1414D01*
G37*
G01X11015Y1414D02*
G01X11015Y1834D01*
G01X11460D01*
G01Y2284D01*
G01X11020D01*
G01X11015Y2694D01*
G01X11065Y2744D01*
G01X12215D01*
G01X12265Y2694D01*
G01Y1414D01*
G01X12215Y1364D01*
G01X11065D01*
G01X11015Y1414D01*
G04 PolygonModel End*

G04 Pad Start*
G54D11*
G01X7086Y2033D03*
G01X3616Y2033D03*
G54D12*
G01X5912Y10795D03*
G54D13*
G01X7362Y10795D03*
G54D14*
G01X8812Y10795D03*
G04 Pad End*

M02*
