G04 Layer: TopLayer*
G04 EasyEDA Pro v1.9.29, 2023-05-07 01:58:04*
G04 Gerber Generator version 0.3*
G04 Scale: 100 percent, Rotated: No, Reflected: No*
G04 Dimensions in millimeters*
G04 Leading zeros omitted, absolute positions, 3 integers and 3 decimals*
%FSLAX33Y33*%
%MOMM*%
%AMOval*1,1,$1,$2,$3*1,1,$1,$4,$5*20,1,$1,$2,$3,$4,$5,0*%
%AMPolygonMacro1*4,1,5,0.005363,-0.000003,0.5,-0.499999,-0.5,-0.499999,-0.5,0.499999,0.5,0.499999,0.005363,-0.000003,0*%
%AMPolygonMacro2*4,1,6,-0.75,0.0,-0.250001,-0.499999,0.75,-0.499999,0.249998,0.0,0.75,0.499999,-0.250001,0.499999,-0.75,0.0,0*%
%AMPolygonMacro3*4,1,5,-0.000001,0.499999,0.5,0.499999,0.5,-0.499999,-0.000001,-0.499999,-0.5,0.0,-0.000001,0.499999,0*%
%ADD999C,0.2032*%
%ADD10C,0.399999*%
%ADD11C,0.0254*%
%ADD12C,1.5*%
%ADD13R,1.5X1.5*%
%ADD14Oval,1.5X0.0X-0.15X0.0X0.15*%
%ADD15R,1.399997X1.199998*%
%ADD16R,1.1375X1.37701*%
%ADD17R,1.132535X1.37701*%
%ADD18PolygonMacro1*%
%ADD19PolygonMacro2*%
%ADD20PolygonMacro3*%
%ADD21C,0.650001*%
%ADD22C,0.610001*%
%ADD23C,0.299999*%
G75*


G04 Copper Start*
G36*
G01X12866Y1270D02*
G03X13353Y354I1104J0D01*
G01X9437D01*
G01X9454Y370D01*
G01X9957Y873D01*
G03X10058Y1012I-392J392D01*
G01X10131D01*
G03X10485Y1366I0J354D01*
G01Y2743D01*
G03X10131Y3097I-354J0D01*
G01X8999D01*
G03X8645Y2743I0J-354D01*
G01Y1366D01*
G03X8648Y1316I354J0D01*
G01X8067D01*
G03X8090Y1433I-281J116D01*
G01Y2633D01*
G03X7786Y2937I-304J0D01*
G01X6386D01*
G03X6082Y2633I0J-304D01*
G01Y1433D01*
G03X6105Y1316I304J0D01*
G01X4650D01*
G03X4670Y1433I-334J116D01*
G01Y2633D01*
G03X4316Y2987I-354J0D01*
G01X4170D01*
G01Y3115D01*
G03X4008Y3507I-554J0D01*
G01X3094Y4421D01*
G01Y8519D01*
G03X3117Y8495I415J367D01*
G01X3517Y8095D01*
G03X3909Y7932I392J392D01*
G01X6939D01*
G01Y6072D01*
G03X6834Y5715I554J-357D01*
G03X7493Y5056I659J0D01*
G03X7887Y5186I0J659D01*
G03X8300Y5041I413J514D01*
G03X8959Y5700I0J659D01*
G03X8854Y6057I-659J0D01*
G01Y8591D01*
G01Y9213D01*
G01X9341Y9700D01*
G03X9494Y9991I-392J392D01*
G03X9666Y10295I-182J304D01*
G01Y11295D01*
G03X9312Y11649I-354J0D01*
G01X9204D01*
G03X9759Y12300I-104J651D01*
G03X9100Y12959I-659J0D01*
G03X8845Y12908I0J-659D01*
G03X8858Y13002I-341J94D01*
G01Y15288D01*
G03X8754Y15538I-354J0D01*
G01X8119Y16173D01*
G03X7869Y16277I-250J-250D01*
G01X5710D01*
G03X5460Y16173I0J-354D01*
G01X4825Y15538D01*
G03X4721Y15288I250J-250D01*
G01Y13002D01*
G03X4825Y12752I354J0D01*
G01X5460Y12117D01*
G03X5710Y12013I250J250D01*
G01X7529D01*
G01X7165Y11649D01*
G01X7112D01*
G03X6862Y11545I0J-354D01*
G01X6741Y11425D01*
G03X6412Y11649I-329J-130D01*
G01X5412D01*
G03X5062Y11349I0J-354D01*
G01X3495D01*
G03X3103Y11187I0J-554D01*
G01X3094Y11178D01*
G01Y16280D01*
G01X4202Y17388D01*
G03X4364Y17780I-392J392D01*
G01Y17945D01*
G03X4914Y18900I-554J955D01*
G01Y19200D01*
G03X4605Y19966I-1104J0D01*
G01X5555D01*
G03X5246Y19200I795J-766D01*
G01Y18900D01*
G03X6350Y17796I1104J0D01*
G03X7454Y18900I0J1104D01*
G01Y19200D01*
G03X7145Y19966I-1104J0D01*
G01X8166D01*
G03X7836Y19200I724J-766D01*
G01Y18900D01*
G03X8890Y17846I1054J0D01*
G03X9944Y18900I0J1054D01*
G01Y19200D01*
G03X9614Y19966I-1054J0D01*
G01X10194D01*
G01X10164Y19935D01*
G03X10060Y19685I250J-250D01*
G01Y11811D01*
G01Y11049D01*
G01Y10180D01*
G01X9148Y9267D01*
G03X9044Y9017I250J-250D01*
G01Y6985D01*
G03X9148Y6735I354J0D01*
G01X9275Y6608D01*
G03X9525Y6504I250J250D01*
G01X11430D01*
G03X11680Y6608I0J354D01*
G01X11807Y6735D01*
G03X11911Y6985I-250J250D01*
G01Y7854D01*
G01X12869Y8812D01*
G03X13833Y7794I1101J78D01*
G01Y7446D01*
G03X12866Y6350I137J-1096D01*
G03X12903Y6067I1104J0D01*
G01X11165Y4329D01*
G03X11003Y3937I392J-392D01*
G01Y3097D01*
G01X10999D01*
G03X10645Y2743I0J-354D01*
G01Y1366D01*
G03X10999Y1012I354J0D01*
G01X12131D01*
G03X12485Y1366I0J354D01*
G01Y2743D01*
G03X12131Y3097I-354J0D01*
G01X12111D01*
G01Y3707D01*
G01X13687Y5283D01*
G03X13833Y5254I283J1067D01*
G01Y4906D01*
G03X12866Y3810I137J-1096D01*
G03X13833Y2714I1104J0D01*
G01Y2366D01*
G03X12866Y1270I137J-1096D01*
G37*
G54D999*
G01X12866Y1270D02*
G03X13353Y354I1104J0D01*
G01X9437D01*
G01X9454Y370D01*
G01X9957Y873D01*
G03X10058Y1012I-392J392D01*
G01X10131D01*
G03X10485Y1366I0J354D01*
G01Y2743D01*
G03X10131Y3097I-354J0D01*
G01X8999D01*
G03X8645Y2743I0J-354D01*
G01Y1366D01*
G03X8648Y1316I354J0D01*
G01X8067D01*
G03X8090Y1433I-281J116D01*
G01Y2633D01*
G03X7786Y2937I-304J0D01*
G01X6386D01*
G03X6082Y2633I0J-304D01*
G01Y1433D01*
G03X6105Y1316I304J0D01*
G01X4650D01*
G03X4670Y1433I-334J116D01*
G01Y2633D01*
G03X4316Y2987I-354J0D01*
G01X4170D01*
G01Y3115D01*
G03X4008Y3507I-554J0D01*
G01X3094Y4421D01*
G01Y8519D01*
G03X3117Y8495I415J367D01*
G01X3517Y8095D01*
G03X3909Y7932I392J392D01*
G01X6939D01*
G01Y6072D01*
G03X6834Y5715I554J-357D01*
G03X7493Y5056I659J0D01*
G03X7887Y5186I0J659D01*
G03X8300Y5041I413J514D01*
G03X8959Y5700I0J659D01*
G03X8854Y6057I-659J0D01*
G01Y8591D01*
G01Y9213D01*
G01X9341Y9700D01*
G03X9494Y9991I-392J392D01*
G03X9666Y10295I-182J304D01*
G01Y11295D01*
G03X9312Y11649I-354J0D01*
G01X9204D01*
G03X9759Y12300I-104J651D01*
G03X9100Y12959I-659J0D01*
G03X8845Y12908I0J-659D01*
G03X8858Y13002I-341J94D01*
G01Y15288D01*
G03X8754Y15538I-354J0D01*
G01X8119Y16173D01*
G03X7869Y16277I-250J-250D01*
G01X5710D01*
G03X5460Y16173I0J-354D01*
G01X4825Y15538D01*
G03X4721Y15288I250J-250D01*
G01Y13002D01*
G03X4825Y12752I354J0D01*
G01X5460Y12117D01*
G03X5710Y12013I250J250D01*
G01X7529D01*
G01X7165Y11649D01*
G01X7112D01*
G03X6862Y11545I0J-354D01*
G01X6741Y11425D01*
G03X6412Y11649I-329J-130D01*
G01X5412D01*
G03X5062Y11349I0J-354D01*
G01X3495D01*
G03X3103Y11187I0J-554D01*
G01X3094Y11178D01*
G01Y16280D01*
G01X4202Y17388D01*
G03X4364Y17780I-392J392D01*
G01Y17945D01*
G03X4914Y18900I-554J955D01*
G01Y19200D01*
G03X4605Y19966I-1104J0D01*
G01X5555D01*
G03X5246Y19200I795J-766D01*
G01Y18900D01*
G03X6350Y17796I1104J0D01*
G03X7454Y18900I0J1104D01*
G01Y19200D01*
G03X7145Y19966I-1104J0D01*
G01X8166D01*
G03X7836Y19200I724J-766D01*
G01Y18900D01*
G03X8890Y17846I1054J0D01*
G03X9944Y18900I0J1054D01*
G01Y19200D01*
G03X9614Y19966I-1054J0D01*
G01X10194D01*
G01X10164Y19935D01*
G03X10060Y19685I250J-250D01*
G01Y11811D01*
G01Y11049D01*
G01Y10180D01*
G01X9148Y9267D01*
G03X9044Y9017I250J-250D01*
G01Y6985D01*
G03X9148Y6735I354J0D01*
G01X9275Y6608D01*
G03X9525Y6504I250J250D01*
G01X11430D01*
G03X11680Y6608I0J354D01*
G01X11807Y6735D01*
G03X11911Y6985I-250J250D01*
G01Y7854D01*
G01X12869Y8812D01*
G03X13833Y7794I1101J78D01*
G01Y7446D01*
G03X12866Y6350I137J-1096D01*
G03X12903Y6067I1104J0D01*
G01X11165Y4329D01*
G03X11003Y3937I392J-392D01*
G01Y3097D01*
G01X10999D01*
G03X10645Y2743I0J-354D01*
G01Y1366D01*
G03X10999Y1012I354J0D01*
G01X12131D01*
G03X12485Y1366I0J354D01*
G01Y2743D01*
G03X12131Y3097I-354J0D01*
G01X12111D01*
G01Y3707D01*
G01X13687Y5283D01*
G03X13833Y5254I283J1067D01*
G01Y4906D01*
G03X12866Y3810I137J-1096D01*
G03X13833Y2714I1104J0D01*
G01Y2366D01*
G03X12866Y1270I137J-1096D01*
G54D10*
G01X8890Y18900D02*
G01X9565Y18225D01*
G01X8890Y18900D02*
G01X8215Y18225D01*
G01X7086Y2033D02*
G01X6181Y2033D01*
G01X7086Y2033D02*
G01X7991Y2033D01*
G01X7086Y2033D02*
G01X7086Y2838D01*
G04 Copper End*

G04 PolygonModel Start*
G36*
G01X10414Y11811D02*
G01X10414Y10033D01*
G01X9398Y9017D01*
G01Y6985D01*
G01X9525Y6858D01*
G01X11430D01*
G01X11557Y6985D01*
G01Y8001D01*
G01X13843Y10287D01*
G01X11938D01*
G01X10414Y11811D01*
G37*
G54D11*
G01X10414Y11811D02*
G01X10414Y10033D01*
G01X9398Y9017D01*
G01Y6985D01*
G01X9525Y6858D01*
G01X11430D01*
G01X11557Y6985D01*
G01Y8001D01*
G01X13843Y10287D01*
G01X11938D01*
G01X10414Y11811D01*
G36*
G01X5075Y15288D02*
G01X5710Y15923D01*
G01X7869D01*
G01X8504Y15288D01*
G01Y13002D01*
G01X7869Y12367D01*
G01X5710D01*
G01X5075Y13002D01*
G01Y15288D01*
G37*
G01X5075Y15288D02*
G01X5710Y15923D01*
G01X7869D01*
G01X8504Y15288D01*
G01Y13002D01*
G01X7869Y12367D01*
G01X5710D01*
G01X5075Y13002D01*
G01Y15288D01*
G36*
G01X14478Y18034D02*
G01X13589Y18034D01*
G01X12573Y17018D01*
G01Y13589D01*
G01X13589Y12573D01*
G01X14478D01*
G01X14859Y12192D01*
G01Y10668D01*
G01X14478Y10287D01*
G01X11176D01*
G01X10414Y11049D01*
G01Y19685D01*
G01X10795Y20066D01*
G01X14478D01*
G01X14859Y19685D01*
G01Y18415D01*
G01X14478Y18034D01*
G37*
G01X14478Y18034D02*
G01X13589Y18034D01*
G01X12573Y17018D01*
G01Y13589D01*
G01X13589Y12573D01*
G01X14478D01*
G01X14859Y12192D01*
G01Y10668D01*
G01X14478Y10287D01*
G01X11176D01*
G01X10414Y11049D01*
G01Y19685D01*
G01X10795Y20066D01*
G01X14478D01*
G01X14859Y19685D01*
G01Y18415D01*
G01X14478Y18034D01*
G04 PolygonModel End*

G04 Pad Start*
G54D12*
G01X13970Y13970D03*
G01X13970Y16510D03*
G01X13970Y19050D03*
G01X13970Y11430D03*
G01X13970Y8890D03*
G01X13970Y6350D03*
G01X13970Y3810D03*
G01X13970Y1270D03*
G01X1270Y1270D03*
G01X1270Y3810D03*
G01X1270Y6350D03*
G01X1270Y8890D03*
G01X1270Y11430D03*
G01X1270Y13970D03*
G01X1270Y16510D03*
G54D13*
G01X1270Y19050D03*
G54D14*
G01X11430Y19050D03*
G01X8890Y19050D03*
G01X6350Y19050D03*
G01X3810Y19050D03*
G54D15*
G01X7086Y2033D03*
G01X3616Y2033D03*
G54D17*
G01X11565Y2054D03*
G01X9565Y2054D03*
G54D18*
G01X5912Y10795D03*
G54D19*
G01X7362Y10795D03*
G54D20*
G01X8812Y10795D03*
G04 Pad End*

G04 Via Start*
G54D21*
G01X10432Y8006D03*
G54D22*
G01X7747Y14428D03*
G01X7747Y13793D03*
G01X7112Y15063D03*
G01X7112Y14428D03*
G01X7112Y13793D03*
G01X7112Y13158D03*
G01X6477Y13158D03*
G01X6477Y13793D03*
G01X6477Y14428D03*
G01X7747Y13158D03*
G01X7747Y15063D03*
G01X6477Y15063D03*
G01X10432Y8641D03*
G01X10432Y7371D03*
G01X11067Y8006D03*
G01X9797Y8006D03*
G01X11067Y7371D03*
G01X9797Y7371D03*
G01X11067Y8641D03*
G01X9797Y8641D03*
G01X5842Y13158D03*
G01X5842Y13793D03*
G01X5842Y14428D03*
G01X5842Y15063D03*
G01X8128Y3302D03*
G01X3200Y10500D03*
G01X8300Y5700D03*
G01X4191Y9144D03*
G01X7493Y5715D03*
G01X9100Y12300D03*
G04 Via End*

G04 Track Start*
G54D10*
G01X3616Y2033D02*
G01X3616Y3115D01*
G01X2540Y4191D01*
G01Y16510D01*
G01X3810Y17780D01*
G01Y19050D01*
G01X1270Y1270D02*
G01X2033Y2033D01*
G01X3616D01*
G01X11557Y1837D02*
G01X11557Y3937D01*
G01X13970Y6350D01*
G01X3616Y1184D02*
G01X3616Y2033D01*
G01X9565Y2054D02*
G01X9565Y1265D01*
G01X8300Y5700D02*
G01X8300Y8591D01*
G01X3509Y8887D02*
G01X3509Y9392D01*
G01X8128Y3302D02*
G01X7493Y3302D01*
G01X7086Y2895D01*
G01Y2033D01*
G01X9565Y1265D02*
G01X9062Y762D01*
G01X4038D01*
G01X3616Y1184D01*
G01X8812Y10795D02*
G01X8949Y10658D01*
G01Y10092D01*
G01X8300Y9443D01*
G01Y8591D01*
G01X4191Y9144D02*
G01X7747Y9144D01*
G01X8300Y8591D01*
G01X3909Y8487D02*
G01X3509Y8887D01*
G01X7261Y8487D02*
G01X3909Y8487D01*
G01X7493Y8255D02*
G01X7261Y8487D01*
G01X7493Y5715D02*
G01X7493Y8255D01*
G01X3509Y9392D02*
G01X3919Y9801D01*
G01X7261D01*
G01X7493Y10033D01*
G01Y10664D01*
G01X7362Y10795D01*
G01X9100Y12300D02*
G01X8600Y12300D01*
G01X3200Y10500D02*
G01X3495Y10795D01*
G01X5638Y10795D02*
G01X3495Y10795D01*
G01X5638Y10795D02*
G01X5661Y10818D01*
G01X8600Y12300D02*
G01X7362Y11062D01*
G01X7362Y10795D02*
G01X7362Y11062D01*
G54D23*
G01X8812Y10795D02*
G01X7362Y10795D01*
G04 Track End*

M02*
